Besley-Black Italic.ufo
<glyph name="dollar" format="2">
	<advance width="1506" height="0"/>
	<unicode hex="0024"/>
	<outline>
		<contour>
			<point x="1034" y="1102" type="curve" smooth="yes"/>
			<point x="1034" y="1194"/>
			<point x="1118" y="1204"/>
			<point x="1118" y="1250" type="curve" smooth="yes"/>
			<point x="1118" y="1282"/>
			<point x="1108" y="1303"/>
			<point x="1067" y="1315" type="curve" smooth="yes"/>
			<point x="1028" y="1326"/>
			<point x="997" y="1314"/>
			<point x="985" y="1271" type="curve" smooth="yes"/>
			<point x="919" y="1035" type="line" smooth="yes"/>
			<point x="903" y="980"/>
			<point x="894" y="974"/>
			<point x="951" y="957" type="curve" smooth="yes"/>
			<point x="1162" y="896"/>
			<point x="1404" y="806"/>
			<point x="1404" y="490" type="curve" smooth="yes"/>
			<point x="1404" y="208"/>
			<point x="1012" y="-11"/>
			<point x="665" y="-37" type="curve" smooth="yes"/>
			<point x="622" y="-40"/>
			<point x="615" y="-37"/>
			<point x="605" y="-73" type="curve" smooth="yes"/>
			<point x="588" y="-135" type="line" smooth="yes"/>
			<point x="580" y="-163"/>
			<point x="573" y="-170"/>
			<point x="535" y="-170" type="curve" smooth="yes"/>
			<point x="403" y="-170" type="line" smooth="yes"/>
			<point x="361" y="-170"/>
			<point x="359" y="-163"/>
			<point x="369" y="-129" type="curve" smooth="yes"/>
			<point x="389" y="-59" type="line" smooth="yes"/>
			<point x="400" y="-20"/>
			<point x="396" y="-24"/>
			<point x="357" y="-15" type="curve" smooth="yes"/>
			<point x="69" y="53"/>
			<point x="0" y="246"/>
			<point x="0" y="392" type="curve" smooth="yes"/>
			<point x="0" y="528"/>
			<point x="80" y="634"/>
			<point x="218" y="634" type="curve" smooth="yes"/>
			<point x="352" y="634"/>
			<point x="422" y="562"/>
			<point x="422" y="448" type="curve" smooth="yes"/>
			<point x="422" y="316"/>
			<point x="338" y="340"/>
			<point x="338" y="280" type="curve" smooth="yes"/>
			<point x="338" y="243"/>
			<point x="359" y="210"/>
			<point x="427" y="191" type="curve" smooth="yes"/>
			<point x="457" y="183"/>
			<point x="459" y="186"/>
			<point x="467" y="215" type="curve" smooth="yes"/>
			<point x="562" y="554" type="line" smooth="yes"/>
			<point x="573" y="592"/>
			<point x="545" y="601"/>
			<point x="511" y="612" type="curve" smooth="yes"/>
			<point x="331" y="669"/>
			<point x="170" y="758"/>
			<point x="170" y="1016" type="curve" smooth="yes"/>
			<point x="170" y="1314"/>
			<point x="498" y="1493"/>
			<point x="769" y="1532" type="curve" smooth="yes"/>
			<point x="828" y="1541"/>
			<point x="839" y="1533"/>
			<point x="854" y="1585" type="curve" smooth="yes"/>
			<point x="868" y="1635" type="line" smooth="yes"/>
			<point x="876" y="1664"/>
			<point x="889" y="1670"/>
			<point x="925" y="1670" type="curve" smooth="yes"/>
			<point x="1035" y="1670" type="line" smooth="yes"/>
			<point x="1088" y="1670"/>
			<point x="1099" y="1668"/>
			<point x="1086" y="1623" type="curve" smooth="yes"/>
			<point x="1070" y="1571" type="line" smooth="yes"/>
			<point x="1055" y="1516"/>
			<point x="1065" y="1524"/>
			<point x="1119" y="1510" type="curve" smooth="yes"/>
			<point x="1307" y="1462"/>
			<point x="1476" y="1354"/>
			<point x="1476" y="1158" type="curve" smooth="yes"/>
			<point x="1476" y="1002"/>
			<point x="1376" y="916"/>
			<point x="1258" y="916" type="curve" smooth="yes"/>
			<point x="1144" y="916"/>
			<point x="1034" y="968"/>
		</contour>
		<contour>
			<point x="644" y="1140" type="curve" smooth="yes"/>
			<point x="644" y="1118"/>
			<point x="651" y="1099"/>
			<point x="662" y="1083" type="curve" smooth="yes"/>
			<point x="684" y="1052"/>
			<point x="699" y="1036"/>
			<point x="712" y="1083" type="curve" smooth="yes"/>
			<point x="764" y="1267" type="line" smooth="yes"/>
			<point x="776" y="1310"/>
			<point x="779" y="1318"/>
			<point x="737" y="1297" type="curve" smooth="yes"/>
			<point x="674" y="1266"/>
			<point x="644" y="1212"/>
		</contour>
		<contour>
			<point x="924" y="380" type="curve" smooth="yes"/>
			<point x="924" y="441"/>
			<point x="889" y="480"/>
			<point x="834" y="509" type="curve" smooth="yes"/>
			<point x="780" y="538"/>
			<point x="776" y="532"/>
			<point x="759" y="471" type="curve" smooth="yes"/>
			<point x="691" y="229" type="line" smooth="yes"/>
			<point x="675" y="171"/>
			<point x="685" y="174"/>
			<point x="745" y="188" type="curve" smooth="yes"/>
			<point x="862" y="215"/>
			<point x="924" y="278"/>
		</contour>
	</outline>
</glyph>
<glyph name="parenright" format="2">
	<advance width="920" height="0"/>
	<unicode hex="0029"/>
	<outline>
		<contour>
			<point x="137" y="1478" type="curve" smooth="yes"/>
			<point x="181" y="1566" type="line" smooth="yes"/>
			<point x="202" y="1608"/>
			<point x="209" y="1602"/>
			<point x="255" y="1586" type="curve" smooth="yes"/>
			<point x="626" y="1454"/>
			<point x="820" y="1181"/>
			<point x="820" y="794" type="curve" smooth="yes"/>
			<point x="820" y="224"/>
			<point x="467" y="-174"/>
			<point x="-73" y="-324" type="curve" smooth="yes"/>
			<point x="-115" y="-336"/>
			<point x="-119" y="-338"/>
			<point x="-137" y="-302" type="curve" smooth="yes"/>
			<point x="-189" y="-198" type="line" smooth="yes"/>
			<point x="-204" y="-168"/>
			<point x="-185" y="-173"/>
			<point x="-155" y="-163" type="curve" smooth="yes"/>
			<point x="165" y="-56"/>
			<point x="350" y="369"/>
			<point x="350" y="794" type="curve" smooth="yes"/>
			<point x="350" y="1085"/>
			<point x="312" y="1333"/>
			<point x="143" y="1432" type="curve" smooth="yes"/>
			<point x="116" y="1448"/>
			<point x="123" y="1451"/>
		</contour>
	</outline>
</glyph>
<glyph name="asterisk" format="2">
	<advance width="1318" height="2310"/>
	<unicode hex="002A"/>
	<outline>
		<contour>
			<point x="792" y="975" type="curve" smooth="yes"/>
			<point x="870" y="949"/>
			<point x="942" y="947"/>
			<point x="1024" y="896" type="curve" smooth="yes"/>
			<point x="1143" y="822"/>
			<point x="1131" y="698"/>
			<point x="1085" y="618" type="curve" smooth="yes"/>
			<point x="1049" y="556"/>
			<point x="953" y="505"/>
			<point x="863" y="557" type="curve" smooth="yes"/>
			<point x="770" y="610"/>
			<point x="769" y="766"/>
			<point x="703" y="886" type="curve" smooth="yes"/>
			<point x="677" y="934"/>
			<point x="653" y="963"/>
			<point x="671" y="880" type="curve" smooth="yes"/>
			<point x="687" y="802"/>
			<point x="717" y="734"/>
			<point x="717" y="652" type="curve" smooth="yes"/>
			<point x="717" y="514"/>
			<point x="599" y="460"/>
			<point x="507" y="460" type="curve" smooth="yes"/>
			<point x="435" y="460"/>
			<point x="343" y="518"/>
			<point x="343" y="622" type="curve" smooth="yes"/>
			<point x="343" y="730"/>
			<point x="481" y="810"/>
			<point x="551" y="931" type="curve" smooth="yes"/>
			<point x="582" y="985"/>
			<point x="581" y="997"/>
			<point x="534" y="956" type="curve" smooth="yes"/>
			<point x="471" y="901"/>
			<point x="426" y="839"/>
			<point x="352" y="796" type="curve" smooth="yes"/>
			<point x="232" y="727"/>
			<point x="126" y="802"/>
			<point x="80" y="882" type="curve" smooth="yes"/>
			<point x="44" y="944"/>
			<point x="49" y="1053"/>
			<point x="139" y="1105" type="curve" smooth="yes"/>
			<point x="238" y="1162"/>
			<point x="384" y="1072"/>
			<point x="530" y="1080" type="curve" smooth="yes"/>
			<point x="585" y="1083"/>
			<point x="568" y="1090"/>
			<point x="532" y="1103" type="curve" smooth="yes"/>
			<point x="452" y="1131"/>
			<point x="380" y="1135"/>
			<point x="294" y="1184" type="curve" smooth="yes"/>
			<point x="194" y="1241"/>
			<point x="186" y="1382"/>
			<point x="232" y="1462" type="curve" smooth="yes"/>
			<point x="268" y="1524"/>
			<point x="365" y="1575"/>
			<point x="455" y="1523" type="curve" smooth="yes"/>
			<point x="552" y="1467"/>
			<point x="549" y="1298"/>
			<point x="626" y="1176" type="curve" smooth="yes"/>
			<point x="644" y="1147"/>
			<point x="661" y="1118"/>
			<point x="651" y="1178" type="curve" smooth="yes"/>
			<point x="636" y="1266"/>
			<point x="601" y="1339"/>
			<point x="601" y="1428" type="curve" smooth="yes"/>
			<point x="601" y="1566"/>
			<point x="719" y="1620"/>
			<point x="811" y="1620" type="curve" smooth="yes"/>
			<point x="883" y="1620"/>
			<point x="975" y="1562"/>
			<point x="975" y="1458" type="curve" smooth="yes"/>
			<point x="975" y="1354"/>
			<point x="847" y="1276"/>
			<point x="775" y="1163" type="curve" smooth="yes"/>
			<point x="738" y="1105"/>
			<point x="730" y="1076"/>
			<point x="790" y="1129" type="curve" smooth="yes"/>
			<point x="850" y="1183"/>
			<point x="895" y="1243"/>
			<point x="966" y="1284" type="curve" smooth="yes"/>
			<point x="1086" y="1353"/>
			<point x="1191" y="1278"/>
			<point x="1237" y="1198" type="curve" smooth="yes"/>
			<point x="1273" y="1136"/>
			<point x="1269" y="1027"/>
			<point x="1179" y="975" type="curve" smooth="yes"/>
			<point x="1085" y="921"/>
			<point x="946" y="1001"/>
			<point x="807" y="1001" type="curve" smooth="yes"/>
			<point x="742" y="1001"/>
			<point x="739" y="992"/>
		</contour>
	</outline>
</glyph>
<glyph name="hyphen" format="2">
	<advance width="820" height="0"/>
	<unicode hex="002D"/>
	<outline>
		<contour>
			<point x="104" y="770" type="curve" smooth="yes"/>
			<point x="616" y="770" type="line" smooth="yes"/>
			<point x="647" y="770"/>
			<point x="650" y="763"/>
			<point x="650" y="731" type="curve" smooth="yes"/>
			<point x="650" y="581" type="line" smooth="yes"/>
			<point x="650" y="546"/>
			<point x="649" y="540"/>
			<point x="614" y="540" type="curve" smooth="yes"/>
			<point x="112" y="540" type="line" smooth="yes"/>
			<point x="76" y="540"/>
			<point x="70" y="545"/>
			<point x="70" y="580" type="curve" smooth="yes"/>
			<point x="70" y="729" type="line" smooth="yes"/>
			<point x="70" y="761"/>
			<point x="72" y="770"/>
		</contour>
	</outline>
</glyph>
<glyph name="period" format="2">
	<advance width="620" height="0"/>
	<unicode hex="002E"/>
	<outline>
		<contour>
			<point x="-60" y="200" type="curve" smooth="yes"/>
			<point x="-60" y="332"/>
			<point x="48" y="440"/>
			<point x="180" y="440" type="curve" smooth="yes"/>
			<point x="312" y="440"/>
			<point x="420" y="332"/>
			<point x="420" y="200" type="curve" smooth="yes"/>
			<point x="420" y="68"/>
			<point x="312" y="-40"/>
			<point x="180" y="-40" type="curve" smooth="yes"/>
			<point x="48" y="-40"/>
			<point x="-60" y="68"/>
		</contour>
	</outline>
</glyph>
<glyph name="slash" format="2">
	<advance width="1040" height="0"/>
	<unicode hex="002F"/>
	<outline>
		<contour>
			<point x="933" y="1560" type="curve" smooth="yes"/>
			<point x="1046" y="1560" type="line" smooth="yes"/>
			<point x="1104" y="1560"/>
			<point x="1088" y="1537"/>
			<point x="1072" y="1506" type="curve" smooth="yes"/>
			<point x="148" y="-262" type="line" smooth="yes"/>
			<point x="132" y="-292"/>
			<point x="123" y="-300"/>
			<point x="75" y="-300" type="curve" smooth="yes"/>
			<point x="-15" y="-300" type="line" smooth="yes"/>
			<point x="-85" y="-300"/>
			<point x="-94" y="-289"/>
			<point x="-73" y="-248" type="curve" smooth="yes"/>
			<point x="860" y="1518" type="line" smooth="yes"/>
			<point x="876" y="1548"/>
			<point x="884" y="1560"/>
		</contour>
	</outline>
</glyph>
<glyph name="zero" format="2">
	<advance width="1364" height="0"/>
	<unicode hex="0030"/>
	<outline>
		<contour>
			<point x="105" y="750" type="curve" smooth="yes"/>
			<point x="236" y="1316"/>
			<point x="497" y="1520"/>
			<point x="863" y="1520" type="curve" smooth="yes"/>
			<point x="1229" y="1520"/>
			<point x="1456" y="1316"/>
			<point x="1325" y="750" type="curve" smooth="yes"/>
			<point x="1194" y="184"/>
			<point x="923" y="-20"/>
			<point x="577" y="-20" type="curve" smooth="yes"/>
			<point x="231" y="-20"/>
			<point x="-26" y="184"/>
		</contour>
		<contour>
			<point x="525" y="750" type="curve" smooth="yes"/>
			<point x="422" y="306"/>
			<point x="458" y="190"/>
			<point x="586" y="190" type="curve" smooth="yes"/>
			<point x="724" y="190"/>
			<point x="802" y="306"/>
			<point x="905" y="750" type="curve" smooth="yes"/>
			<point x="1008" y="1194"/>
			<point x="982" y="1310"/>
			<point x="844" y="1310" type="curve" smooth="yes"/>
			<point x="716" y="1310"/>
			<point x="628" y="1194"/>
		</contour>
	</outline>
</glyph>
<glyph name="eight" format="2">
	<advance width="1290" height="2310"/>
	<unicode hex="0038"/>
	<outline>
		<contour>
			<point x="443" y="444" type="curve" smooth="yes"/>
			<point x="395" y="236"/>
			<point x="441" y="170"/>
			<point x="539" y="170" type="curve" smooth="yes"/>
			<point x="627" y="170"/>
			<point x="705" y="236"/>
			<point x="753" y="444" type="curve" smooth="yes"/>
			<point x="792" y="612"/>
			<point x="754" y="720"/>
			<point x="666" y="720" type="curve" smooth="yes"/>
			<point x="568" y="720"/>
			<point x="482" y="612"/>
		</contour>
		<contour>
			<point x="253" y="1140" type="curve" smooth="yes"/>
			<point x="304" y="1360"/>
			<point x="489" y="1520"/>
			<point x="811" y="1520" type="curve" smooth="yes"/>
			<point x="1143" y="1520"/>
			<point x="1334" y="1360"/>
			<point x="1283" y="1140" type="curve" smooth="yes"/>
			<point x="1249" y="994"/>
			<point x="1145" y="897"/>
			<point x="1009" y="842" type="curve" smooth="yes"/>
			<point x="975" y="828"/>
			<point x="949" y="824"/>
			<point x="946" y="810" type="curve" smooth="yes"/>
			<point x="943" y="798"/>
			<point x="968" y="792"/>
			<point x="994" y="780" type="curve" smooth="yes"/>
			<point x="1133" y="716"/>
			<point x="1206" y="591"/>
			<point x="1167" y="420" type="curve" smooth="yes"/>
			<point x="1107" y="160"/>
			<point x="897" y="-20"/>
			<point x="535" y="-20" type="curve" smooth="yes"/>
			<point x="173" y="-20"/>
			<point x="-23" y="160"/>
			<point x="37" y="420" type="curve" smooth="yes"/>
			<point x="79" y="600"/>
			<point x="212" y="731"/>
			<point x="394" y="790" type="curve" smooth="yes"/>
			<point x="417" y="797"/>
			<point x="430" y="797"/>
			<point x="433" y="812" type="curve" smooth="yes"/>
			<point x="436" y="826"/>
			<point x="414" y="827"/>
			<point x="401" y="832" type="curve" smooth="yes"/>
			<point x="278" y="884"/>
			<point x="217" y="984"/>
		</contour>
		<contour>
			<point x="645" y="1105" type="curve" smooth="yes"/>
			<point x="611" y="957"/>
			<point x="650" y="900"/>
			<point x="708" y="900" type="curve" smooth="yes"/>
			<point x="786" y="900"/>
			<point x="831" y="957"/>
			<point x="865" y="1105" type="curve" smooth="yes"/>
			<point x="899" y="1253"/>
			<point x="885" y="1330"/>
			<point x="817" y="1330" type="curve" smooth="yes"/>
			<point x="749" y="1330"/>
			<point x="679" y="1253"/>
		</contour>
	</outline>
</glyph>
<glyph name="nine" format="2">
	<advance width="1330" height="2310"/>
	<unicode hex="0039"/>
	<outline>
		<contour>
			<point x="411" y="178" type="curve" smooth="yes"/>
			<point x="411" y="151"/>
			<point x="439" y="134"/>
			<point x="487" y="134" type="curve" smooth="yes"/>
			<point x="605" y="134"/>
			<point x="760" y="303"/>
			<point x="857" y="636" type="curve" smooth="yes"/>
			<point x="867" y="671"/>
			<point x="875" y="685"/>
			<point x="869" y="689" type="curve" smooth="yes"/>
			<point x="861" y="694"/>
			<point x="854" y="678"/>
			<point x="829" y="658" type="curve" smooth="yes"/>
			<point x="741" y="586"/>
			<point x="616" y="540"/>
			<point x="486" y="540" type="curve" smooth="yes"/>
			<point x="264" y="540"/>
			<point x="83" y="690"/>
			<point x="155" y="1000" type="curve" smooth="yes"/>
			<point x="240" y="1370"/>
			<point x="525" y="1520"/>
			<point x="827" y="1520" type="curve" smooth="yes"/>
			<point x="1149" y="1520"/>
			<point x="1421" y="1330"/>
			<point x="1289" y="760" type="curve" smooth="yes"/>
			<point x="1178" y="280"/>
			<point x="823" y="-20"/>
			<point x="451" y="-20" type="curve" smooth="yes"/>
			<point x="167" y="-20"/>
			<point x="38" y="114"/>
			<point x="38" y="278" type="curve" smooth="yes"/>
			<point x="38" y="418"/>
			<point x="140" y="510"/>
			<point x="269" y="510" type="curve" smooth="yes"/>
			<point x="403" y="510"/>
			<point x="490" y="448"/>
			<point x="490" y="354" type="curve" smooth="yes"/>
			<point x="490" y="250"/>
			<point x="411" y="224"/>
		</contour>
		<contour>
			<point x="561" y="1030" type="curve" smooth="yes"/>
			<point x="518" y="842"/>
			<point x="587" y="778"/>
			<point x="695" y="778" type="curve" smooth="yes"/>
			<point x="801" y="778"/>
			<point x="917" y="880"/>
			<point x="954" y="1040" type="curve" smooth="yes"/>
			<point x="990" y="1198"/>
			<point x="952" y="1290"/>
			<point x="824" y="1290" type="curve" smooth="yes"/>
			<point x="706" y="1290"/>
			<point x="602" y="1208"/>
		</contour>
	</outline>
</glyph>
<glyph name="equal" format="2">
	<advance width="1120" height="0"/>
	<unicode hex="003D"/>
	<outline>
		<contour>
			<point x="207" y="1090" type="curve" smooth="yes"/>
			<point x="1017" y="1090" type="line" smooth="yes"/>
			<point x="1047" y="1090"/>
			<point x="1050" y="1086"/>
			<point x="1050" y="1062" type="curve" smooth="yes"/>
			<point x="1050" y="893" type="line" smooth="yes"/>
			<point x="1050" y="869"/>
			<point x="1048" y="860"/>
			<point x="1014" y="860" type="curve" smooth="yes"/>
			<point x="204" y="860" type="line" smooth="yes"/>
			<point x="172" y="860"/>
			<point x="170" y="864"/>
			<point x="170" y="890" type="curve" smooth="yes"/>
			<point x="170" y="1062" type="line" smooth="yes"/>
			<point x="170" y="1085"/>
			<point x="180" y="1090"/>
		</contour>
		<contour>
			<point x="127" y="690" type="curve" smooth="yes"/>
			<point x="937" y="690" type="line" smooth="yes"/>
			<point x="967" y="690"/>
			<point x="970" y="686"/>
			<point x="970" y="662" type="curve" smooth="yes"/>
			<point x="970" y="493" type="line" smooth="yes"/>
			<point x="970" y="469"/>
			<point x="968" y="460"/>
			<point x="934" y="460" type="curve" smooth="yes"/>
			<point x="124" y="460" type="line" smooth="yes"/>
			<point x="92" y="460"/>
			<point x="90" y="464"/>
			<point x="90" y="490" type="curve" smooth="yes"/>
			<point x="90" y="662" type="line" smooth="yes"/>
			<point x="90" y="685"/>
			<point x="100" y="690"/>
		</contour>
	</outline>
</glyph>
<glyph name="greater" format="2">
	<advance width="1120" height="0"/>
	<unicode hex="003E"/>
	<outline>
		<contour>
			<point x="682" y="802" type="curve" smooth="yes"/>
			<point x="230" y="975" type="line" smooth="yes"/>
			<point x="201" y="986"/>
			<point x="190" y="997"/>
			<point x="190" y="1039" type="curve" smooth="yes"/>
			<point x="190" y="1157" type="line" smooth="yes"/>
			<point x="190" y="1215"/>
			<point x="197" y="1217"/>
			<point x="236" y="1202" type="curve" smooth="yes"/>
			<point x="956" y="908" type="line" smooth="yes"/>
			<point x="989" y="895"/>
			<point x="1000" y="878"/>
			<point x="1000" y="830" type="curve" smooth="yes"/>
			<point x="1000" y="720" type="line" smooth="yes"/>
			<point x="1000" y="660"/>
			<point x="985" y="654"/>
			<point x="944" y="638" type="curve" smooth="yes"/>
			<point x="100" y="304" type="line" smooth="yes"/>
			<point x="60" y="288"/>
			<point x="40" y="285"/>
			<point x="40" y="351" type="curve" smooth="yes"/>
			<point x="40" y="438" type="line" smooth="yes"/>
			<point x="40" y="495"/>
			<point x="48" y="513"/>
			<point x="88" y="528" type="curve" smooth="yes"/>
			<point x="682" y="748" type="line" smooth="yes"/>
			<point x="717" y="761"/>
			<point x="738" y="762"/>
			<point x="738" y="774" type="curve" smooth="yes"/>
			<point x="738" y="791"/>
			<point x="721" y="787"/>
		</contour>
	</outline>
</glyph>
<glyph name="A" format="2">
	<advance width="2020" height="0"/>
	<unicode hex="0041"/>
	<anchor x="1198" y="1500" name="Anchor-0"/>
	<anchor x="656" y="0" name="Anchor-1"/>
	<anchor x="656" y="0" name="Anchor-2"/>
	<anchor x="1396" y="0" name="Anchor-3"/>
	<outline>
		<contour>
			<point x="931" y="994" type="curve" smooth="yes"/>
			<point x="755" y="732" type="line" smooth="yes"/>
			<point x="728" y="691"/>
			<point x="710" y="670"/>
			<point x="794" y="670" type="curve" smooth="yes"/>
			<point x="1002" y="670" type="line" smooth="yes"/>
			<point x="1061" y="670"/>
			<point x="1077" y="665"/>
			<point x="1067" y="718" type="curve" smooth="yes"/>
			<point x="1018" y="988" type="line" smooth="yes"/>
			<point x="1007" y="1046"/>
			<point x="1016" y="1083"/>
			<point x="996" y="1083" type="curve" smooth="yes"/>
			<point x="980" y="1083"/>
			<point x="962" y="1041"/>
		</contour>
		<contour>
			<point x="-120" y="40" type="curve" smooth="yes"/>
			<point x="-120" y="236" type="line" smooth="yes"/>
			<point x="-120" y="266"/>
			<point x="-111" y="270"/>
			<point x="-80" y="270" type="curve" smooth="yes"/>
			<point x="104" y="270" type="line" smooth="yes"/>
			<point x="145" y="270"/>
			<point x="145" y="279"/>
			<point x="161" y="302" type="curve" smooth="yes"/>
			<point x="958" y="1482" type="line" smooth="yes"/>
			<point x="981" y="1516"/>
			<point x="981" y="1530"/>
			<point x="1040" y="1530" type="curve" smooth="yes"/>
			<point x="1308" y="1530" type="line" smooth="yes"/>
			<point x="1398" y="1530"/>
			<point x="1392" y="1519"/>
			<point x="1407" y="1446" type="curve" smooth="yes"/>
			<point x="1643" y="306" type="line" smooth="yes"/>
			<point x="1650" y="272"/>
			<point x="1649" y="270"/>
			<point x="1690" y="270" type="curve" smooth="yes"/>
			<point x="1822" y="270" type="line" smooth="yes"/>
			<point x="1853" y="270"/>
			<point x="1860" y="265"/>
			<point x="1860" y="232" type="curve" smooth="yes"/>
			<point x="1860" y="46" type="line" smooth="yes"/>
			<point x="1860" y="8"/>
			<point x="1857" y="0"/>
			<point x="1820" y="0" type="curve" smooth="yes"/>
			<point x="984" y="0" type="line" smooth="yes"/>
			<point x="951" y="0"/>
			<point x="940" y="3"/>
			<point x="940" y="38" type="curve" smooth="yes"/>
			<point x="940" y="206" type="line" smooth="yes"/>
			<point x="940" y="251"/>
			<point x="944" y="270"/>
			<point x="993" y="270" type="curve" smooth="yes"/>
			<point x="1112" y="270" type="line" smooth="yes"/>
			<point x="1154" y="270"/>
			<point x="1149" y="274"/>
			<point x="1143" y="308" type="curve" smooth="yes"/>
			<point x="1132" y="368" type="line" smooth="yes"/>
			<point x="1122" y="419"/>
			<point x="1111" y="420"/>
			<point x="1050" y="420" type="curve" smooth="yes"/>
			<point x="608" y="420" type="line" smooth="yes"/>
			<point x="550" y="420"/>
			<point x="544" y="416"/>
			<point x="522" y="382" type="curve" smooth="yes"/>
			<point x="474" y="310" type="line" smooth="yes"/>
			<point x="449" y="272"/>
			<point x="440" y="270"/>
			<point x="506" y="270" type="curve" smooth="yes"/>
			<point x="558" y="270" type="line" smooth="yes"/>
			<point x="592" y="270"/>
			<point x="600" y="256"/>
			<point x="600" y="220" type="curve" smooth="yes"/>
			<point x="600" y="56" type="line" smooth="yes"/>
			<point x="600" y="8"/>
			<point x="598" y="0"/>
			<point x="550" y="0" type="curve" smooth="yes"/>
			<point x="-72" y="0" type="line" smooth="yes"/>
			<point x="-111" y="0"/>
			<point x="-120" y="1"/>
		</contour>
	</outline>
</glyph>
<glyph name="B" format="2">
	<advance width="1744" height="0"/>
	<unicode hex="0042"/>
	<anchor x="1028" y="1500" name="Anchor-0"/>
	<anchor x="686" y="0" name="Anchor-1"/>
	<anchor x="686" y="0" name="Anchor-2"/>
	<outline>
		<contour>
			<point x="864" y="0" type="curve" smooth="yes"/>
			<point x="-32" y="0" type="line" smooth="yes"/>
			<point x="-91" y="0"/>
			<point x="-100" y="1"/>
			<point x="-100" y="60" type="curve" smooth="yes"/>
			<point x="-100" y="222" type="line" smooth="yes"/>
			<point x="-100" y="257"/>
			<point x="-97" y="270"/>
			<point x="-59" y="270" type="curve" smooth="yes"/>
			<point x="122" y="270" type="line" smooth="yes"/>
			<point x="183" y="270"/>
			<point x="182" y="274"/>
			<point x="193" y="324" type="curve" smooth="yes"/>
			<point x="373" y="1168" type="line" smooth="yes"/>
			<point x="385" y="1226"/>
			<point x="381" y="1230"/>
			<point x="302" y="1230" type="curve" smooth="yes"/>
			<point x="232" y="1230" type="line" smooth="yes"/>
			<point x="164" y="1230"/>
			<point x="156" y="1238"/>
			<point x="156" y="1304" type="curve" smooth="yes"/>
			<point x="156" y="1429" type="line" smooth="yes"/>
			<point x="156" y="1492"/>
			<point x="175" y="1500"/>
			<point x="234" y="1500" type="curve" smooth="yes"/>
			<point x="1144" y="1500" type="line" smooth="yes"/>
			<point x="1526" y="1500"/>
			<point x="1724" y="1380"/>
			<point x="1724" y="1140" type="curve" smooth="yes"/>
			<point x="1724" y="952"/>
			<point x="1607" y="858"/>
			<point x="1412" y="808" type="curve" smooth="yes"/>
			<point x="1356" y="794"/>
			<point x="1322" y="803"/>
			<point x="1322" y="781" type="curve" smooth="yes"/>
			<point x="1322" y="762"/>
			<point x="1346" y="769"/>
			<point x="1400" y="757" type="curve" smooth="yes"/>
			<point x="1560" y="720"/>
			<point x="1644" y="644"/>
			<point x="1644" y="470" type="curve" smooth="yes"/>
			<point x="1644" y="150"/>
			<point x="1386" y="0"/>
		</contour>
		<contour>
			<point x="844" y="270" type="line" smooth="yes"/>
			<point x="1056" y="270"/>
			<point x="1144" y="352"/>
			<point x="1144" y="490" type="curve" smooth="yes"/>
			<point x="1144" y="628"/>
			<point x="1056" y="650"/>
			<point x="964" y="650" type="curve" smooth="yes"/>
			<point x="804" y="650" type="line" smooth="yes"/>
			<point x="749" y="650"/>
			<point x="741" y="642"/>
			<point x="731" y="596" type="curve" smooth="yes"/>
			<point x="673" y="322" type="line" smooth="yes"/>
			<point x="662" y="272"/>
			<point x="668" y="270"/>
			<point x="730" y="270" type="curve" smooth="yes"/>
		</contour>
		<contour>
			<point x="832" y="900" type="curve" smooth="yes"/>
			<point x="984" y="900" type="line" smooth="yes"/>
			<point x="1116" y="900"/>
			<point x="1244" y="972"/>
			<point x="1244" y="1110" type="curve" smooth="yes"/>
			<point x="1244" y="1208"/>
			<point x="1176" y="1230"/>
			<point x="1104" y="1230" type="curve" smooth="yes"/>
			<point x="910" y="1230" type="line" smooth="yes"/>
			<point x="860" y="1230"/>
			<point x="864" y="1222"/>
			<point x="856" y="1182" type="curve" smooth="yes"/>
			<point x="805" y="944" type="line" smooth="yes"/>
			<point x="799" y="914"/>
			<point x="791" y="900"/>
		</contour>
	</outline>
</glyph>
<glyph name="C" format="2">
	<advance width="1734" height="0"/>
	<unicode hex="0043"/>
	<anchor x="1150" y="1500" name="Anchor-0"/>
	<anchor x="777" y="0" name="Anchor-1"/>
	<anchor x="777" y="0" name="Anchor-2"/>
	<outline>
		<contour>
			<point x="1638" y="497" type="curve" smooth="yes"/>
			<point x="1539" y="232"/>
			<point x="1233" y="-40"/>
			<point x="770" y="-40" type="curve" smooth="yes"/>
			<point x="364" y="-40"/>
			<point x="70" y="160"/>
			<point x="70" y="620" type="curve" smooth="yes"/>
			<point x="70" y="1122"/>
			<point x="454" y="1540"/>
			<point x="1030" y="1540" type="curve" smooth="yes"/>
			<point x="1187" y="1540"/>
			<point x="1300" y="1497"/>
			<point x="1378" y="1432" type="curve" smooth="yes"/>
			<point x="1413" y="1403"/>
			<point x="1415" y="1377"/>
			<point x="1452" y="1412" type="curve" smooth="yes"/>
			<point x="1502" y="1460" type="line" smooth="yes"/>
			<point x="1526" y="1483"/>
			<point x="1532" y="1500"/>
			<point x="1582" y="1500" type="curve" smooth="yes"/>
			<point x="1770" y="1500" type="line" smooth="yes"/>
			<point x="1814" y="1500"/>
			<point x="1812" y="1494"/>
			<point x="1805" y="1457" type="curve" smooth="yes"/>
			<point x="1705" y="920" type="line" smooth="yes"/>
			<point x="1698" y="884"/>
			<point x="1695" y="870"/>
			<point x="1650" y="870" type="curve" smooth="yes"/>
			<point x="1474" y="870" type="line" smooth="yes"/>
			<point x="1432" y="870"/>
			<point x="1427" y="873"/>
			<point x="1430" y="908" type="curve" smooth="yes"/>
			<point x="1449" y="1159"/>
			<point x="1282" y="1288"/>
			<point x="1086" y="1288" type="curve" smooth="yes"/>
			<point x="784" y="1288"/>
			<point x="580" y="980"/>
			<point x="580" y="630" type="curve" smooth="yes"/>
			<point x="580" y="346"/>
			<point x="710" y="256"/>
			<point x="878" y="256" type="curve" smooth="yes"/>
			<point x="1049" y="256"/>
			<point x="1218" y="351"/>
			<point x="1320" y="510" type="curve" smooth="yes"/>
			<point x="1341" y="543"/>
			<point x="1348" y="570"/>
			<point x="1406" y="570" type="curve" smooth="yes"/>
			<point x="1568" y="570" type="line" smooth="yes"/>
			<point x="1651" y="570"/>
			<point x="1661" y="559"/>
		</contour>
	</outline>
</glyph>
<glyph name="D" format="2">
	<advance width="1916" height="0"/>
	<unicode hex="0044"/>
	<anchor x="1168" y="1500" name="Anchor-0"/>
	<anchor x="793" y="0" name="Anchor-1"/>
	<anchor x="793" y="0" name="Anchor-2"/>
	<outline>
		<contour>
			<point x="-100" y="53" type="curve" smooth="yes"/>
			<point x="-100" y="217" type="line" smooth="yes"/>
			<point x="-100" y="267"/>
			<point x="-78" y="270"/>
			<point x="-32" y="270" type="curve" smooth="yes"/>
			<point x="124" y="270" type="line" smooth="yes"/>
			<point x="176" y="270"/>
			<point x="184" y="274"/>
			<point x="193" y="316" type="curve" smooth="yes"/>
			<point x="374" y="1165" type="line" smooth="yes"/>
			<point x="387" y="1228"/>
			<point x="387" y="1230"/>
			<point x="312" y="1230" type="curve" smooth="yes"/>
			<point x="220" y="1230" type="line" smooth="yes"/>
			<point x="163" y="1230"/>
			<point x="154" y="1231"/>
			<point x="154" y="1288" type="curve" smooth="yes"/>
			<point x="154" y="1434" type="line" smooth="yes"/>
			<point x="154" y="1492"/>
			<point x="174" y="1500"/>
			<point x="228" y="1500" type="curve" smooth="yes"/>
			<point x="1086" y="1500" type="line" smooth="yes"/>
			<point x="1672" y="1500"/>
			<point x="1846" y="1216"/>
			<point x="1846" y="930" type="curve" smooth="yes"/>
			<point x="1846" y="284"/>
			<point x="1332" y="0"/>
			<point x="786" y="0" type="curve" smooth="yes"/>
			<point x="-38" y="0" type="line" smooth="yes"/>
			<point x="-83" y="0"/>
			<point x="-100" y="4"/>
		</contour>
		<contour>
			<point x="734" y="270" type="curve" smooth="yes"/>
			<point x="786" y="270" type="line" smooth="yes"/>
			<point x="1094" y="270"/>
			<point x="1336" y="526"/>
			<point x="1336" y="970" type="curve" smooth="yes"/>
			<point x="1336" y="1174"/>
			<point x="1214" y="1230"/>
			<point x="1046" y="1230" type="curve" smooth="yes"/>
			<point x="922" y="1230" type="line" smooth="yes"/>
			<point x="870" y="1230"/>
			<point x="868" y="1229"/>
			<point x="859" y="1186" type="curve" smooth="yes"/>
			<point x="675" y="324" type="line" smooth="yes"/>
			<point x="665" y="278"/>
			<point x="675" y="270"/>
		</contour>
	</outline>
</glyph>
<glyph name="E" format="2">
	<advance width="1618" height="0"/>
	<unicode hex="0045"/>
	<anchor x="1008" y="1500" name="Anchor-0"/>
	<anchor x="676" y="0" name="Anchor-1"/>
	<anchor x="676" y="0" name="Anchor-2"/>
	<anchor x="1298" y="50" name="Anchor-3"/>
	<outline>
		<contour>
			<point x="744" y="654" type="curve" smooth="yes"/>
			<point x="671" y="330" type="line" smooth="yes"/>
			<point x="661" y="284"/>
			<point x="654" y="270"/>
			<point x="716" y="270" type="curve" smooth="yes"/>
			<point x="816" y="270" type="line" smooth="yes"/>
			<point x="1073" y="270"/>
			<point x="1253" y="328"/>
			<point x="1340" y="595" type="curve" smooth="yes"/>
			<point x="1354" y="637"/>
			<point x="1357" y="650"/>
			<point x="1416" y="650" type="curve" smooth="yes"/>
			<point x="1514" y="650" type="line" smooth="yes"/>
			<point x="1579" y="650"/>
			<point x="1573" y="635"/>
			<point x="1562" y="586" type="curve" smooth="yes"/>
			<point x="1450" y="64" type="line" smooth="yes"/>
			<point x="1438" y="9"/>
			<point x="1433" y="0"/>
			<point x="1364" y="0" type="curve" smooth="yes"/>
			<point x="-54" y="0" type="line" smooth="yes"/>
			<point x="-92" y="0"/>
			<point x="-100" y="4"/>
			<point x="-100" y="44" type="curve" smooth="yes"/>
			<point x="-100" y="209" type="line" smooth="yes"/>
			<point x="-100" y="266"/>
			<point x="-91" y="270"/>
			<point x="-36" y="270" type="curve" smooth="yes"/>
			<point x="106" y="270" type="line" smooth="yes"/>
			<point x="167" y="270"/>
			<point x="178" y="272"/>
			<point x="189" y="322" type="curve" smooth="yes"/>
			<point x="383" y="1176" type="line" smooth="yes"/>
			<point x="392" y="1215"/>
			<point x="396" y="1230"/>
			<point x="343" y="1230" type="curve" smooth="yes"/>
			<point x="224" y="1230" type="line" smooth="yes"/>
			<point x="184" y="1230"/>
			<point x="168" y="1230"/>
			<point x="168" y="1274" type="curve" smooth="yes"/>
			<point x="168" y="1466" type="line" smooth="yes"/>
			<point x="168" y="1496"/>
			<point x="175" y="1500"/>
			<point x="206" y="1500" type="curve" smooth="yes"/>
			<point x="1682" y="1500" type="line" smooth="yes"/>
			<point x="1745" y="1500"/>
			<point x="1734" y="1476"/>
			<point x="1724" y="1430" type="curve" smooth="yes"/>
			<point x="1627" y="962" type="line" smooth="yes"/>
			<point x="1616" y="909"/>
			<point x="1615" y="890"/>
			<point x="1548" y="890" type="curve" smooth="yes"/>
			<point x="1442" y="890" type="line" smooth="yes"/>
			<point x="1388" y="890"/>
			<point x="1397" y="911"/>
			<point x="1402" y="950" type="curve" smooth="yes"/>
			<point x="1431" y="1165"/>
			<point x="1343" y="1230"/>
			<point x="1120" y="1230" type="curve" smooth="yes"/>
			<point x="926" y="1230" type="line" smooth="yes"/>
			<point x="891" y="1230"/>
			<point x="874" y="1226"/>
			<point x="867" y="1196" type="curve" smooth="yes"/>
			<point x="800" y="896" type="line" smooth="yes"/>
			<point x="796" y="880"/>
			<point x="803" y="877"/>
			<point x="814" y="877" type="curve" smooth="yes"/>
			<point x="815" y="877" type="line" smooth="yes"/>
			<point x="919" y="877"/>
			<point x="986" y="916"/>
			<point x="1028" y="995" type="curve" smooth="yes"/>
			<point x="1050" y="1038"/>
			<point x="1049" y="1066"/>
			<point x="1120" y="1066" type="curve" smooth="yes"/>
			<point x="1186" y="1066" type="line" smooth="yes"/>
			<point x="1244" y="1066"/>
			<point x="1245" y="1059"/>
			<point x="1235" y="1014" type="curve" smooth="yes"/>
			<point x="1128" y="532" type="line" smooth="yes"/>
			<point x="1118" y="487"/>
			<point x="1114" y="476"/>
			<point x="1056" y="476" type="curve" smooth="yes"/>
			<point x="974" y="476" type="line" smooth="yes"/>
			<point x="926" y="476"/>
			<point x="930" y="488"/>
			<point x="933" y="524" type="curve" smooth="yes"/>
			<point x="940" y="626"/>
			<point x="870" y="676"/>
			<point x="773" y="676" type="curve" smooth="yes"/>
			<point x="770" y="676" type="line" smooth="yes"/>
			<point x="752" y="676"/>
			<point x="747" y="668"/>
		</contour>
	</outline>
</glyph>
<glyph name="F" format="2">
	<advance width="1638" height="0"/>
	<unicode hex="0046"/>
	<anchor x="1058" y="1500" name="Anchor-0"/>
	<anchor x="376" y="0" name="Anchor-1"/>
	<anchor x="376" y="0" name="Anchor-2"/>
	<outline>
		<contour>
			<point x="-100" y="37" type="curve" smooth="yes"/>
			<point x="-100" y="220" type="line" smooth="yes"/>
			<point x="-100" y="261"/>
			<point x="-98" y="270"/>
			<point x="-57" y="270" type="curve" smooth="yes"/>
			<point x="105" y="270" type="line" smooth="yes"/>
			<point x="154" y="270"/>
			<point x="159" y="275"/>
			<point x="168" y="315" type="curve" smooth="yes"/>
			<point x="364" y="1183" type="line" smooth="yes"/>
			<point x="372" y="1220"/>
			<point x="375" y="1230"/>
			<point x="325" y="1230" type="curve" smooth="yes"/>
			<point x="201" y="1230" type="line" smooth="yes"/>
			<point x="150" y="1230"/>
			<point x="148" y="1238"/>
			<point x="148" y="1290" type="curve" smooth="yes"/>
			<point x="148" y="1458" type="line" smooth="yes"/>
			<point x="148" y="1491"/>
			<point x="149" y="1500"/>
			<point x="182" y="1500" type="curve" smooth="yes"/>
			<point x="1696" y="1500" type="line" smooth="yes"/>
			<point x="1756" y="1500"/>
			<point x="1756" y="1493"/>
			<point x="1746" y="1446" type="curve" smooth="yes"/>
			<point x="1630" y="906" type="line" smooth="yes"/>
			<point x="1622" y="870"/>
			<point x="1620" y="850"/>
			<point x="1572" y="850" type="curve" smooth="yes"/>
			<point x="1430" y="850" type="line" smooth="yes"/>
			<point x="1375" y="850"/>
			<point x="1382" y="866"/>
			<point x="1388" y="906" type="curve" smooth="yes"/>
			<point x="1423" y="1139"/>
			<point x="1326" y="1230"/>
			<point x="1090" y="1230" type="curve" smooth="yes"/>
			<point x="916" y="1230" type="line" smooth="yes"/>
			<point x="871" y="1230"/>
			<point x="855" y="1227"/>
			<point x="846" y="1188" type="curve" smooth="yes"/>
			<point x="771" y="862" type="line" smooth="yes"/>
			<point x="769" y="851"/>
			<point x="764" y="827"/>
			<point x="782" y="827" type="curve" smooth="yes"/>
			<point x="783" y="827" type="line" smooth="yes"/>
			<point x="906" y="827"/>
			<point x="987" y="892"/>
			<point x="1028" y="1002" type="curve" smooth="yes"/>
			<point x="1036" y="1023"/>
			<point x="1034" y="1026"/>
			<point x="1063" y="1026" type="curve" smooth="yes"/>
			<point x="1189" y="1026" type="line" smooth="yes"/>
			<point x="1233" y="1026"/>
			<point x="1234" y="1020"/>
			<point x="1226" y="987" type="curve" smooth="yes"/>
			<point x="1084" y="409" type="line" smooth="yes"/>
			<point x="1077" y="380"/>
			<point x="1068" y="376"/>
			<point x="1031" y="376" type="curve" smooth="yes"/>
			<point x="919" y="376" type="line" smooth="yes"/>
			<point x="876" y="376"/>
			<point x="878" y="384"/>
			<point x="882" y="419" type="curve" smooth="yes"/>
			<point x="899" y="578"/>
			<point x="850" y="626"/>
			<point x="736" y="626" type="curve" smooth="yes"/>
			<point x="735" y="626" type="line" smooth="yes"/>
			<point x="725" y="626"/>
			<point x="717" y="621"/>
			<point x="715" y="613" type="curve" smooth="yes"/>
			<point x="644" y="301" type="line" smooth="yes"/>
			<point x="638" y="274"/>
			<point x="643" y="270"/>
			<point x="678" y="270" type="curve" smooth="yes"/>
			<point x="878" y="270" type="line" smooth="yes"/>
			<point x="913" y="270"/>
			<point x="914" y="261"/>
			<point x="914" y="226" type="curve" smooth="yes"/>
			<point x="914" y="38" type="line" smooth="yes"/>
			<point x="914" y="2"/>
			<point x="906" y="0"/>
			<point x="869" y="0" type="curve" smooth="yes"/>
			<point x="-54" y="0" type="line" smooth="yes"/>
			<point x="-86" y="0"/>
			<point x="-100" y="2"/>
		</contour>
	</outline>
</glyph>
<glyph name="G" format="2">
	<advance width="1914" height="0"/>
	<unicode hex="0047"/>
	<anchor x="1150" y="1500" name="Anchor-0"/>
	<anchor x="747" y="0" name="Anchor-1"/>
	<anchor x="747" y="0" name="Anchor-2"/>
	<outline>
		<contour>
			<point x="1048" y="780" type="curve" smooth="yes"/>
			<point x="1848" y="780" type="line" smooth="yes"/>
			<point x="1889" y="780"/>
			<point x="1894" y="774"/>
			<point x="1894" y="731" type="curve" smooth="yes"/>
			<point x="1894" y="603" type="line" smooth="yes"/>
			<point x="1894" y="557"/>
			<point x="1890" y="550"/>
			<point x="1842" y="550" type="curve" smooth="yes"/>
			<point x="1730" y="550" type="line" smooth="yes"/>
			<point x="1689" y="550"/>
			<point x="1680" y="547"/>
			<point x="1674" y="513" type="curve" smooth="yes"/>
			<point x="1632" y="283" type="line" smooth="yes"/>
			<point x="1622" y="226"/>
			<point x="1602" y="232"/>
			<point x="1554" y="205" type="curve" smooth="yes"/>
			<point x="1412" y="125"/>
			<point x="1159" y="-40"/>
			<point x="768" y="-40" type="curve" smooth="yes"/>
			<point x="352" y="-40"/>
			<point x="70" y="214"/>
			<point x="70" y="620" type="curve" smooth="yes"/>
			<point x="70" y="1122"/>
			<point x="454" y="1540"/>
			<point x="1030" y="1540" type="curve" smooth="yes"/>
			<point x="1185" y="1540"/>
			<point x="1296" y="1499"/>
			<point x="1374" y="1436" type="curve" smooth="yes"/>
			<point x="1419" y="1400"/>
			<point x="1416" y="1378"/>
			<point x="1462" y="1422" type="curve" smooth="yes"/>
			<point x="1520" y="1477" type="line" smooth="yes"/>
			<point x="1537" y="1493"/>
			<point x="1552" y="1500"/>
			<point x="1588" y="1500" type="curve" smooth="yes"/>
			<point x="1762" y="1500" type="line" smooth="yes"/>
			<point x="1807" y="1500"/>
			<point x="1813" y="1495"/>
			<point x="1805" y="1455" type="curve" smooth="yes"/>
			<point x="1705" y="925" type="line" smooth="yes"/>
			<point x="1696" y="876"/>
			<point x="1687" y="870"/>
			<point x="1630" y="870" type="curve" smooth="yes"/>
			<point x="1486" y="870" type="line" smooth="yes"/>
			<point x="1432" y="870"/>
			<point x="1428" y="872"/>
			<point x="1431" y="919" type="curve" smooth="yes"/>
			<point x="1445" y="1163"/>
			<point x="1279" y="1288"/>
			<point x="1086" y="1288" type="curve" smooth="yes"/>
			<point x="784" y="1288"/>
			<point x="580" y="980"/>
			<point x="580" y="630" type="curve" smooth="yes"/>
			<point x="580" y="366"/>
			<point x="652" y="244"/>
			<point x="850" y="244" type="curve" smooth="yes"/>
			<point x="981" y="244"/>
			<point x="1065" y="271"/>
			<point x="1154" y="348" type="curve" smooth="yes"/>
			<point x="1177" y="368"/>
			<point x="1188" y="378"/>
			<point x="1194" y="419" type="curve" smooth="yes"/>
			<point x="1207" y="511" type="line" smooth="yes"/>
			<point x="1212" y="542"/>
			<point x="1211" y="550"/>
			<point x="1176" y="550" type="curve" smooth="yes"/>
			<point x="1040" y="550" type="line" smooth="yes"/>
			<point x="1003" y="550"/>
			<point x="994" y="552"/>
			<point x="994" y="589" type="curve" smooth="yes"/>
			<point x="994" y="739" type="line" smooth="yes"/>
			<point x="994" y="780"/>
			<point x="1011" y="780"/>
		</contour>
	</outline>
</glyph>
<glyph name="H" format="2">
	<advance width="1966" height="0"/>
	<unicode hex="0048"/>
	<anchor x="1245" y="1500" name="Anchor-0"/>
	<anchor x="866" y="0" name="Anchor-1"/>
	<anchor x="866" y="0" name="Anchor-2"/>
	<outline>
		<contour>
			<point x="-100" y="45" type="curve" smooth="yes"/>
			<point x="-100" y="207" type="line" smooth="yes"/>
			<point x="-100" y="265"/>
			<point x="-94" y="270"/>
			<point x="-38" y="270" type="curve" smooth="yes"/>
			<point x="102" y="270" type="line" smooth="yes"/>
			<point x="166" y="270"/>
			<point x="162" y="278"/>
			<point x="173" y="329" type="curve" smooth="yes"/>
			<point x="356" y="1191" type="line" smooth="yes"/>
			<point x="363" y="1224"/>
			<point x="360" y="1230"/>
			<point x="318" y="1230" type="curve" smooth="yes"/>
			<point x="208" y="1230" type="line" smooth="yes"/>
			<point x="165" y="1230"/>
			<point x="156" y="1234"/>
			<point x="156" y="1279" type="curve" smooth="yes"/>
			<point x="156" y="1437" type="line" smooth="yes"/>
			<point x="156" y="1498"/>
			<point x="166" y="1500"/>
			<point x="225" y="1500" type="curve" smooth="yes"/>
			<point x="1018" y="1500" type="line" smooth="yes"/>
			<point x="1051" y="1500"/>
			<point x="1056" y="1494"/>
			<point x="1056" y="1459" type="curve" smooth="yes"/>
			<point x="1056" y="1275" type="line" smooth="yes"/>
			<point x="1056" y="1231"/>
			<point x="1047" y="1230"/>
			<point x="1002" y="1230" type="curve" smooth="yes"/>
			<point x="888" y="1230" type="line" smooth="yes"/>
			<point x="847" y="1230"/>
			<point x="842" y="1221"/>
			<point x="835" y="1187" type="curve" smooth="yes"/>
			<point x="784" y="949" type="line" smooth="yes"/>
			<point x="777" y="914"/>
			<point x="773" y="900"/>
			<point x="820" y="900" type="curve" smooth="yes"/>
			<point x="1248" y="900" type="line" smooth="yes"/>
			<point x="1283" y="900"/>
			<point x="1284" y="900"/>
			<point x="1290" y="929" type="curve" smooth="yes"/>
			<point x="1346" y="1191" type="line" smooth="yes"/>
			<point x="1352" y="1221"/>
			<point x="1354" y="1230"/>
			<point x="1318" y="1230" type="curve" smooth="yes"/>
			<point x="1232" y="1230" type="line" smooth="yes"/>
			<point x="1187" y="1230"/>
			<point x="1186" y="1239"/>
			<point x="1186" y="1285" type="curve" smooth="yes"/>
			<point x="1186" y="1461" type="line" smooth="yes"/>
			<point x="1186" y="1494"/>
			<point x="1191" y="1500"/>
			<point x="1226" y="1500" type="curve" smooth="yes"/>
			<point x="2014" y="1500" type="line" smooth="yes"/>
			<point x="2056" y="1500"/>
			<point x="2066" y="1499"/>
			<point x="2066" y="1457" type="curve" smooth="yes"/>
			<point x="2066" y="1271" type="line" smooth="yes"/>
			<point x="2066" y="1236"/>
			<point x="2062" y="1230"/>
			<point x="2028" y="1230" type="curve" smooth="yes"/>
			<point x="1880" y="1230" type="line" smooth="yes"/>
			<point x="1842" y="1230"/>
			<point x="1833" y="1223"/>
			<point x="1826" y="1191" type="curve" smooth="yes"/>
			<point x="1641" y="323" type="line" smooth="yes"/>
			<point x="1632" y="279"/>
			<point x="1631" y="270"/>
			<point x="1688" y="270" type="curve" smooth="yes"/>
			<point x="1776" y="270" type="line" smooth="yes"/>
			<point x="1820" y="270"/>
			<point x="1830" y="268"/>
			<point x="1830" y="221" type="curve" smooth="yes"/>
			<point x="1830" y="51" type="line" smooth="yes"/>
			<point x="1830" y="5"/>
			<point x="1823" y="0"/>
			<point x="1778" y="0" type="curve" smooth="yes"/>
			<point x="978" y="0" type="line" smooth="yes"/>
			<point x="942" y="0"/>
			<point x="940" y="8"/>
			<point x="940" y="45" type="curve" smooth="yes"/>
			<point x="940" y="229" type="line" smooth="yes"/>
			<point x="940" y="266"/>
			<point x="948" y="270"/>
			<point x="982" y="270" type="curve" smooth="yes"/>
			<point x="1102" y="270" type="line" smooth="yes"/>
			<point x="1156" y="270"/>
			<point x="1152" y="278"/>
			<point x="1161" y="321" type="curve" smooth="yes"/>
			<point x="1222" y="609" type="line" smooth="yes"/>
			<point x="1231" y="650"/>
			<point x="1225" y="652"/>
			<point x="1174" y="652" type="curve" smooth="yes"/>
			<point x="756" y="652" type="line" smooth="yes"/>
			<point x="722" y="652"/>
			<point x="721" y="651"/>
			<point x="715" y="623" type="curve" smooth="yes"/>
			<point x="651" y="321" type="line" smooth="yes"/>
			<point x="644" y="286"/>
			<point x="638" y="270"/>
			<point x="686" y="270" type="curve" smooth="yes"/>
			<point x="772" y="270" type="line" smooth="yes"/>
			<point x="811" y="270"/>
			<point x="820" y="267"/>
			<point x="820" y="225" type="curve" smooth="yes"/>
			<point x="820" y="49" type="line" smooth="yes"/>
			<point x="820" y="0"/>
			<point x="805" y="0"/>
			<point x="760" y="0" type="curve" smooth="yes"/>
			<point x="-46" y="0" type="line" smooth="yes"/>
			<point x="-90" y="0"/>
			<point x="-100" y="1"/>
		</contour>
	</outline>
</glyph>
<glyph name="I" format="2">
	<advance width="1146" height="0"/>
	<unicode hex="0049"/>
	<anchor x="781" y="1500" name="Anchor-0"/>
	<anchor x="473" y="0" name="Anchor-1"/>
	<anchor x="473" y="0" name="Anchor-2"/>
	<anchor x="473" y="0" name="Anchor-3"/>
	<outline>
		<contour>
			<point x="-40" y="33" type="curve" smooth="yes"/>
			<point x="-40" y="239" type="line" smooth="yes"/>
			<point x="-40" y="269"/>
			<point x="-31" y="270"/>
			<point x="0" y="270" type="curve" smooth="yes"/>
			<point x="208" y="270" type="line" smooth="yes"/>
			<point x="246" y="270"/>
			<point x="243" y="277"/>
			<point x="250" y="307" type="curve" smooth="yes"/>
			<point x="445" y="1189" type="line" smooth="yes"/>
			<point x="453" y="1224"/>
			<point x="450" y="1230"/>
			<point x="410" y="1230" type="curve" smooth="yes"/>
			<point x="248" y="1230" type="line" smooth="yes"/>
			<point x="209" y="1230"/>
			<point x="206" y="1237"/>
			<point x="206" y="1277" type="curve" smooth="yes"/>
			<point x="206" y="1464" type="line" smooth="yes"/>
			<point x="206" y="1494"/>
			<point x="212" y="1500"/>
			<point x="240" y="1500" type="curve" smooth="yes"/>
			<point x="1154" y="1500" type="line" smooth="yes"/>
			<point x="1185" y="1500"/>
			<point x="1186" y="1491"/>
			<point x="1186" y="1459" type="curve" smooth="yes"/>
			<point x="1186" y="1273" type="line" smooth="yes"/>
			<point x="1186" y="1235"/>
			<point x="1179" y="1230"/>
			<point x="1142" y="1230" type="curve" smooth="yes"/>
			<point x="946" y="1230" type="line" smooth="yes"/>
			<point x="913" y="1230"/>
			<point x="914" y="1227"/>
			<point x="908" y="1201" type="curve" smooth="yes"/>
			<point x="713" y="315" type="line" smooth="yes"/>
			<point x="704" y="275"/>
			<point x="707" y="270"/>
			<point x="758" y="270" type="curve" smooth="yes"/>
			<point x="916" y="270" type="line" smooth="yes"/>
			<point x="953" y="270"/>
			<point x="960" y="267"/>
			<point x="960" y="231" type="curve" smooth="yes"/>
			<point x="960" y="51" type="line" smooth="yes"/>
			<point x="960" y="5"/>
			<point x="954" y="0"/>
			<point x="910" y="0" type="curve" smooth="yes"/>
			<point x="0" y="0" type="line" smooth="yes"/>
			<point x="-31" y="0"/>
			<point x="-40" y="2"/>
		</contour>
	</outline>
</glyph>
<glyph name="J" format="2">
	<advance width="1452" height="0"/>
	<unicode hex="004A"/>
	<anchor x="1070" y="1500" name="Anchor-0"/>
	<anchor x="408" y="0" name="Anchor-1"/>
	<anchor x="408" y="0" name="Anchor-2"/>
	<outline>
		<contour>
			<point x="-80" y="430" type="curve" smooth="yes"/>
			<point x="-80" y="654"/>
			<point x="68" y="800"/>
			<point x="248" y="800" type="curve" smooth="yes"/>
			<point x="398" y="800"/>
			<point x="506" y="698"/>
			<point x="506" y="562" type="curve" smooth="yes"/>
			<point x="506" y="364"/>
			<point x="332" y="366"/>
			<point x="332" y="302" type="curve" smooth="yes"/>
			<point x="332" y="288"/>
			<point x="348" y="220"/>
			<point x="472" y="220" type="curve" smooth="yes"/>
			<point x="574" y="220"/>
			<point x="649" y="290"/>
			<point x="692" y="480" type="curve" smooth="yes"/>
			<point x="849" y="1175" type="line" smooth="yes"/>
			<point x="860" y="1223"/>
			<point x="860" y="1230"/>
			<point x="802" y="1230" type="curve" smooth="yes"/>
			<point x="626" y="1230" type="line" smooth="yes"/>
			<point x="589" y="1230"/>
			<point x="582" y="1233"/>
			<point x="582" y="1269" type="curve" smooth="yes"/>
			<point x="582" y="1459" type="line" smooth="yes"/>
			<point x="582" y="1498"/>
			<point x="590" y="1500"/>
			<point x="630" y="1500" type="curve" smooth="yes"/>
			<point x="1522" y="1500" type="line" smooth="yes"/>
			<point x="1577" y="1500"/>
			<point x="1592" y="1496"/>
			<point x="1592" y="1437" type="curve" smooth="yes"/>
			<point x="1592" y="1289" type="line" smooth="yes"/>
			<point x="1592" y="1236"/>
			<point x="1587" y="1230"/>
			<point x="1536" y="1230" type="curve" smooth="yes"/>
			<point x="1398" y="1230" type="line" smooth="yes"/>
			<point x="1333" y="1230"/>
			<point x="1336" y="1224"/>
			<point x="1324" y="1173" type="curve" smooth="yes"/>
			<point x="1172" y="540" type="line" smooth="yes"/>
			<point x="1082" y="163"/>
			<point x="874" y="-30"/>
			<point x="472" y="-30" type="curve" smooth="yes"/>
			<point x="158" y="-30"/>
			<point x="-80" y="170"/>
		</contour>
	</outline>
</glyph>
<glyph name="K" format="2">
	<advance width="1860" height="0"/>
	<unicode hex="004B"/>
	<anchor x="1230" y="1500" name="Anchor-0"/>
	<anchor x="860" y="0" name="Anchor-1"/>
	<anchor x="860" y="0" name="Anchor-2"/>
	<outline>
		<contour>
			<point x="-100" y="48" type="curve" smooth="yes"/>
			<point x="-100" y="215" type="line" smooth="yes"/>
			<point x="-100" y="266"/>
			<point x="-91" y="270"/>
			<point x="-42" y="270" type="curve" smooth="yes"/>
			<point x="76" y="270" type="line" smooth="yes"/>
			<point x="124" y="270"/>
			<point x="123" y="274"/>
			<point x="131" y="312" type="curve" smooth="yes"/>
			<point x="320" y="1174" type="line" smooth="yes"/>
			<point x="331" y="1226"/>
			<point x="326" y="1230"/>
			<point x="266" y="1230" type="curve" smooth="yes"/>
			<point x="182" y="1230" type="line" smooth="yes"/>
			<point x="144" y="1230"/>
			<point x="130" y="1231"/>
			<point x="130" y="1272" type="curve" smooth="yes"/>
			<point x="130" y="1462" type="line" smooth="yes"/>
			<point x="130" y="1493"/>
			<point x="134" y="1500"/>
			<point x="164" y="1500" type="curve" smooth="yes"/>
			<point x="878" y="1500" type="line" smooth="yes"/>
			<point x="923" y="1500"/>
			<point x="942" y="1496"/>
			<point x="942" y="1447" type="curve" smooth="yes"/>
			<point x="942" y="1270" type="line" smooth="yes"/>
			<point x="942" y="1226"/>
			<point x="931" y="1224"/>
			<point x="890" y="1224" type="curve" smooth="yes"/>
			<point x="826" y="1224" type="line" smooth="yes"/>
			<point x="772" y="1224"/>
			<point x="780" y="1205"/>
			<point x="771" y="1164" type="curve" smooth="yes"/>
			<point x="699" y="836" type="line" smooth="yes"/>
			<point x="692" y="803"/>
			<point x="699" y="793"/>
			<point x="736" y="825" type="curve" smooth="yes"/>
			<point x="1144" y="1173" type="line" smooth="yes"/>
			<point x="1175" y="1199"/>
			<point x="1225" y="1224"/>
			<point x="1140" y="1224" type="curve" smooth="yes"/>
			<point x="1094" y="1224" type="line" smooth="yes"/>
			<point x="1061" y="1224"/>
			<point x="1056" y="1231"/>
			<point x="1056" y="1262" type="curve" smooth="yes"/>
			<point x="1056" y="1450" type="line" smooth="yes"/>
			<point x="1056" y="1499"/>
			<point x="1081" y="1500"/>
			<point x="1126" y="1500" type="curve" smooth="yes"/>
			<point x="1812" y="1500" type="line" smooth="yes"/>
			<point x="1860" y="1500"/>
			<point x="1860" y="1500"/>
			<point x="1860" y="1452" type="curve" smooth="yes"/>
			<point x="1860" y="1272" type="line" smooth="yes"/>
			<point x="1860" y="1231"/>
			<point x="1856" y="1224"/>
			<point x="1816" y="1224" type="curve" smooth="yes"/>
			<point x="1670" y="1224" type="line" smooth="yes"/>
			<point x="1618" y="1224"/>
			<point x="1607" y="1218"/>
			<point x="1580" y="1196" type="curve" smooth="yes"/>
			<point x="1148" y="845" type="line" smooth="yes"/>
			<point x="1091" y="799"/>
			<point x="1128" y="798"/>
			<point x="1188" y="775" type="curve" smooth="yes"/>
			<point x="1564" y="630"/>
			<point x="1344" y="270"/>
			<point x="1606" y="270" type="curve" smooth="yes"/>
			<point x="1696" y="270" type="line" smooth="yes"/>
			<point x="1737" y="270"/>
			<point x="1744" y="265"/>
			<point x="1744" y="222" type="curve" smooth="yes"/>
			<point x="1744" y="52" type="line" smooth="yes"/>
			<point x="1744" y="2"/>
			<point x="1733" y="0"/>
			<point x="1686" y="0" type="curve" smooth="yes"/>
			<point x="1274" y="0" type="line" smooth="yes"/>
			<point x="886" y="0"/>
			<point x="978" y="329"/>
			<point x="891" y="576" type="curve" smooth="yes"/>
			<point x="872" y="631"/>
			<point x="864" y="615"/>
			<point x="826" y="584" type="curve" smooth="yes"/>
			<point x="644" y="437" type="line" smooth="yes"/>
			<point x="625" y="422"/>
			<point x="605" y="413"/>
			<point x="599" y="384" type="curve" smooth="yes"/>
			<point x="584" y="318" type="line" smooth="yes"/>
			<point x="575" y="276"/>
			<point x="576" y="270"/>
			<point x="630" y="270" type="curve" smooth="yes"/>
			<point x="734" y="270" type="line" smooth="yes"/>
			<point x="762" y="270"/>
			<point x="772" y="266"/>
			<point x="772" y="236" type="curve" smooth="yes"/>
			<point x="772" y="46" type="line" smooth="yes"/>
			<point x="772" y="0"/>
			<point x="757" y="0"/>
			<point x="714" y="0" type="curve" smooth="yes"/>
			<point x="-62" y="0" type="line" smooth="yes"/>
			<point x="-100" y="0"/>
			<point x="-100" y="10"/>
		</contour>
	</outline>
</glyph>
<glyph name="L" format="2">
	<advance width="1602" height="0"/>
	<unicode hex="004C"/>
	<anchor x="678" y="1500" name="Anchor-0"/>
	<anchor x="1114" y="943" name="Anchor-1"/>
	<anchor x="646" y="0" name="Anchor-2"/>
	<outline>
		<contour>
			<point x="-100" y="55" type="curve" smooth="yes"/>
			<point x="-100" y="225" type="line" smooth="yes"/>
			<point x="-100" y="260"/>
			<point x="-99" y="270"/>
			<point x="-64" y="270" type="curve" smooth="yes"/>
			<point x="106" y="270" type="line" smooth="yes"/>
			<point x="165" y="270"/>
			<point x="164" y="273"/>
			<point x="174" y="321" type="curve" smooth="yes"/>
			<point x="357" y="1177" type="line" smooth="yes"/>
			<point x="368" y="1229"/>
			<point x="361" y="1230"/>
			<point x="298" y="1230" type="curve" smooth="yes"/>
			<point x="202" y="1230" type="line" smooth="yes"/>
			<point x="158" y="1230"/>
			<point x="148" y="1231"/>
			<point x="148" y="1275" type="curve" smooth="yes"/>
			<point x="148" y="1465" type="line" smooth="yes"/>
			<point x="148" y="1499"/>
			<point x="157" y="1500"/>
			<point x="192" y="1500" type="curve" smooth="yes"/>
			<point x="1054" y="1500" type="line" smooth="yes"/>
			<point x="1094" y="1500"/>
			<point x="1100" y="1495"/>
			<point x="1100" y="1453" type="curve" smooth="yes"/>
			<point x="1100" y="1278" type="line" smooth="yes"/>
			<point x="1100" y="1238"/>
			<point x="1097" y="1230"/>
			<point x="1058" y="1230" type="curve" smooth="yes"/>
			<point x="910" y="1230" type="line" smooth="yes"/>
			<point x="848" y="1230"/>
			<point x="848" y="1228"/>
			<point x="837" y="1177" type="curve" smooth="yes"/>
			<point x="656" y="327" type="line" smooth="yes"/>
			<point x="645" y="278"/>
			<point x="645" y="270"/>
			<point x="708" y="270" type="curve" smooth="yes"/>
			<point x="812" y="270" type="line" smooth="yes"/>
			<point x="1075" y="270"/>
			<point x="1174" y="360"/>
			<point x="1252" y="645" type="curve" smooth="yes"/>
			<point x="1262" y="683"/>
			<point x="1266" y="690"/>
			<point x="1314" y="690" type="curve" smooth="yes"/>
			<point x="1446" y="690" type="line" smooth="yes"/>
			<point x="1492" y="690"/>
			<point x="1500" y="681"/>
			<point x="1492" y="643" type="curve" smooth="yes"/>
			<point x="1359" y="31" type="line" smooth="yes"/>
			<point x="1353" y="2"/>
			<point x="1342" y="0"/>
			<point x="1306" y="0" type="curve" smooth="yes"/>
			<point x="-40" y="0" type="line" smooth="yes"/>
			<point x="-90" y="0"/>
			<point x="-100" y="3"/>
		</contour>
	</outline>
</glyph>
<glyph name="N" format="2">
	<advance width="1916" height="0"/>
	<unicode hex="004E"/>
	<anchor x="1040" y="1500" name="Anchor-0"/>
	<anchor x="766" y="0" name="Anchor-1"/>
	<anchor x="766" y="0" name="Anchor-2"/>
	<outline>
		<contour>
			<point x="271" y="1230" type="curve" smooth="yes"/>
			<point x="168" y="1230" type="line" smooth="yes"/>
			<point x="127" y="1230"/>
			<point x="120" y="1234"/>
			<point x="120" y="1274" type="curve" smooth="yes"/>
			<point x="120" y="1460" type="line" smooth="yes"/>
			<point x="120" y="1498"/>
			<point x="128" y="1500"/>
			<point x="167" y="1500" type="curve" smooth="yes"/>
			<point x="814" y="1500" type="line" smooth="yes"/>
			<point x="873" y="1500"/>
			<point x="889" y="1496"/>
			<point x="911" y="1461" type="curve" smooth="yes"/>
			<point x="1283" y="885" type="line" smooth="yes"/>
			<point x="1312" y="841"/>
			<point x="1318" y="793"/>
			<point x="1340" y="793" type="curve" smooth="yes"/>
			<point x="1360" y="793"/>
			<point x="1358" y="824"/>
			<point x="1370" y="880" type="curve" smooth="yes"/>
			<point x="1435" y="1189" type="line" smooth="yes"/>
			<point x="1442" y="1225"/>
			<point x="1439" y="1230"/>
			<point x="1394" y="1230" type="curve" smooth="yes"/>
			<point x="1319" y="1230" type="line" smooth="yes"/>
			<point x="1282" y="1230"/>
			<point x="1276" y="1236"/>
			<point x="1276" y="1272" type="curve" smooth="yes"/>
			<point x="1276" y="1460" type="line" smooth="yes"/>
			<point x="1276" y="1494"/>
			<point x="1281" y="1500"/>
			<point x="1317" y="1500" type="curve" smooth="yes"/>
			<point x="1922" y="1500" type="line" smooth="yes"/>
			<point x="1950" y="1500"/>
			<point x="1956" y="1494"/>
			<point x="1956" y="1467" type="curve" smooth="yes"/>
			<point x="1956" y="1271" type="line" smooth="yes"/>
			<point x="1956" y="1236"/>
			<point x="1951" y="1230"/>
			<point x="1917" y="1230" type="curve" smooth="yes"/>
			<point x="1746" y="1230" type="line" smooth="yes"/>
			<point x="1704" y="1230"/>
			<point x="1703" y="1229"/>
			<point x="1696" y="1195" type="curve" smooth="yes"/>
			<point x="1448" y="20" type="line" smooth="yes"/>
			<point x="1442" y="-11"/>
			<point x="1437" y="-20"/>
			<point x="1400" y="-20" type="curve" smooth="yes"/>
			<point x="1232" y="-20" type="line" smooth="yes"/>
			<point x="1186" y="-20"/>
			<point x="1175" y="-12"/>
			<point x="1158" y="15" type="curve" smooth="yes"/>
			<point x="607" y="887" type="line" smooth="yes"/>
			<point x="576" y="936"/>
			<point x="570" y="983"/>
			<point x="547" y="983" type="curve" smooth="yes"/>
			<point x="527" y="983"/>
			<point x="528" y="948"/>
			<point x="515" y="888" type="curve" smooth="yes"/>
			<point x="390" y="307" type="line" smooth="yes"/>
			<point x="384" y="279"/>
			<point x="384" y="270"/>
			<point x="417" y="270" type="curve" smooth="yes"/>
			<point x="535" y="270" type="line" smooth="yes"/>
			<point x="560" y="270"/>
			<point x="570" y="270"/>
			<point x="570" y="245" type="curve" smooth="yes"/>
			<point x="570" y="35" type="line" smooth="yes"/>
			<point x="570" y="5"/>
			<point x="564" y="0"/>
			<point x="536" y="0" type="curve" smooth="yes"/>
			<point x="-72" y="0" type="line" smooth="yes"/>
			<point x="-96" y="0"/>
			<point x="-100" y="7"/>
			<point x="-100" y="32" type="curve" smooth="yes"/>
			<point x="-100" y="225" type="line" smooth="yes"/>
			<point x="-100" y="261"/>
			<point x="-99" y="270"/>
			<point x="-63" y="270" type="curve" smooth="yes"/>
			<point x="86" y="270" type="line" smooth="yes"/>
			<point x="127" y="270"/>
			<point x="128" y="271"/>
			<point x="135" y="304" type="curve" smooth="yes"/>
			<point x="321" y="1177" type="line" smooth="yes"/>
			<point x="331" y="1225"/>
			<point x="327" y="1230"/>
		</contour>
	</outline>
</glyph>
<glyph name="P" format="2">
	<advance width="1594" height="0"/>
	<unicode hex="0050"/>
	<anchor x="980" y="1500" name="Anchor-0"/>
	<anchor x="322" y="0" name="Anchor-1"/>
	<anchor x="322" y="0" name="Anchor-2"/>
	<outline>
		<contour>
			<point x="760" y="820" type="curve" smooth="yes"/>
			<point x="814" y="820" type="line" smooth="yes"/>
			<point x="1006" y="820"/>
			<point x="1114" y="962"/>
			<point x="1114" y="1100" type="curve" smooth="yes"/>
			<point x="1114" y="1178"/>
			<point x="1056" y="1230"/>
			<point x="964" y="1230" type="curve" smooth="yes"/>
			<point x="854" y="1230" type="line" smooth="yes"/>
			<point x="803" y="1230"/>
			<point x="806" y="1225"/>
			<point x="797" y="1184" type="curve" smooth="yes"/>
			<point x="727" y="856" type="line" smooth="yes"/>
			<point x="721" y="827"/>
			<point x="722" y="820"/>
		</contour>
		<contour>
			<point x="650" y="498" type="curve" smooth="yes"/>
			<point x="610" y="308" type="line" smooth="yes"/>
			<point x="603" y="275"/>
			<point x="606" y="270"/>
			<point x="648" y="270" type="curve" smooth="yes"/>
			<point x="790" y="270" type="line" smooth="yes"/>
			<point x="858" y="270"/>
			<point x="860" y="262"/>
			<point x="860" y="194" type="curve" smooth="yes"/>
			<point x="860" y="60" type="line" smooth="yes"/>
			<point x="860" y="1"/>
			<point x="851" y="0"/>
			<point x="792" y="0" type="curve" smooth="yes"/>
			<point x="-32" y="0" type="line" smooth="yes"/>
			<point x="-75" y="0"/>
			<point x="-100" y="2"/>
			<point x="-100" y="49" type="curve" smooth="yes"/>
			<point x="-100" y="230" type="line" smooth="yes"/>
			<point x="-100" y="263"/>
			<point x="-96" y="270"/>
			<point x="-64" y="270" type="curve" smooth="yes"/>
			<point x="86" y="270" type="line" smooth="yes"/>
			<point x="125" y="270"/>
			<point x="122" y="275"/>
			<point x="129" y="306" type="curve" smooth="yes"/>
			<point x="315" y="1174" type="line" smooth="yes"/>
			<point x="327" y="1228"/>
			<point x="312" y="1230"/>
			<point x="252" y="1230" type="curve" smooth="yes"/>
			<point x="162" y="1230" type="line" smooth="yes"/>
			<point x="124" y="1230"/>
			<point x="120" y="1237"/>
			<point x="120" y="1276" type="curve" smooth="yes"/>
			<point x="120" y="1462" type="line" smooth="yes"/>
			<point x="120" y="1493"/>
			<point x="125" y="1500"/>
			<point x="158" y="1500" type="curve" smooth="yes"/>
			<point x="1034" y="1500" type="line" smooth="yes"/>
			<point x="1416" y="1500"/>
			<point x="1614" y="1360"/>
			<point x="1614" y="1100" type="curve" smooth="yes"/>
			<point x="1614" y="680"/>
			<point x="1196" y="550"/>
			<point x="834" y="550" type="curve" smooth="yes"/>
			<point x="704" y="550" type="line" smooth="yes"/>
			<point x="653" y="550"/>
			<point x="659" y="538"/>
		</contour>
	</outline>
</glyph>
<glyph name="Q" format="2">
	<advance width="1930" height="0"/>
	<unicode hex="0051"/>
	<anchor x="1140" y="1500" name="Anchor-0"/>
	<outline>
		<contour>
			<point x="610" y="570" type="curve" smooth="yes"/>
			<point x="610" y="346"/>
			<point x="672" y="220"/>
			<point x="860" y="220" type="curve" smooth="yes"/>
			<point x="1168" y="220"/>
			<point x="1350" y="606"/>
			<point x="1350" y="930" type="curve" smooth="yes"/>
			<point x="1350" y="1154"/>
			<point x="1288" y="1280"/>
			<point x="1100" y="1280" type="curve" smooth="yes"/>
			<point x="812" y="1280"/>
			<point x="610" y="894"/>
		</contour>
		<contour>
			<point x="70" y="-308" type="curve" smooth="yes"/>
			<point x="70" y="-78"/>
			<point x="410" y="-54"/>
			<point x="568" y="-54" type="curve" smooth="yes"/>
			<point x="1027" y="-54"/>
			<point x="1013" y="-338"/>
			<point x="1088" y="-338" type="curve" smooth="yes"/>
			<point x="1112" y="-338"/>
			<point x="1118" y="-332"/>
			<point x="1118" y="-320" type="curve" smooth="yes"/>
			<point x="1118" y="-290"/>
			<point x="1076" y="-312"/>
			<point x="1076" y="-220" type="curve" smooth="yes"/>
			<point x="1076" y="-106"/>
			<point x="1202" y="-54"/>
			<point x="1316" y="-54" type="curve" smooth="yes"/>
			<point x="1430" y="-54"/>
			<point x="1538" y="-128"/>
			<point x="1538" y="-236" type="curve" smooth="yes"/>
			<point x="1538" y="-486"/>
			<point x="1208" y="-500"/>
			<point x="1050" y="-500" type="curve" smooth="yes"/>
			<point x="571" y="-500"/>
			<point x="641" y="-216"/>
			<point x="526" y="-216" type="curve" smooth="yes"/>
			<point x="504" y="-216"/>
			<point x="496" y="-218"/>
			<point x="496" y="-230" type="curve" smooth="yes"/>
			<point x="496" y="-254"/>
			<point x="542" y="-242"/>
			<point x="542" y="-334" type="curve" smooth="yes"/>
			<point x="542" y="-448"/>
			<point x="432" y="-500"/>
			<point x="298" y="-500" type="curve" smooth="yes"/>
			<point x="164" y="-500"/>
			<point x="70" y="-424"/>
		</contour>
		<contour>
			<point x="100" y="600" type="curve" smooth="yes"/>
			<point x="100" y="1146"/>
			<point x="534" y="1540"/>
			<point x="1120" y="1540" type="curve" smooth="yes"/>
			<point x="1546" y="1540"/>
			<point x="1860" y="1346"/>
			<point x="1860" y="900" type="curve" smooth="yes"/>
			<point x="1860" y="354"/>
			<point x="1426" y="-40"/>
			<point x="840" y="-40" type="curve" smooth="yes"/>
			<point x="414" y="-40"/>
			<point x="100" y="154"/>
		</contour>
	</outline>
</glyph>
<glyph name="S" format="2">
	<advance width="1498" height="0"/>
	<unicode hex="0053"/>
	<anchor x="1030" y="1500" name="Anchor-0"/>
	<anchor x="645" y="0" name="Anchor-1"/>
	<anchor x="645" y="0" name="Anchor-2"/>
	<outline>
		<contour>
			<point x="644" y="1140" type="curve" smooth="yes"/>
			<point x="644" y="898"/>
			<point x="1404" y="1050"/>
			<point x="1404" y="490" type="curve" smooth="yes"/>
			<point x="1404" y="190"/>
			<point x="1146" y="-50"/>
			<point x="744" y="-50" type="curve" smooth="yes"/>
			<point x="545" y="-50"/>
			<point x="416" y="2"/>
			<point x="336" y="75" type="curve" smooth="yes"/>
			<point x="303" y="105"/>
			<point x="306" y="112"/>
			<point x="270" y="82" type="curve" smooth="yes"/>
			<point x="188" y="13" type="line" smooth="yes"/>
			<point x="169" y="-3"/>
			<point x="152" y="-10"/>
			<point x="114" y="-10" type="curve" smooth="yes"/>
			<point x="-8" y="-10" type="line" smooth="yes"/>
			<point x="-54" y="-10"/>
			<point x="-82" y="-20"/>
			<point x="-72" y="22" type="curve" smooth="yes"/>
			<point x="58" y="560" type="line" smooth="yes"/>
			<point x="67" y="598"/>
			<point x="72" y="610"/>
			<point x="122" y="610" type="curve" smooth="yes"/>
			<point x="236" y="610" type="line" smooth="yes"/>
			<point x="307" y="610"/>
			<point x="295" y="586"/>
			<point x="295" y="528" type="curve" smooth="yes"/>
			<point x="297" y="257"/>
			<point x="492" y="178"/>
			<point x="664" y="178" type="curve" smooth="yes"/>
			<point x="854" y="178"/>
			<point x="924" y="262"/>
			<point x="924" y="380" type="curve" smooth="yes"/>
			<point x="924" y="662"/>
			<point x="170" y="476"/>
			<point x="170" y="1016" type="curve" smooth="yes"/>
			<point x="170" y="1316"/>
			<point x="436" y="1550"/>
			<point x="784" y="1550" type="curve" smooth="yes"/>
			<point x="958" y="1550"/>
			<point x="1092" y="1494"/>
			<point x="1182" y="1410" type="curve" smooth="yes"/>
			<point x="1203" y="1390"/>
			<point x="1204" y="1378"/>
			<point x="1228" y="1398" type="curve" smooth="yes"/>
			<point x="1328" y="1483" type="line" smooth="yes"/>
			<point x="1346" y="1498"/>
			<point x="1368" y="1500"/>
			<point x="1404" y="1500" type="curve" smooth="yes"/>
			<point x="1518" y="1500" type="line" smooth="yes"/>
			<point x="1574" y="1500"/>
			<point x="1577" y="1494"/>
			<point x="1567" y="1446" type="curve" smooth="yes"/>
			<point x="1465" y="960" type="line" smooth="yes"/>
			<point x="1453" y="903"/>
			<point x="1439" y="910"/>
			<point x="1372" y="910" type="curve" smooth="yes"/>
			<point x="1268" y="910" type="line" smooth="yes"/>
			<point x="1222" y="910"/>
			<point x="1215" y="914"/>
			<point x="1217" y="955" type="curve" smooth="yes"/>
			<point x="1225" y="1167"/>
			<point x="1071" y="1318"/>
			<point x="856" y="1318" type="curve" smooth="yes"/>
			<point x="718" y="1318"/>
			<point x="644" y="1224"/>
		</contour>
	</outline>
</glyph>
<glyph name="T" format="2">
	<advance width="1628" height="0"/>
	<unicode hex="0054"/>
	<anchor x="1039" y="1500" name="Anchor-0"/>
	<anchor x="666" y="0" name="Anchor-1"/>
	<anchor x="666" y="0" name="Anchor-2"/>
	<outline>
		<contour>
			<point x="212" y="58" type="curve" smooth="yes"/>
			<point x="212" y="222" type="line" smooth="yes"/>
			<point x="212" y="269"/>
			<point x="221" y="270"/>
			<point x="269" y="270" type="curve" smooth="yes"/>
			<point x="427" y="270" type="line" smooth="yes"/>
			<point x="489" y="270"/>
			<point x="484" y="280"/>
			<point x="495" y="330" type="curve" smooth="yes"/>
			<point x="687" y="1229" type="line" smooth="yes"/>
			<point x="689" y="1238"/>
			<point x="676" y="1240"/>
			<point x="664" y="1240" type="curve" smooth="yes"/>
			<point x="662" y="1240" type="line" smooth="yes"/>
			<point x="479" y="1240"/>
			<point x="409" y="1163"/>
			<point x="340" y="945" type="curve" smooth="yes"/>
			<point x="324" y="893"/>
			<point x="318" y="880"/>
			<point x="256" y="880" type="curve" smooth="yes"/>
			<point x="158" y="880" type="line" smooth="yes"/>
			<point x="82" y="880"/>
			<point x="81" y="886"/>
			<point x="95" y="945" type="curve" smooth="yes"/>
			<point x="211" y="1446" type="line" smooth="yes"/>
			<point x="222" y="1493"/>
			<point x="230" y="1500"/>
			<point x="290" y="1500" type="curve" smooth="yes"/>
			<point x="1660" y="1500" type="line" smooth="yes"/>
			<point x="1736" y="1500"/>
			<point x="1747" y="1495"/>
			<point x="1729" y="1419" type="curve" smooth="yes"/>
			<point x="1612" y="930" type="line" smooth="yes"/>
			<point x="1603" y="893"/>
			<point x="1599" y="880"/>
			<point x="1551" y="880" type="curve" smooth="yes"/>
			<point x="1421" y="880" type="line" smooth="yes"/>
			<point x="1344" y="880"/>
			<point x="1355" y="899"/>
			<point x="1366" y="954" type="curve" smooth="yes"/>
			<point x="1407" y="1170"/>
			<point x="1359" y="1240"/>
			<point x="1184" y="1240" type="curve" smooth="yes"/>
			<point x="1152" y="1240" type="line" smooth="yes"/>
			<point x="1124" y="1240"/>
			<point x="1123" y="1223"/>
			<point x="1118" y="1201" type="curve" smooth="yes"/>
			<point x="939" y="348" type="line" smooth="yes"/>
			<point x="927" y="292"/>
			<point x="914" y="270"/>
			<point x="989" y="270" type="curve" smooth="yes"/>
			<point x="1117" y="270" type="line" smooth="yes"/>
			<point x="1167" y="270"/>
			<point x="1172" y="264"/>
			<point x="1172" y="212" type="curve" smooth="yes"/>
			<point x="1172" y="73" type="line" smooth="yes"/>
			<point x="1172" y="5"/>
			<point x="1166" y="0"/>
			<point x="1099" y="0" type="curve" smooth="yes"/>
			<point x="271" y="0" type="line" smooth="yes"/>
			<point x="219" y="0"/>
			<point x="212" y="4"/>
		</contour>
	</outline>
</glyph>
<glyph name="U" format="2">
	<advance width="1830" height="0"/>
	<unicode hex="0055"/>
	<anchor x="1170" y="1500" name="Anchor-0"/>
	<anchor x="866" y="0" name="Anchor-1"/>
	<anchor x="866" y="0" name="Anchor-2"/>
	<anchor x="1228" y="90" name="Anchor-3"/>
	<outline>
		<contour>
			<point x="836" y="1174" type="curve" smooth="yes"/>
			<point x="698" y="620" type="line" smooth="yes"/>
			<point x="676" y="534"/>
			<point x="670" y="462"/>
			<point x="670" y="410" type="curve" smooth="yes"/>
			<point x="670" y="320"/>
			<point x="718" y="236"/>
			<point x="868" y="236" type="curve" smooth="yes"/>
			<point x="1036" y="236"/>
			<point x="1223" y="294"/>
			<point x="1298" y="600" type="curve" smooth="yes"/>
			<point x="1439" y="1176" type="line" smooth="yes"/>
			<point x="1450" y="1220"/>
			<point x="1453" y="1230"/>
			<point x="1398" y="1230" type="curve" smooth="yes"/>
			<point x="1290" y="1230" type="line" smooth="yes"/>
			<point x="1240" y="1230"/>
			<point x="1240" y="1240"/>
			<point x="1240" y="1290" type="curve" smooth="yes"/>
			<point x="1240" y="1448" type="line" smooth="yes"/>
			<point x="1240" y="1489"/>
			<point x="1241" y="1500"/>
			<point x="1282" y="1500" type="curve" smooth="yes"/>
			<point x="1910" y="1500" type="line" smooth="yes"/>
			<point x="1950" y="1500"/>
			<point x="1950" y="1490"/>
			<point x="1950" y="1450" type="curve" smooth="yes"/>
			<point x="1950" y="1270" type="line" smooth="yes"/>
			<point x="1950" y="1237"/>
			<point x="1936" y="1230"/>
			<point x="1904" y="1230" type="curve" smooth="yes"/>
			<point x="1782" y="1230" type="line" smooth="yes"/>
			<point x="1739" y="1230"/>
			<point x="1731" y="1225"/>
			<point x="1723" y="1192" type="curve" smooth="yes"/>
			<point x="1578" y="600" type="line" smooth="yes"/>
			<point x="1469" y="156"/>
			<point x="1254" y="-50"/>
			<point x="798" y="-50" type="curve" smooth="yes"/>
			<point x="364" y="-50"/>
			<point x="186" y="134"/>
			<point x="186" y="364" type="curve" smooth="yes"/>
			<point x="186" y="438"/>
			<point x="198" y="517"/>
			<point x="218" y="600" type="curve" smooth="yes"/>
			<point x="361" y="1184" type="line" smooth="yes"/>
			<point x="371" y="1223"/>
			<point x="368" y="1230"/>
			<point x="316" y="1230" type="curve" smooth="yes"/>
			<point x="206" y="1230" type="line" smooth="yes"/>
			<point x="167" y="1230"/>
			<point x="160" y="1237"/>
			<point x="160" y="1278" type="curve" smooth="yes"/>
			<point x="160" y="1457" type="line" smooth="yes"/>
			<point x="160" y="1494"/>
			<point x="171" y="1500"/>
			<point x="206" y="1500" type="curve" smooth="yes"/>
			<point x="1030" y="1500" type="line" smooth="yes"/>
			<point x="1085" y="1500"/>
			<point x="1100" y="1496"/>
			<point x="1100" y="1437" type="curve" smooth="yes"/>
			<point x="1100" y="1280" type="line" smooth="yes"/>
			<point x="1100" y="1236"/>
			<point x="1092" y="1230"/>
			<point x="1050" y="1230" type="curve" smooth="yes"/>
			<point x="916" y="1230" type="line" smooth="yes"/>
			<point x="850" y="1230"/>
			<point x="849" y="1227"/>
		</contour>
	</outline>
</glyph>
<glyph name="V" format="2">
	<advance width="1850" height="0"/>
	<unicode hex="0056"/>
	<anchor x="1330" y="1500" name="Anchor-0"/>
	<anchor x="832" y="0" name="Anchor-1"/>
	<anchor x="832" y="0" name="Anchor-2"/>
	<outline>
		<contour>
			<point x="581" y="16" type="curve" smooth="yes"/>
			<point x="345" y="1180" type="line" smooth="yes"/>
			<point x="337" y="1219"/>
			<point x="333" y="1230"/>
			<point x="284" y="1230" type="curve" smooth="yes"/>
			<point x="170" y="1230" type="line" smooth="yes"/>
			<point x="121" y="1230"/>
			<point x="120" y="1239"/>
			<point x="120" y="1288" type="curve" smooth="yes"/>
			<point x="120" y="1449" type="line" smooth="yes"/>
			<point x="120" y="1497"/>
			<point x="135" y="1500"/>
			<point x="180" y="1500" type="curve" smooth="yes"/>
			<point x="1062" y="1500" type="line" smooth="yes"/>
			<point x="1099" y="1500"/>
			<point x="1110" y="1496"/>
			<point x="1110" y="1456" type="curve" smooth="yes"/>
			<point x="1110" y="1272" type="line" smooth="yes"/>
			<point x="1110" y="1238"/>
			<point x="1104" y="1230"/>
			<point x="1068" y="1230" type="curve" smooth="yes"/>
			<point x="898" y="1230" type="line" smooth="yes"/>
			<point x="852" y="1230"/>
			<point x="852" y="1222"/>
			<point x="859" y="1182" type="curve" smooth="yes"/>
			<point x="957" y="586" type="line" smooth="yes"/>
			<point x="971" y="499"/>
			<point x="961" y="436"/>
			<point x="984" y="436" type="curve" smooth="yes"/>
			<point x="1009" y="436"/>
			<point x="1026" y="489"/>
			<point x="1067" y="552" type="curve" smooth="yes"/>
			<point x="1475" y="1184" type="line" smooth="yes"/>
			<point x="1503" y="1227"/>
			<point x="1504" y="1230"/>
			<point x="1430" y="1230" type="curve" smooth="yes"/>
			<point x="1390" y="1230" type="line" smooth="yes"/>
			<point x="1345" y="1230"/>
			<point x="1340" y="1240"/>
			<point x="1340" y="1282" type="curve" smooth="yes"/>
			<point x="1340" y="1440" type="line" smooth="yes"/>
			<point x="1340" y="1489"/>
			<point x="1341" y="1500"/>
			<point x="1390" y="1500" type="curve" smooth="yes"/>
			<point x="1980" y="1500" type="line" smooth="yes"/>
			<point x="2013" y="1500"/>
			<point x="2020" y="1494"/>
			<point x="2020" y="1459" type="curve" smooth="yes"/>
			<point x="2020" y="1281" type="line" smooth="yes"/>
			<point x="2020" y="1236"/>
			<point x="2014" y="1230"/>
			<point x="1970" y="1230" type="curve" smooth="yes"/>
			<point x="1880" y="1230" type="line" smooth="yes"/>
			<point x="1833" y="1230"/>
			<point x="1828" y="1227"/>
			<point x="1810" y="1200" type="curve" smooth="yes"/>
			<point x="1017" y="10" type="line" smooth="yes"/>
			<point x="996" y="-21"/>
			<point x="984" y="-30"/>
			<point x="930" y="-30" type="curve" smooth="yes"/>
			<point x="644" y="-30" type="line" smooth="yes"/>
			<point x="595" y="-30"/>
			<point x="589" y="-23"/>
		</contour>
	</outline>
</glyph>
<glyph name="X" format="2">
	<advance width="1700" height="0"/>
	<unicode hex="0058"/>
	<anchor x="1230" y="1500" name="Anchor-0"/>
	<anchor x="706" y="0" name="Anchor-1"/>
	<anchor x="706" y="0" name="Anchor-2"/>
	<outline>
		<contour>
			<point x="221" y="1230" type="curve" smooth="yes"/>
			<point x="135" y="1230" type="line" smooth="yes"/>
			<point x="73" y="1230"/>
			<point x="70" y="1239"/>
			<point x="70" y="1299" type="curve" smooth="yes"/>
			<point x="70" y="1454" type="line" smooth="yes"/>
			<point x="70" y="1497"/>
			<point x="94" y="1500"/>
			<point x="133" y="1500" type="curve" smooth="yes"/>
			<point x="955" y="1500" type="line" smooth="yes"/>
			<point x="1005" y="1500"/>
			<point x="1010" y="1494"/>
			<point x="1010" y="1443" type="curve" smooth="yes"/>
			<point x="1010" y="1291" type="line" smooth="yes"/>
			<point x="1010" y="1241"/>
			<point x="1008" y="1230"/>
			<point x="955" y="1230" type="curve" smooth="yes"/>
			<point x="877" y="1230" type="line" smooth="yes"/>
			<point x="815" y="1230"/>
			<point x="806" y="1227"/>
			<point x="841" y="1183" type="curve" smooth="yes"/>
			<point x="947" y="1047" type="line" smooth="yes"/>
			<point x="973" y="1014"/>
			<point x="976" y="987"/>
			<point x="993" y="987" type="curve" smooth="yes"/>
			<point x="1012" y="987"/>
			<point x="1041" y="1015"/>
			<point x="1081" y="1048" type="curve" smooth="yes"/>
			<point x="1251" y="1189" type="line" smooth="yes"/>
			<point x="1278" y="1211"/>
			<point x="1316" y="1230"/>
			<point x="1243" y="1230" type="curve" smooth="yes"/>
			<point x="1199" y="1230" type="line" smooth="yes"/>
			<point x="1150" y="1230"/>
			<point x="1150" y="1230"/>
			<point x="1150" y="1279" type="curve" smooth="yes"/>
			<point x="1150" y="1435" type="line" smooth="yes"/>
			<point x="1150" y="1493"/>
			<point x="1154" y="1500"/>
			<point x="1211" y="1500" type="curve" smooth="yes"/>
			<point x="1797" y="1500" type="line" smooth="yes"/>
			<point x="1852" y="1500"/>
			<point x="1870" y="1498"/>
			<point x="1870" y="1439" type="curve" smooth="yes"/>
			<point x="1870" y="1299" type="line" smooth="yes"/>
			<point x="1870" y="1239"/>
			<point x="1867" y="1230"/>
			<point x="1805" y="1230" type="curve" smooth="yes"/>
			<point x="1741" y="1230" type="line" smooth="yes"/>
			<point x="1678" y="1230"/>
			<point x="1661" y="1224"/>
			<point x="1629" y="1197" type="curve" smooth="yes"/>
			<point x="1245" y="880" type="line" smooth="yes"/>
			<point x="1192" y="836"/>
			<point x="1156" y="805"/>
			<point x="1156" y="780" type="curve" smooth="yes"/>
			<point x="1156" y="758"/>
			<point x="1186" y="742"/>
			<point x="1224" y="693" type="curve" smooth="yes"/>
			<point x="1523" y="311" type="line" smooth="yes"/>
			<point x="1546" y="281"/>
			<point x="1559" y="270"/>
			<point x="1615" y="270" type="curve" smooth="yes"/>
			<point x="1737" y="270" type="line" smooth="yes"/>
			<point x="1778" y="270"/>
			<point x="1778" y="260"/>
			<point x="1778" y="219" type="curve" smooth="yes"/>
			<point x="1778" y="51" type="line" smooth="yes"/>
			<point x="1778" y="2"/>
			<point x="1768" y="0"/>
			<point x="1719" y="0" type="curve" smooth="yes"/>
			<point x="851" y="0" type="line" smooth="yes"/>
			<point x="812" y="0"/>
			<point x="798" y="3"/>
			<point x="798" y="45" type="curve" smooth="yes"/>
			<point x="798" y="223" type="line" smooth="yes"/>
			<point x="798" y="270"/>
			<point x="808" y="270"/>
			<point x="855" y="270" type="curve" smooth="yes"/>
			<point x="973" y="270" type="line" smooth="yes"/>
			<point x="1021" y="270"/>
			<point x="1005" y="296"/>
			<point x="979" y="329" type="curve" smooth="yes"/>
			<point x="849" y="497" type="line" smooth="yes"/>
			<point x="818" y="537"/>
			<point x="809" y="568"/>
			<point x="792" y="568" type="curve" smooth="yes"/>
			<point x="773" y="568"/>
			<point x="746" y="547"/>
			<point x="705" y="512" type="curve" smooth="yes"/>
			<point x="505" y="342" type="line" smooth="yes"/>
			<point x="478" y="319"/>
			<point x="432" y="270"/>
			<point x="477" y="270" type="curve" smooth="yes"/>
			<point x="511" y="270" type="line" smooth="yes"/>
			<point x="549" y="270"/>
			<point x="560" y="268"/>
			<point x="560" y="227" type="curve" smooth="yes"/>
			<point x="560" y="75" type="line" smooth="yes"/>
			<point x="560" y="9"/>
			<point x="545" y="0"/>
			<point x="483" y="0" type="curve" smooth="yes"/>
			<point x="-105" y="0" type="line" smooth="yes"/>
			<point x="-155" y="0"/>
			<point x="-180" y="2"/>
			<point x="-180" y="57" type="curve" smooth="yes"/>
			<point x="-180" y="195" type="line" smooth="yes"/>
			<point x="-180" y="255"/>
			<point x="-178" y="270"/>
			<point x="-114" y="270" type="curve" smooth="yes"/>
			<point x="-13" y="270" type="line" smooth="yes"/>
			<point x="44" y="270"/>
			<point x="54" y="279"/>
			<point x="83" y="304" type="curve" smooth="yes"/>
			<point x="541" y="697" type="line" smooth="yes"/>
			<point x="587" y="737"/>
			<point x="618" y="761"/>
			<point x="618" y="786" type="curve" smooth="yes"/>
			<point x="618" y="818"/>
			<point x="577" y="848"/>
			<point x="530" y="909" type="curve" smooth="yes"/>
			<point x="321" y="1179" type="line" smooth="yes"/>
			<point x="293" y="1216"/>
			<point x="290" y="1230"/>
		</contour>
	</outline>
</glyph>
<glyph name="bracketleft" format="2">
	<advance width="810" height="0"/>
	<unicode hex="005B"/>
	<outline>
		<contour>
			<point x="361" y="1560" type="curve" smooth="yes"/>
			<point x="873" y="1560" type="line" smooth="yes"/>
			<point x="913" y="1560"/>
			<point x="930" y="1557"/>
			<point x="930" y="1513" type="curve" smooth="yes"/>
			<point x="930" y="1372" type="line" smooth="yes"/>
			<point x="930" y="1312"/>
			<point x="919" y="1310"/>
			<point x="861" y="1310" type="curve" smooth="yes"/>
			<point x="737" y="1310" type="line" smooth="yes"/>
			<point x="673" y="1310"/>
			<point x="657" y="1307"/>
			<point x="645" y="1252" type="curve" smooth="yes"/>
			<point x="378" y="22" type="line" smooth="yes"/>
			<point x="365" y="-36"/>
			<point x="361" y="-50"/>
			<point x="438" y="-50" type="curve" smooth="yes"/>
			<point x="547" y="-50" type="line" smooth="yes"/>
			<point x="600" y="-50"/>
			<point x="610" y="-51"/>
			<point x="610" y="-104" type="curve" smooth="yes"/>
			<point x="610" y="-244" type="line" smooth="yes"/>
			<point x="610" y="-294"/>
			<point x="603" y="-300"/>
			<point x="555" y="-300" type="curve" smooth="yes"/>
			<point x="-41" y="-300" type="line" smooth="yes"/>
			<point x="-102" y="-300"/>
			<point x="-109" y="-297"/>
			<point x="-98" y="-244" type="curve" smooth="yes"/>
			<point x="277" y="1498" type="line" smooth="yes"/>
			<point x="288" y="1551"/>
			<point x="294" y="1560"/>
		</contour>
	</outline>
</glyph>
<glyph name="backslash" format="2">
	<advance width="1040" height="0"/>
	<unicode hex="005C"/>
	<outline>
		<contour>
			<point x="523" y="1476" type="curve" smooth="yes"/>
			<point x="828" y="-234" type="line" smooth="yes"/>
			<point x="839" y="-293"/>
			<point x="838" y="-300"/>
			<point x="765" y="-300" type="curve" smooth="yes"/>
			<point x="625" y="-300" type="line" smooth="yes"/>
			<point x="555" y="-300"/>
			<point x="560" y="-290"/>
			<point x="550" y="-232" type="curve" smooth="yes"/>
			<point x="251" y="1494" type="line" smooth="yes"/>
			<point x="241" y="1555"/>
			<point x="243" y="1560"/>
			<point x="317" y="1560" type="curve" smooth="yes"/>
			<point x="439" y="1560" type="line" smooth="yes"/>
			<point x="521" y="1560"/>
			<point x="511" y="1542"/>
		</contour>
	</outline>
</glyph>
<glyph name="bracketright" format="2">
	<advance width="810" height="0"/>
	<unicode hex="005D"/>
	<outline>
		<contour>
			<point x="449" y="-300" type="curve" smooth="yes"/>
			<point x="-63" y="-300" type="line" smooth="yes"/>
			<point x="-103" y="-300"/>
			<point x="-120" y="-297"/>
			<point x="-120" y="-253" type="curve" smooth="yes"/>
			<point x="-120" y="-112" type="line" smooth="yes"/>
			<point x="-120" y="-52"/>
			<point x="-109" y="-50"/>
			<point x="-51" y="-50" type="curve" smooth="yes"/>
			<point x="73" y="-50" type="line" smooth="yes"/>
			<point x="137" y="-50"/>
			<point x="153" y="-47"/>
			<point x="165" y="8" type="curve" smooth="yes"/>
			<point x="432" y="1238" type="line" smooth="yes"/>
			<point x="445" y="1296"/>
			<point x="449" y="1310"/>
			<point x="372" y="1310" type="curve" smooth="yes"/>
			<point x="263" y="1310" type="line" smooth="yes"/>
			<point x="210" y="1310"/>
			<point x="200" y="1311"/>
			<point x="200" y="1364" type="curve" smooth="yes"/>
			<point x="200" y="1504" type="line" smooth="yes"/>
			<point x="200" y="1554"/>
			<point x="207" y="1560"/>
			<point x="255" y="1560" type="curve" smooth="yes"/>
			<point x="851" y="1560" type="line" smooth="yes"/>
			<point x="912" y="1560"/>
			<point x="919" y="1557"/>
			<point x="908" y="1504" type="curve" smooth="yes"/>
			<point x="533" y="-238" type="line" smooth="yes"/>
			<point x="522" y="-291"/>
			<point x="516" y="-300"/>
		</contour>
	</outline>
</glyph>
<glyph name="grave" format="2">
	<advance width="790" height="0"/>
	<unicode hex="0060"/>
	<outline>
		<contour>
			<point x="440" y="1340" type="line" smooth="yes"/>
			<point x="343" y="1333"/>
			<point x="250" y="1412"/>
			<point x="250" y="1510" type="curve" smooth="yes"/>
			<point x="250" y="1608"/>
			<point x="359" y="1724"/>
			<point x="460" y="1676" type="curve" smooth="yes"/>
			<point x="823" y="1505" type="line" smooth="yes"/>
			<point x="854" y="1490"/>
			<point x="853" y="1475"/>
			<point x="852" y="1431" type="curve" smooth="yes"/>
			<point x="850" y="1380"/>
			<point x="852" y="1370"/>
			<point x="805" y="1367" type="curve" smooth="yes"/>
		</contour>
	</outline>
</glyph>
<glyph name="a" format="2">
	<advance width="1444" height="2310"/>
	<unicode hex="0061"/>
	<anchor x="861" y="1040" name="Anchor-0"/>
	<anchor x="495" y="0" name="Anchor-1"/>
	<anchor x="495" y="0" name="Anchor-2"/>
	<anchor x="1137" y="10" name="Anchor-3"/>
	<outline>
		<contour>
			<point x="749" y="640" type="curve" smooth="yes"/>
			<point x="749" y="750"/>
			<point x="732" y="850"/>
			<point x="681" y="850" type="curve" smooth="yes"/>
			<point x="567" y="850"/>
			<point x="443" y="608"/>
			<point x="443" y="360" type="curve" smooth="yes"/>
			<point x="443" y="232"/>
			<point x="466" y="188"/>
			<point x="520" y="188" type="curve" smooth="yes"/>
			<point x="594" y="188"/>
			<point x="749" y="372"/>
		</contour>
		<contour>
			<point x="1374" y="273" type="curve" smooth="yes"/>
			<point x="1268" y="71"/>
			<point x="1100" y="-50"/>
			<point x="900" y="-50" type="curve" smooth="yes"/>
			<point x="807" y="-50"/>
			<point x="738" y="-7"/>
			<point x="694" y="49" type="curve" smooth="yes"/>
			<point x="683" y="63"/>
			<point x="675" y="72"/>
			<point x="668" y="79" type="curve" smooth="yes"/>
			<point x="648" y="98"/>
			<point x="638" y="90"/>
			<point x="604" y="61" type="curve" smooth="yes"/>
			<point x="535" y="1"/>
			<point x="448" y="-40"/>
			<point x="342" y="-40" type="curve" smooth="yes"/>
			<point x="161" y="-40"/>
			<point x="-22" y="40"/>
			<point x="-22" y="340" type="curve" smooth="yes"/>
			<point x="-22" y="780"/>
			<point x="281" y="1078"/>
			<point x="536" y="1078" type="curve" smooth="yes"/>
			<point x="663" y="1078"/>
			<point x="738" y="1031"/>
			<point x="786" y="937" type="curve" smooth="yes"/>
			<point x="801" y="908"/>
			<point x="814" y="895"/>
			<point x="826" y="954" type="curve" smooth="yes"/>
			<point x="837" y="1008" type="line" smooth="yes"/>
			<point x="842" y="1032"/>
			<point x="849" y="1040"/>
			<point x="886" y="1040" type="curve" smooth="yes"/>
			<point x="1192" y="1040" type="line" smooth="yes"/>
			<point x="1240" y="1040"/>
			<point x="1240" y="1031"/>
			<point x="1230" y="994" type="curve" smooth="yes"/>
			<point x="1050" y="302" type="line" smooth="yes"/>
			<point x="1047" y="290"/>
			<point x="1044" y="272"/>
			<point x="1044" y="262" type="curve" smooth="yes"/>
			<point x="1044" y="240"/>
			<point x="1051" y="234"/>
			<point x="1069" y="234" type="curve" smooth="yes"/>
			<point x="1105" y="234"/>
			<point x="1147" y="277"/>
			<point x="1197" y="372" type="curve" smooth="yes"/>
			<point x="1221" y="418"/>
			<point x="1231" y="417"/>
			<point x="1270" y="399" type="curve" smooth="yes"/>
			<point x="1352" y="361" type="line" smooth="yes"/>
			<point x="1400" y="338"/>
			<point x="1403" y="328"/>
		</contour>
	</outline>
</glyph>
<glyph name="b" format="2">
	<advance width="1275" height="2310"/>
	<unicode hex="0062"/>
	<anchor x="1041" y="1040" name="Anchor-0"/>
	<anchor x="495" y="0" name="Anchor-1"/>
	<anchor x="495" y="0" name="Anchor-2"/>
	<outline>
		<contour>
			<point x="396" y="254" type="curve" smooth="yes"/>
			<point x="410" y="211"/>
			<point x="437" y="190"/>
			<point x="473" y="190" type="curve" smooth="yes"/>
			<point x="570" y="190"/>
			<point x="716" y="392"/>
			<point x="716" y="700" type="curve" smooth="yes"/>
			<point x="716" y="788"/>
			<point x="697" y="846"/>
			<point x="654" y="846" type="curve" smooth="yes"/>
			<point x="584" y="846"/>
			<point x="491" y="760"/>
			<point x="446" y="555" type="curve" smooth="yes"/>
			<point x="395" y="323" type="line" smooth="yes"/>
			<point x="389" y="297"/>
			<point x="388" y="278"/>
		</contour>
		<contour>
			<point x="1" y="302" type="curve" smooth="yes"/>
			<point x="227" y="1291" type="line" smooth="yes"/>
			<point x="237" y="1335"/>
			<point x="234" y="1350"/>
			<point x="175" y="1350" type="curve" smooth="yes"/>
			<point x="82" y="1350" type="line" smooth="yes"/>
			<point x="52" y="1350"/>
			<point x="49" y="1358"/>
			<point x="49" y="1389" type="curve" smooth="yes"/>
			<point x="49" y="1519" type="line" smooth="yes"/>
			<point x="49" y="1553"/>
			<point x="53" y="1560"/>
			<point x="86" y="1560" type="curve" smooth="yes"/>
			<point x="617" y="1560" type="line" smooth="yes"/>
			<point x="661" y="1560"/>
			<point x="663" y="1555"/>
			<point x="653" y="1513" type="curve" smooth="yes"/>
			<point x="545" y="1009" type="line" smooth="yes"/>
			<point x="535" y="964"/>
			<point x="536" y="939"/>
			<point x="577" y="974" type="curve" smooth="yes"/>
			<point x="646" y="1033"/>
			<point x="748" y="1078"/>
			<point x="849" y="1078" type="curve" smooth="yes"/>
			<point x="1037" y="1078"/>
			<point x="1183" y="990"/>
			<point x="1183" y="710" type="curve" smooth="yes"/>
			<point x="1183" y="330"/>
			<point x="877" y="-50"/>
			<point x="451" y="-50" type="curve" smooth="yes"/>
			<point x="222" y="-50"/>
			<point x="89" y="53"/>
			<point x="20" y="172" type="curve" smooth="yes"/>
			<point x="-8" y="220"/>
			<point x="-13" y="241"/>
		</contour>
	</outline>
</glyph>
<glyph name="c" format="2">
	<advance width="1211" height="2310"/>
	<unicode hex="0063"/>
	<anchor x="750" y="1040" name="Anchor-0"/>
	<anchor x="489" y="0" name="Anchor-1"/>
	<anchor x="489" y="0" name="Anchor-2"/>
	<outline>
		<contour>
			<point x="1165" y="734" type="curve" smooth="yes"/>
			<point x="1165" y="558"/>
			<point x="1045" y="480"/>
			<point x="917" y="480" type="curve" smooth="yes"/>
			<point x="805" y="480"/>
			<point x="725" y="552"/>
			<point x="727" y="686" type="curve" smooth="yes"/>
			<point x="728" y="782"/>
			<point x="805" y="810"/>
			<point x="805" y="844" type="curve" smooth="yes"/>
			<point x="805" y="868"/>
			<point x="789" y="886"/>
			<point x="746" y="886" type="curve" smooth="yes"/>
			<point x="618" y="886"/>
			<point x="417" y="688"/>
			<point x="417" y="380" type="curve" smooth="yes"/>
			<point x="417" y="232"/>
			<point x="466" y="188"/>
			<point x="536" y="188" type="curve" smooth="yes"/>
			<point x="605" y="188"/>
			<point x="698" y="218"/>
			<point x="766" y="309" type="curve" smooth="yes"/>
			<point x="782" y="331"/>
			<point x="791" y="346"/>
			<point x="832" y="346" type="curve" smooth="yes"/>
			<point x="998" y="346" type="line" smooth="yes"/>
			<point x="1040" y="346"/>
			<point x="1058" y="334"/>
			<point x="1036" y="302" type="curve" smooth="yes"/>
			<point x="916" y="130"/>
			<point x="760" y="-40"/>
			<point x="475" y="-40" type="curve" smooth="yes"/>
			<point x="233" y="-40"/>
			<point x="-21" y="98"/>
			<point x="-21" y="400" type="curve" smooth="yes"/>
			<point x="-21" y="800"/>
			<point x="307" y="1080"/>
			<point x="678" y="1080" type="curve" smooth="yes"/>
			<point x="941" y="1080"/>
			<point x="1165" y="938"/>
		</contour>
	</outline>
</glyph>
<glyph name="d" format="2">
	<advance width="1486" height="2310"/>
	<unicode hex="0064"/>
	<anchor x="590" y="1040" name="Anchor-0"/>
	<anchor x="1578" y="1040" name="Anchor-1"/>
	<anchor x="552" y="0" name="Anchor-2"/>
	<outline>
		<contour>
			<point x="742" y="640" type="curve" smooth="yes"/>
			<point x="742" y="750"/>
			<point x="725" y="850"/>
			<point x="674" y="850" type="curve" smooth="yes"/>
			<point x="560" y="850"/>
			<point x="436" y="608"/>
			<point x="436" y="360" type="curve" smooth="yes"/>
			<point x="436" y="232"/>
			<point x="459" y="188"/>
			<point x="513" y="188" type="curve" smooth="yes"/>
			<point x="587" y="188"/>
			<point x="742" y="372"/>
		</contour>
		<contour>
			<point x="1398" y="292" type="curve" smooth="yes"/>
			<point x="1293" y="78"/>
			<point x="1118" y="-50"/>
			<point x="901" y="-50" type="curve" smooth="yes"/>
			<point x="787" y="-50"/>
			<point x="720" y="9"/>
			<point x="678" y="80" type="curve" smooth="yes"/>
			<point x="671" y="93"/>
			<point x="663" y="100"/>
			<point x="656" y="104" type="curve" smooth="yes"/>
			<point x="642" y="112"/>
			<point x="628" y="102"/>
			<point x="612" y="85" type="curve" smooth="yes"/>
			<point x="540" y="9"/>
			<point x="455" y="-40"/>
			<point x="330" y="-40" type="curve" smooth="yes"/>
			<point x="142" y="-40"/>
			<point x="-22" y="40"/>
			<point x="-22" y="340" type="curve" smooth="yes"/>
			<point x="-22" y="780"/>
			<point x="284" y="1078"/>
			<point x="529" y="1078" type="curve" smooth="yes"/>
			<point x="645" y="1078"/>
			<point x="727" y="1040"/>
			<point x="767" y="961" type="curve" smooth="yes"/>
			<point x="794" y="909"/>
			<point x="812" y="900"/>
			<point x="825" y="952" type="curve" smooth="yes"/>
			<point x="912" y="1313" type="line" smooth="yes"/>
			<point x="920" y="1346"/>
			<point x="915" y="1350"/>
			<point x="874" y="1350" type="curve" smooth="yes"/>
			<point x="757" y="1350" type="line" smooth="yes"/>
			<point x="718" y="1350"/>
			<point x="705" y="1353"/>
			<point x="706" y="1399" type="curve" smooth="yes"/>
			<point x="707" y="1517" type="line" smooth="yes"/>
			<point x="707" y="1552"/>
			<point x="711" y="1560"/>
			<point x="742" y="1560" type="curve" smooth="yes"/>
			<point x="1304" y="1560" type="line" smooth="yes"/>
			<point x="1376" y="1560"/>
			<point x="1383" y="1552"/>
			<point x="1368" y="1494" type="curve" smooth="yes"/>
			<point x="1059" y="302" type="line" smooth="yes"/>
			<point x="1056" y="290"/>
			<point x="1053" y="272"/>
			<point x="1053" y="262" type="curve" smooth="yes"/>
			<point x="1053" y="240"/>
			<point x="1060" y="234"/>
			<point x="1079" y="234" type="curve" smooth="yes"/>
			<point x="1119" y="234"/>
			<point x="1168" y="283"/>
			<point x="1222" y="393" type="curve" smooth="yes"/>
			<point x="1236" y="421"/>
			<point x="1245" y="420"/>
			<point x="1274" y="406" type="curve" smooth="yes"/>
			<point x="1375" y="355" type="line" smooth="yes"/>
			<point x="1413" y="337"/>
			<point x="1416" y="329"/>
		</contour>
	</outline>
</glyph>
<glyph name="e" format="2">
	<advance width="1247" height="2310"/>
	<unicode hex="0065"/>
	<anchor x="724" y="1040" name="Anchor-0"/>
	<anchor x="497" y="0" name="Anchor-1"/>
	<anchor x="497" y="0" name="Anchor-2"/>
	<anchor x="823" y="102" name="Anchor-3"/>
	<outline>
		<contour>
			<point x="-21" y="410" type="curve" smooth="yes"/>
			<point x="-21" y="770"/>
			<point x="280" y="1080"/>
			<point x="708" y="1080" type="curve" smooth="yes"/>
			<point x="974" y="1080"/>
			<point x="1164" y="950"/>
			<point x="1164" y="756" type="curve" smooth="yes"/>
			<point x="1164" y="466"/>
			<point x="729" y="423"/>
			<point x="442" y="395" type="curve" smooth="yes"/>
			<point x="421" y="393"/>
			<point x="417" y="386"/>
			<point x="417" y="365" type="curve" smooth="yes"/>
			<point x="415" y="217"/>
			<point x="475" y="188"/>
			<point x="581" y="188" type="curve" smooth="yes"/>
			<point x="650" y="188"/>
			<point x="745" y="219"/>
			<point x="815" y="311" type="curve" smooth="yes"/>
			<point x="832" y="333"/>
			<point x="841" y="346"/>
			<point x="883" y="346" type="curve" smooth="yes"/>
			<point x="1037" y="346" type="line" smooth="yes"/>
			<point x="1096" y="346"/>
			<point x="1107" y="330"/>
			<point x="1078" y="290" type="curve" smooth="yes"/>
			<point x="958" y="122"/>
			<point x="772" y="-40"/>
			<point x="493" y="-40" type="curve" smooth="yes"/>
			<point x="252" y="-40"/>
			<point x="-21" y="108"/>
		</contour>
		<contour>
			<point x="465" y="569" type="curve" smooth="yes"/>
			<point x="640" y="593"/>
			<point x="770" y="664"/>
			<point x="772" y="808" type="curve" smooth="yes"/>
			<point x="772" y="846"/>
			<point x="758" y="884"/>
			<point x="688" y="884" type="curve" smooth="yes"/>
			<point x="592" y="884"/>
			<point x="502" y="804"/>
			<point x="446" y="602" type="curve" smooth="yes"/>
			<point x="438" y="571"/>
			<point x="440" y="566"/>
		</contour>
	</outline>
</glyph>
<glyph name="f" format="2">
	<advance width="916" height="2310"/>
	<unicode hex="0066"/>
	<anchor x="951" y="1692" name="Anchor-0"/>
	<anchor x="251" y="0" name="Anchor-1"/>
	<anchor x="251" y="0" name="Anchor-2"/>
	<outline>
		<contour>
			<point x="-24" y="-233" type="curve" smooth="yes"/>
			<point x="180" y="777" type="line" smooth="yes"/>
			<point x="189" y="822"/>
			<point x="188" y="830"/>
			<point x="131" y="830" type="curve" smooth="yes"/>
			<point x="48" y="830" type="line" smooth="yes"/>
			<point x="16" y="830"/>
			<point x="14" y="838"/>
			<point x="14" y="871" type="curve" smooth="yes"/>
			<point x="14" y="988" type="line" smooth="yes"/>
			<point x="14" y="1031"/>
			<point x="15" y="1040"/>
			<point x="58" y="1040" type="curve" smooth="yes"/>
			<point x="180" y="1040" type="line" smooth="yes"/>
			<point x="226" y="1040"/>
			<point x="233" y="1047"/>
			<point x="239" y="1078" type="curve" smooth="yes"/>
			<point x="252" y="1144" type="line" smooth="yes"/>
			<point x="322" y="1508"/>
			<point x="542" y="1600"/>
			<point x="813" y="1600" type="curve" smooth="yes"/>
			<point x="1055" y="1600"/>
			<point x="1199" y="1482"/>
			<point x="1199" y="1308" type="curve" smooth="yes"/>
			<point x="1199" y="1162"/>
			<point x="1091" y="1074"/>
			<point x="963" y="1074" type="curve" smooth="yes"/>
			<point x="856" y="1074"/>
			<point x="755" y="1136"/>
			<point x="755" y="1260" type="curve" smooth="yes"/>
			<point x="755" y="1352"/>
			<point x="807" y="1376"/>
			<point x="807" y="1400" type="curve" smooth="yes"/>
			<point x="807" y="1412"/>
			<point x="791" y="1420"/>
			<point x="769" y="1420" type="curve" smooth="yes"/>
			<point x="697" y="1420"/>
			<point x="672" y="1356"/>
			<point x="623" y="1100" type="curve" smooth="yes"/>
			<point x="620" y="1084" type="line" smooth="yes"/>
			<point x="613" y="1051"/>
			<point x="613" y="1040"/>
			<point x="653" y="1040" type="curve" smooth="yes"/>
			<point x="804" y="1040" type="line" smooth="yes"/>
			<point x="843" y="1040"/>
			<point x="848" y="1032"/>
			<point x="847" y="988" type="curve" smooth="yes"/>
			<point x="846" y="868" type="line" smooth="yes"/>
			<point x="846" y="832"/>
			<point x="838" y="830"/>
			<point x="805" y="830" type="curve" smooth="yes"/>
			<point x="620" y="830" type="line" smooth="yes"/>
			<point x="574" y="830"/>
			<point x="569" y="820"/>
			<point x="561" y="779" type="curve" smooth="yes"/>
			<point x="386" y="-242" type="line" smooth="yes"/>
			<point x="376" y="-294"/>
			<point x="369" y="-300"/>
			<point x="308" y="-300" type="curve" smooth="yes"/>
			<point x="37" y="-300" type="line" smooth="yes"/>
			<point x="-31" y="-300"/>
			<point x="-35" y="-285"/>
		</contour>
	</outline>
</glyph>
<glyph name="g" format="2">
	<advance width="1135" height="2310"/>
	<unicode hex="0067"/>
	<anchor x="681" y="1040" name="Anchor-0"/>
	<anchor x="105" y="-565" name="Anchor-1"/>
	<anchor x="105" y="-565" name="Anchor-2"/>
	<outline>
		<contour>
			<point x="-265" y="-310" type="curve" smooth="yes"/>
			<point x="-265" y="-188"/>
			<point x="-156" y="-106"/>
			<point x="-18" y="-56" type="curve" smooth="yes"/>
			<point x="42" y="-34"/>
			<point x="23" y="-40"/>
			<point x="-11" y="-2" type="curve" smooth="yes"/>
			<point x="-42" y="32"/>
			<point x="-61" y="74"/>
			<point x="-61" y="122" type="curve" smooth="yes"/>
			<point x="-61" y="247"/>
			<point x="30" y="331"/>
			<point x="138" y="383" type="curve" smooth="yes"/>
			<point x="197" y="413"/>
			<point x="194" y="402"/>
			<point x="151" y="444" type="curve" smooth="yes"/>
			<point x="98" y="492"/>
			<point x="67" y="555"/>
			<point x="67" y="634" type="curve" smooth="yes"/>
			<point x="67" y="932"/>
			<point x="383" y="1080"/>
			<point x="632" y="1080" type="curve" smooth="yes"/>
			<point x="634" y="1080"/>
			<point x="635" y="1080"/>
			<point x="637" y="1080" type="curve" smooth="yes"/>
			<point x="656" y="1079"/>
			<point x="662" y="1083"/>
			<point x="669" y="1108" type="curve" smooth="yes"/>
			<point x="707" y="1250"/>
			<point x="798" y="1394"/>
			<point x="973" y="1394" type="curve" smooth="yes"/>
			<point x="1150" y="1394"/>
			<point x="1246" y="1278"/>
			<point x="1246" y="1174" type="curve" smooth="yes"/>
			<point x="1246" y="1086"/>
			<point x="1178" y="992"/>
			<point x="1060" y="992" type="curve" smooth="yes"/>
			<point x="964" y="992"/>
			<point x="875" y="1052"/>
			<point x="875" y="1150" type="curve" smooth="yes"/>
			<point x="875" y="1226"/>
			<point x="940" y="1246"/>
			<point x="908" y="1246" type="curve" smooth="yes"/>
			<point x="873" y="1246"/>
			<point x="828" y="1176"/>
			<point x="807" y="1081" type="curve" smooth="yes"/>
			<point x="802" y="1057"/>
			<point x="802" y="1056"/>
			<point x="822" y="1049" type="curve" smooth="yes"/>
			<point x="937" y="1006"/>
			<point x="1014" y="919"/>
			<point x="1014" y="792" type="curve" smooth="yes"/>
			<point x="1014" y="492"/>
			<point x="713" y="340"/>
			<point x="460" y="340" type="curve" smooth="yes"/>
			<point x="433" y="340"/>
			<point x="405" y="342"/>
			<point x="379" y="345" type="curve" smooth="yes"/>
			<point x="341" y="350"/>
			<point x="323" y="354"/>
			<point x="302" y="326" type="curve" smooth="yes"/>
			<point x="293" y="313"/>
			<point x="287" y="298"/>
			<point x="287" y="280" type="curve" smooth="yes"/>
			<point x="287" y="258"/>
			<point x="302" y="238"/>
			<point x="354" y="238" type="curve" smooth="yes"/>
			<point x="399" y="238"/>
			<point x="613" y="240"/>
			<point x="666" y="240" type="curve" smooth="yes"/>
			<point x="851" y="240"/>
			<point x="961" y="148"/>
			<point x="961" y="-18" type="curve" smooth="yes"/>
			<point x="961" y="-389"/>
			<point x="601" y="-530"/>
			<point x="251" y="-530" type="curve" smooth="yes"/>
			<point x="-68" y="-530"/>
			<point x="-265" y="-454"/>
		</contour>
		<contour>
			<point x="162" y="-130" type="curve" smooth="yes"/>
			<point x="133" y="-159"/>
			<point x="114" y="-192"/>
			<point x="114" y="-230" type="curve" smooth="yes"/>
			<point x="113" y="-304"/>
			<point x="198" y="-326"/>
			<point x="327" y="-326" type="curve" smooth="yes"/>
			<point x="483" y="-326"/>
			<point x="592" y="-286"/>
			<point x="593" y="-176" type="curve" smooth="yes"/>
			<point x="594" y="-130"/>
			<point x="553" y="-118"/>
			<point x="452" y="-118" type="curve" smooth="yes"/>
			<point x="414" y="-118"/>
			<point x="323" y="-118"/>
			<point x="283" y="-118" type="curve" smooth="yes"/>
			<point x="263" y="-118"/>
			<point x="243" y="-117"/>
			<point x="222" y="-114" type="curve" smooth="yes"/>
			<point x="189" y="-110"/>
			<point x="181" y="-110"/>
		</contour>
		<contour>
			<point x="456" y="604" type="curve" smooth="yes"/>
			<point x="456" y="554"/>
			<point x="470" y="520"/>
			<point x="508" y="520" type="curve" smooth="yes"/>
			<point x="586" y="520"/>
			<point x="645" y="690"/>
			<point x="645" y="816" type="curve" smooth="yes"/>
			<point x="645" y="866"/>
			<point x="630" y="900"/>
			<point x="592" y="900" type="curve" smooth="yes"/>
			<point x="514" y="900"/>
			<point x="456" y="730"/>
		</contour>
	</outline>
</glyph>
<glyph name="h" format="2">
	<advance width="1432" height="2310"/>
	<unicode hex="0068"/>
	<anchor x="1137" y="1039" name="Anchor-0"/>
	<anchor x="549" y="0" name="Anchor-1"/>
	<anchor x="549" y="0" name="Anchor-2"/>
	<outline>
		<contour>
			<point x="1389" y="287" type="curve" smooth="yes"/>
			<point x="1289" y="90"/>
			<point x="1115" y="-40"/>
			<point x="894" y="-40" type="curve" smooth="yes"/>
			<point x="714" y="-40"/>
			<point x="620" y="44"/>
			<point x="620" y="146" type="curve" smooth="yes"/>
			<point x="620" y="184"/>
			<point x="629" y="220"/>
			<point x="638" y="250" type="curve" smooth="yes"/>
			<point x="742" y="620" type="line" smooth="yes"/>
			<point x="780" y="748"/>
			<point x="794" y="806"/>
			<point x="725" y="806" type="curve" smooth="yes"/>
			<point x="650" y="806"/>
			<point x="510" y="588"/>
			<point x="453" y="327" type="curve" smooth="yes"/>
			<point x="395" y="62" type="line" smooth="yes"/>
			<point x="384" y="10"/>
			<point x="378" y="0"/>
			<point x="316" y="0" type="curve" smooth="yes"/>
			<point x="52" y="0" type="line" smooth="yes"/>
			<point x="-25" y="0"/>
			<point x="-33" y="8"/>
			<point x="-19" y="68" type="curve" smooth="yes"/>
			<point x="267" y="1308" type="line" smooth="yes"/>
			<point x="276" y="1345"/>
			<point x="272" y="1350"/>
			<point x="224" y="1350" type="curve" smooth="yes"/>
			<point x="140" y="1350" type="line" smooth="yes"/>
			<point x="101" y="1350"/>
			<point x="95" y="1355"/>
			<point x="95" y="1396" type="curve" smooth="yes"/>
			<point x="95" y="1498" type="line" smooth="yes"/>
			<point x="95" y="1558"/>
			<point x="106" y="1560"/>
			<point x="164" y="1560" type="curve" smooth="yes"/>
			<point x="656" y="1560" type="line" smooth="yes"/>
			<point x="723" y="1560"/>
			<point x="726" y="1555"/>
			<point x="713" y="1498" type="curve" smooth="yes"/>
			<point x="593" y="966" type="line" smooth="yes"/>
			<point x="577" y="890"/>
			<point x="582" y="872"/>
			<point x="645" y="939" type="curve" smooth="yes"/>
			<point x="742" y="1039"/>
			<point x="788" y="1078"/>
			<point x="910" y="1078" type="curve" smooth="yes"/>
			<point x="1068" y="1078"/>
			<point x="1279" y="1014"/>
			<point x="1172" y="682" type="curve" smooth="yes"/>
			<point x="1052" y="310" type="line" smooth="yes"/>
			<point x="1047" y="294"/>
			<point x="1044" y="280"/>
			<point x="1044" y="272" type="curve" smooth="yes"/>
			<point x="1044" y="252"/>
			<point x="1054" y="244"/>
			<point x="1072" y="244" type="curve" smooth="yes"/>
			<point x="1108" y="244"/>
			<point x="1148" y="274"/>
			<point x="1198" y="362" type="curve" smooth="yes"/>
			<point x="1222" y="405"/>
			<point x="1220" y="439"/>
			<point x="1275" y="413" type="curve" smooth="yes"/>
			<point x="1357" y="374" type="line" smooth="yes"/>
			<point x="1414" y="347"/>
			<point x="1419" y="345"/>
		</contour>
	</outline>
</glyph>
<glyph name="i" format="2">
	<advance width="906" height="2310"/>
	<unicode hex="0069"/>
	<anchor x="247" y="10" name="Anchor-1"/>
	<anchor x="247" y="10" name="Anchor-2"/>
	<anchor x="352" y="30" name="Anchor-3"/>
	<outline>
		<contour>
			<point x="654" y="980" type="curve" smooth="yes"/>
			<point x="490" y="302" type="line" smooth="yes"/>
			<point x="487" y="290"/>
			<point x="485" y="272"/>
			<point x="485" y="262" type="curve" smooth="yes"/>
			<point x="485" y="240"/>
			<point x="492" y="234"/>
			<point x="510" y="234" type="curve" smooth="yes"/>
			<point x="545" y="234"/>
			<point x="586" y="276"/>
			<point x="633" y="368" type="curve" smooth="yes"/>
			<point x="657" y="413"/>
			<point x="654" y="425"/>
			<point x="705" y="401" type="curve" smooth="yes"/>
			<point x="809" y="352" type="line" smooth="yes"/>
			<point x="855" y="330"/>
			<point x="830" y="307"/>
			<point x="809" y="267" type="curve" smooth="yes"/>
			<point x="703" y="68"/>
			<point x="537" y="-50"/>
			<point x="329" y="-50" type="curve" smooth="yes"/>
			<point x="165" y="-50"/>
			<point x="63" y="34"/>
			<point x="63" y="154" type="curve" smooth="yes"/>
			<point x="63" y="192"/>
			<point x="76" y="249"/>
			<point x="83" y="280" type="curve" smooth="yes"/>
			<point x="193" y="772" type="line" smooth="yes"/>
			<point x="204" y="821"/>
			<point x="206" y="830"/>
			<point x="146" y="830" type="curve" smooth="yes"/>
			<point x="50" y="830" type="line" smooth="yes"/>
			<point x="8" y="830"/>
			<point x="3" y="836"/>
			<point x="3" y="880" type="curve" smooth="yes"/>
			<point x="3" y="998" type="line" smooth="yes"/>
			<point x="3" y="1037"/>
			<point x="13" y="1040"/>
			<point x="50" y="1040" type="curve" smooth="yes"/>
			<point x="602" y="1040" type="line" smooth="yes"/>
			<point x="668" y="1040"/>
			<point x="668" y="1035"/>
		</contour>
		<contour>
			<point x="274" y="1380" type="curve" smooth="yes"/>
			<point x="274" y="1516"/>
			<point x="380" y="1590"/>
			<point x="510" y="1590" type="curve" smooth="yes"/>
			<point x="640" y="1590"/>
			<point x="748" y="1516"/>
			<point x="748" y="1380" type="curve" smooth="yes"/>
			<point x="746" y="1244"/>
			<point x="640" y="1170"/>
			<point x="510" y="1170" type="curve" smooth="yes"/>
			<point x="380" y="1170"/>
			<point x="274" y="1244"/>
		</contour>
	</outline>
</glyph>
<glyph name="j" format="2">
	<advance width="777" height="2310"/>
	<unicode hex="006A"/>
	<anchor x="-189" y="-565" name="Anchor-1"/>
	<anchor x="-189" y="-565" name="Anchor-2"/>
	<outline>
		<contour>
			<point x="702" y="970" type="curve" smooth="yes"/>
			<point x="482" y="0" type="line" smooth="yes"/>
			<point x="408" y="-322"/>
			<point x="279" y="-520"/>
			<point x="-98" y="-520" type="curve" smooth="yes"/>
			<point x="-357" y="-520"/>
			<point x="-512" y="-382"/>
			<point x="-512" y="-248" type="curve" smooth="yes"/>
			<point x="-512" y="-92"/>
			<point x="-374" y="-14"/>
			<point x="-247" y="-14" type="curve" smooth="yes"/>
			<point x="-123" y="-14"/>
			<point x="-40" y="-76"/>
			<point x="-40" y="-190" type="curve" smooth="yes"/>
			<point x="-40" y="-282"/>
			<point x="-94" y="-290"/>
			<point x="-94" y="-318" type="curve" smooth="yes"/>
			<point x="-94" y="-330"/>
			<point x="-77" y="-340"/>
			<point x="-46" y="-340" type="curve" smooth="yes"/>
			<point x="84" y="-340"/>
			<point x="60" y="-128"/>
			<point x="134" y="206" type="curve" smooth="yes"/>
			<point x="252" y="764" type="line" smooth="yes"/>
			<point x="263" y="815"/>
			<point x="261" y="830"/>
			<point x="200" y="830" type="curve" smooth="yes"/>
			<point x="128" y="830" type="line" smooth="yes"/>
			<point x="87" y="830"/>
			<point x="84" y="846"/>
			<point x="84" y="888" type="curve" smooth="yes"/>
			<point x="85" y="982" type="line" smooth="yes"/>
			<point x="86" y="1033"/>
			<point x="92" y="1040"/>
			<point x="136" y="1040" type="curve" smooth="yes"/>
			<point x="645" y="1040" type="line" smooth="yes"/>
			<point x="721" y="1040"/>
			<point x="715" y="1027"/>
		</contour>
		<contour>
			<point x="335" y="1380" type="curve" smooth="yes"/>
			<point x="335" y="1516"/>
			<point x="436" y="1590"/>
			<point x="560" y="1590" type="curve" smooth="yes"/>
			<point x="692" y="1590"/>
			<point x="800" y="1516"/>
			<point x="800" y="1380" type="curve" smooth="yes"/>
			<point x="800" y="1244"/>
			<point x="692" y="1170"/>
			<point x="560" y="1170" type="curve" smooth="yes"/>
			<point x="435" y="1170"/>
			<point x="335" y="1244"/>
		</contour>
	</outline>
</glyph>
<glyph name="k" format="2">
	<advance width="1432" height="2310"/>
	<unicode hex="006B"/>
	<anchor x="1219" y="1040" name="Anchor-0"/>
	<anchor x="586" y="0" name="Anchor-1"/>
	<anchor x="586" y="0" name="Anchor-2"/>
	<outline>
		<contour>
			<point x="1329" y="296" type="curve" smooth="yes"/>
			<point x="1217" y="63"/>
			<point x="1027" y="-50"/>
			<point x="852" y="-50" type="curve" smooth="yes"/>
			<point x="680" y="-50"/>
			<point x="592" y="21"/>
			<point x="611" y="192" type="curve" smooth="yes"/>
			<point x="625" y="320" type="line" smooth="yes"/>
			<point x="628" y="351"/>
			<point x="632" y="383"/>
			<point x="628" y="414" type="curve" smooth="yes"/>
			<point x="630" y="436"/>
			<point x="623" y="438"/>
			<point x="600" y="431" type="curve" smooth="yes"/>
			<point x="584" y="426"/>
			<point x="567" y="424"/>
			<point x="548" y="424" type="curve" smooth="yes"/>
			<point x="524" y="424"/>
			<point x="502" y="432"/>
			<point x="484" y="446" type="curve" smooth="yes"/>
			<point x="462" y="463"/>
			<point x="459" y="455"/>
			<point x="454" y="434" type="curve" smooth="yes"/>
			<point x="377" y="52" type="line" smooth="yes"/>
			<point x="367" y="9"/>
			<point x="372" y="0"/>
			<point x="320" y="0" type="curve" smooth="yes"/>
			<point x="6" y="0" type="line" smooth="yes"/>
			<point x="-61" y="0"/>
			<point x="-50" y="8"/>
			<point x="-38" y="60" type="curve" smooth="yes"/>
			<point x="244" y="1294" type="line" smooth="yes"/>
			<point x="254" y="1341"/>
			<point x="256" y="1350"/>
			<point x="197" y="1350" type="curve" smooth="yes"/>
			<point x="126" y="1350" type="line" smooth="yes"/>
			<point x="83" y="1350"/>
			<point x="78" y="1356"/>
			<point x="78" y="1398" type="curve" smooth="yes"/>
			<point x="78" y="1498" type="line" smooth="yes"/>
			<point x="78" y="1557"/>
			<point x="87" y="1560"/>
			<point x="144" y="1560" type="curve" smooth="yes"/>
			<point x="623" y="1560" type="line" smooth="yes"/>
			<point x="684" y="1560"/>
			<point x="699" y="1551"/>
			<point x="684" y="1482" type="curve" smooth="yes"/>
			<point x="530" y="780" type="line" smooth="yes"/>
			<point x="525" y="760"/>
			<point x="512" y="731"/>
			<point x="551" y="745" type="curve" smooth="yes"/>
			<point x="575" y="754"/>
			<point x="601" y="758"/>
			<point x="631" y="758" type="curve" smooth="yes"/>
			<point x="639" y="758"/>
			<point x="647" y="758"/>
			<point x="655" y="757" type="curve" smooth="yes"/>
			<point x="673" y="755"/>
			<point x="673" y="760"/>
			<point x="679" y="775" type="curve" smooth="yes"/>
			<point x="682" y="781"/>
			<point x="684" y="787"/>
			<point x="687" y="794" type="curve" smooth="yes"/>
			<point x="765" y="966"/>
			<point x="873" y="1080"/>
			<point x="1040" y="1080" type="curve" smooth="yes"/>
			<point x="1251" y="1080"/>
			<point x="1356" y="972"/>
			<point x="1356" y="828" type="curve" smooth="yes"/>
			<point x="1356" y="700"/>
			<point x="1249" y="598"/>
			<point x="1131" y="598" type="curve" smooth="yes"/>
			<point x="1021" y="598"/>
			<point x="929" y="666"/>
			<point x="929" y="756" type="curve" smooth="yes"/>
			<point x="929" y="820"/>
			<point x="954" y="850"/>
			<point x="954" y="872" type="curve" smooth="yes"/>
			<point x="954" y="888"/>
			<point x="943" y="890"/>
			<point x="934" y="890" type="curve" smooth="yes"/>
			<point x="905" y="890"/>
			<point x="878" y="855"/>
			<point x="831" y="750" type="curve" smooth="yes"/>
			<point x="829" y="745"/>
			<point x="826" y="740"/>
			<point x="824" y="734" type="curve" smooth="yes"/>
			<point x="817" y="718"/>
			<point x="817" y="702"/>
			<point x="843" y="682" type="curve" smooth="yes"/>
			<point x="944" y="605"/>
			<point x="1018" y="477"/>
			<point x="999" y="336" type="curve" smooth="yes"/>
			<point x="991" y="278" type="line" smooth="yes"/>
			<point x="987" y="250"/>
			<point x="992" y="234"/>
			<point x="1018" y="234" type="curve" smooth="yes"/>
			<point x="1043" y="234"/>
			<point x="1088" y="264"/>
			<point x="1150" y="392" type="curve" smooth="yes"/>
			<point x="1164" y="417"/>
			<point x="1171" y="420"/>
			<point x="1204" y="405" type="curve" smooth="yes"/>
			<point x="1315" y="351" type="line" smooth="yes"/>
			<point x="1342" y="338"/>
			<point x="1346" y="331"/>
		</contour>
	</outline>
</glyph>
<glyph name="l" format="2">
	<advance width="815" height="2310"/>
	<unicode hex="006C"/>
	<anchor x="436" y="1696" name="Anchor-0"/>
	<anchor x="965" y="1040" name="Anchor-1"/>
	<anchor x="250" y="0" name="Anchor-2"/>
	<outline>
		<contour>
			<point x="678" y="1478" type="curve" smooth="yes"/>
			<point x="424" y="302" type="line" smooth="yes"/>
			<point x="421" y="290"/>
			<point x="418" y="272"/>
			<point x="418" y="262" type="curve" smooth="yes"/>
			<point x="418" y="240"/>
			<point x="425" y="234"/>
			<point x="443" y="234" type="curve" smooth="yes"/>
			<point x="479" y="234"/>
			<point x="521" y="278"/>
			<point x="570" y="376" type="curve" smooth="yes"/>
			<point x="589" y="412"/>
			<point x="591" y="423"/>
			<point x="632" y="404" type="curve" smooth="yes"/>
			<point x="736" y="356" type="line" smooth="yes"/>
			<point x="767" y="341"/>
			<point x="776" y="336"/>
			<point x="761" y="304" type="curve" smooth="yes"/>
			<point x="657" y="83"/>
			<point x="464" y="-50"/>
			<point x="251" y="-50" type="curve" smooth="yes"/>
			<point x="88" y="-50"/>
			<point x="-12" y="28"/>
			<point x="-12" y="148" type="curve" smooth="yes"/>
			<point x="-12" y="186"/>
			<point x="-3" y="241"/>
			<point x="6" y="280" type="curve" smooth="yes"/>
			<point x="226" y="1278" type="line" smooth="yes"/>
			<point x="236" y="1325"/>
			<point x="249" y="1350"/>
			<point x="184" y="1350" type="curve" smooth="yes"/>
			<point x="89" y="1350" type="line" smooth="yes"/>
			<point x="48" y="1350"/>
			<point x="38" y="1351"/>
			<point x="38" y="1392" type="curve" smooth="yes"/>
			<point x="38" y="1521" type="line" smooth="yes"/>
			<point x="38" y="1553"/>
			<point x="43" y="1560"/>
			<point x="74" y="1560" type="curve" smooth="yes"/>
			<point x="614" y="1560" type="line" smooth="yes"/>
			<point x="697" y="1560"/>
			<point x="692" y="1539"/>
		</contour>
	</outline>
</glyph>
<glyph name="m" format="2">
	<advance width="2063" height="2310"/>
	<unicode hex="006D"/>
	<anchor x="1218" y="1040" name="Anchor-0"/>
	<anchor x="900" y="0" name="Anchor-1"/>
	<anchor x="900" y="0" name="Anchor-2"/>
	<outline>
		<contour>
			<point x="49" y="1040" type="curve" smooth="yes"/>
			<point x="522" y="1040" type="line" smooth="yes"/>
			<point x="567" y="1040"/>
			<point x="590" y="1035"/>
			<point x="583" y="992" type="curve" smooth="yes"/>
			<point x="566" y="878" type="line" smooth="yes"/>
			<point x="557" y="820"/>
			<point x="577" y="829"/>
			<point x="611" y="875" type="curve" smooth="yes"/>
			<point x="709" y="1007"/>
			<point x="797" y="1078"/>
			<point x="919" y="1078" type="curve" smooth="yes"/>
			<point x="1037" y="1078"/>
			<point x="1115" y="1041"/>
			<point x="1165" y="922" type="curve" smooth="yes"/>
			<point x="1193" y="857"/>
			<point x="1201" y="858"/>
			<point x="1238" y="905" type="curve" smooth="yes"/>
			<point x="1333" y="1023"/>
			<point x="1416" y="1078"/>
			<point x="1532" y="1078" type="curve" smooth="yes"/>
			<point x="1690" y="1078"/>
			<point x="1861" y="1014"/>
			<point x="1754" y="682" type="curve" smooth="yes"/>
			<point x="1634" y="310" type="line" smooth="yes"/>
			<point x="1629" y="294"/>
			<point x="1626" y="280"/>
			<point x="1626" y="272" type="curve" smooth="yes"/>
			<point x="1626" y="252"/>
			<point x="1636" y="244"/>
			<point x="1653" y="244" type="curve" smooth="yes"/>
			<point x="1691" y="244"/>
			<point x="1736" y="282"/>
			<point x="1792" y="396" type="curve" smooth="yes"/>
			<point x="1818" y="433"/>
			<point x="1818" y="431"/>
			<point x="1856" y="413" type="curve" smooth="yes"/>
			<point x="1935" y="372" type="line" smooth="yes"/>
			<point x="1992" y="345"/>
			<point x="1993" y="342"/>
			<point x="1963" y="284" type="curve" smooth="yes"/>
			<point x="1863" y="88"/>
			<point x="1689" y="-40"/>
			<point x="1476" y="-40" type="curve" smooth="yes"/>
			<point x="1296" y="-40"/>
			<point x="1202" y="44"/>
			<point x="1202" y="146" type="curve" smooth="yes"/>
			<point x="1202" y="184"/>
			<point x="1212" y="220"/>
			<point x="1221" y="250" type="curve" smooth="yes"/>
			<point x="1324" y="620" type="line" smooth="yes"/>
			<point x="1362" y="748"/>
			<point x="1359" y="796"/>
			<point x="1307" y="796" type="curve" smooth="yes"/>
			<point x="1242" y="796"/>
			<point x="1140" y="597"/>
			<point x="1084" y="341" type="curve" smooth="yes"/>
			<point x="1019" y="42" type="line" smooth="yes"/>
			<point x="1013" y="14"/>
			<point x="1006" y="0"/>
			<point x="971" y="0" type="curve" smooth="yes"/>
			<point x="629" y="0" type="line" smooth="yes"/>
			<point x="580" y="0"/>
			<point x="578" y="11"/>
			<point x="588" y="55" type="curve" smooth="yes"/>
			<point x="749" y="676" type="line" smooth="yes"/>
			<point x="778" y="787"/>
			<point x="750" y="796"/>
			<point x="716" y="796" type="curve" smooth="yes"/>
			<point x="661" y="796"/>
			<point x="540" y="596"/>
			<point x="484" y="339" type="curve" smooth="yes"/>
			<point x="421" y="52" type="line" smooth="yes"/>
			<point x="413" y="18"/>
			<point x="402" y="0"/>
			<point x="359" y="0" type="curve" smooth="yes"/>
			<point x="69" y="0" type="line" smooth="yes"/>
			<point x="-1" y="0"/>
			<point x="-4" y="14"/>
			<point x="8" y="66" type="curve" smooth="yes"/>
			<point x="172" y="772" type="line" smooth="yes"/>
			<point x="183" y="819"/>
			<point x="176" y="830"/>
			<point x="113" y="830" type="curve" smooth="yes"/>
			<point x="63" y="830" type="line" smooth="yes"/>
			<point x="11" y="830"/>
			<point x="3" y="832"/>
			<point x="3" y="884" type="curve" smooth="yes"/>
			<point x="3" y="988" type="line" smooth="yes"/>
			<point x="3" y="1032"/>
			<point x="5" y="1040"/>
		</contour>
	</outline>
</glyph>
<glyph name="n" format="2">
	<advance width="1446" height="2310"/>
	<unicode hex="006E"/>
	<anchor x="720" y="1040" name="Anchor-0"/>
	<anchor x="600" y="0" name="Anchor-1"/>
	<anchor x="600" y="0" name="Anchor-2"/>
	<outline>
		<contour>
			<point x="43" y="1040" type="curve" smooth="yes"/>
			<point x="554" y="1040" type="line" smooth="yes"/>
			<point x="588" y="1040"/>
			<point x="596" y="1032"/>
			<point x="591" y="1002" type="curve" smooth="yes"/>
			<point x="568" y="860" type="line" smooth="yes"/>
			<point x="560" y="809"/>
			<point x="565" y="801"/>
			<point x="602" y="852" type="curve" smooth="yes"/>
			<point x="710" y="1004"/>
			<point x="779" y="1078"/>
			<point x="970" y="1078" type="curve" smooth="yes"/>
			<point x="1148" y="1078"/>
			<point x="1277" y="978"/>
			<point x="1182" y="682" type="curve" smooth="yes"/>
			<point x="1062" y="310" type="line" smooth="yes"/>
			<point x="1057" y="294"/>
			<point x="1054" y="280"/>
			<point x="1054" y="272" type="curve" smooth="yes"/>
			<point x="1054" y="252"/>
			<point x="1063" y="244"/>
			<point x="1080" y="244" type="curve" smooth="yes"/>
			<point x="1118" y="244"/>
			<point x="1164" y="282"/>
			<point x="1219" y="394" type="curve" smooth="yes"/>
			<point x="1240" y="421"/>
			<point x="1252" y="432"/>
			<point x="1283" y="418" type="curve" smooth="yes"/>
			<point x="1377" y="366" type="line" smooth="yes"/>
			<point x="1423" y="344"/>
			<point x="1418" y="338"/>
			<point x="1395" y="293" type="curve" smooth="yes"/>
			<point x="1295" y="92"/>
			<point x="1120" y="-40"/>
			<point x="904" y="-40" type="curve" smooth="yes"/>
			<point x="724" y="-40"/>
			<point x="630" y="44"/>
			<point x="630" y="146" type="curve" smooth="yes"/>
			<point x="630" y="184"/>
			<point x="639" y="220"/>
			<point x="648" y="250" type="curve" smooth="yes"/>
			<point x="752" y="620" type="line" smooth="yes"/>
			<point x="790" y="748"/>
			<point x="774" y="776"/>
			<point x="725" y="776" type="curve" smooth="yes"/>
			<point x="633" y="776"/>
			<point x="541" y="597"/>
			<point x="485" y="341" type="curve" smooth="yes"/>
			<point x="421" y="48" type="line" smooth="yes"/>
			<point x="412" y="7"/>
			<point x="404" y="0"/>
			<point x="357" y="0" type="curve" smooth="yes"/>
			<point x="59" y="0" type="line" smooth="yes"/>
			<point x="-9" y="0"/>
			<point x="-5" y="11"/>
			<point x="7" y="62" type="curve" smooth="yes"/>
			<point x="172" y="774" type="line" smooth="yes"/>
			<point x="183" y="822"/>
			<point x="184" y="830"/>
			<point x="121" y="830" type="curve" smooth="yes"/>
			<point x="50" y="830" type="line" smooth="yes"/>
			<point x="8" y="830"/>
			<point x="3" y="838"/>
			<point x="3" y="878" type="curve" smooth="yes"/>
			<point x="3" y="996" type="line" smooth="yes"/>
			<point x="3" y="1033"/>
			<point x="7" y="1040"/>
		</contour>
	</outline>
</glyph>
<glyph name="o" format="2">
	<advance width="1298" height="2310"/>
	<unicode hex="006F"/>
	<anchor x="717" y="1040" name="Anchor-0"/>
	<anchor x="455" y="0" name="Anchor-1"/>
	<anchor x="455" y="0" name="Anchor-2"/>
	<outline>
		<contour>
			<point x="-12" y="430" type="curve" smooth="yes"/>
			<point x="-12" y="810"/>
			<point x="358" y="1060"/>
			<point x="670" y="1060" type="curve" smooth="yes"/>
			<point x="961" y="1060"/>
			<point x="1196" y="930"/>
			<point x="1196" y="610" type="curve" smooth="yes"/>
			<point x="1196" y="230"/>
			<point x="866" y="-20"/>
			<point x="523" y="-20" type="curve" smooth="yes"/>
			<point x="204" y="-20"/>
			<point x="-12" y="110"/>
		</contour>
		<contour>
			<point x="411" y="320" type="curve" smooth="yes"/>
			<point x="411" y="212"/>
			<point x="446" y="180"/>
			<point x="516" y="180" type="curve" smooth="yes"/>
			<point x="613" y="180"/>
			<point x="772" y="412"/>
			<point x="772" y="680" type="curve" smooth="yes"/>
			<point x="772" y="798"/>
			<point x="738" y="860"/>
			<point x="677" y="860" type="curve" smooth="yes"/>
			<point x="552" y="860"/>
			<point x="411" y="588"/>
		</contour>
	</outline>
</glyph>
<glyph name="p" format="2">
	<advance width="1314" height="2310"/>
	<unicode hex="0070"/>
	<anchor x="957" y="1040" name="Anchor-0"/>
	<anchor x="737" y="0" name="Anchor-1"/>
	<anchor x="737" y="0" name="Anchor-2"/>
	<outline>
		<contour>
			<point x="43" y="1040" type="curve" smooth="yes"/>
			<point x="529" y="1040" type="line" smooth="yes"/>
			<point x="560" y="1040"/>
			<point x="573" y="1038"/>
			<point x="564" y="1008" type="curve" smooth="yes"/>
			<point x="545" y="940" type="line" smooth="yes"/>
			<point x="533" y="898"/>
			<point x="535" y="887"/>
			<point x="574" y="931" type="curve" smooth="yes"/>
			<point x="653" y="1020"/>
			<point x="753" y="1078"/>
			<point x="893" y="1078" type="curve" smooth="yes"/>
			<point x="1085" y="1078"/>
			<point x="1250" y="958"/>
			<point x="1250" y="658" type="curve" smooth="yes"/>
			<point x="1250" y="218"/>
			<point x="904" y="-40"/>
			<point x="682" y="-40" type="curve" smooth="yes"/>
			<point x="586" y="-40"/>
			<point x="508" y="-8"/>
			<point x="456" y="57" type="curve" smooth="yes"/>
			<point x="423" y="97"/>
			<point x="412" y="79"/>
			<point x="403" y="40" type="curve" smooth="yes"/>
			<point x="299" y="-448" type="line" smooth="yes"/>
			<point x="289" y="-492"/>
			<point x="282" y="-500"/>
			<point x="232" y="-500" type="curve" smooth="yes"/>
			<point x="-49" y="-500" type="line" smooth="yes"/>
			<point x="-122" y="-500"/>
			<point x="-120" y="-480"/>
			<point x="-108" y="-426" type="curve" smooth="yes"/>
			<point x="167" y="786" type="line" smooth="yes"/>
			<point x="175" y="821"/>
			<point x="176" y="830"/>
			<point x="131" y="830" type="curve" smooth="yes"/>
			<point x="43" y="830" type="line" smooth="yes"/>
			<point x="-1" y="830"/>
			<point x="-3" y="838"/>
			<point x="-3" y="882" type="curve" smooth="yes"/>
			<point x="-3" y="998" type="line" smooth="yes"/>
			<point x="-3" y="1037"/>
			<point x="7" y="1040"/>
		</contour>
		<contour>
			<point x="486" y="398" type="curve" smooth="yes"/>
			<point x="486" y="288"/>
			<point x="504" y="198"/>
			<point x="555" y="198" type="curve" smooth="yes"/>
			<point x="669" y="198"/>
			<point x="787" y="430"/>
			<point x="787" y="678" type="curve" smooth="yes"/>
			<point x="787" y="806"/>
			<point x="762" y="850"/>
			<point x="707" y="850" type="curve" smooth="yes"/>
			<point x="631" y="850"/>
			<point x="486" y="666"/>
		</contour>
	</outline>
</glyph>
<glyph name="q" format="2">
	<advance width="1241" height="2310"/>
	<unicode hex="0071"/>
	<anchor x="675" y="1040" name="Anchor-0"/>
	<anchor x="325" y="0" name="Anchor-1"/>
	<anchor x="325" y="0" name="Anchor-2"/>
	<outline>
		<contour>
			<point x="-22" y="380" type="curve" smooth="yes"/>
			<point x="-22" y="820"/>
			<point x="325" y="1078"/>
			<point x="547" y="1078" type="curve" smooth="yes"/>
			<point x="660" y="1078"/>
			<point x="735" y="1031"/>
			<point x="785" y="944" type="curve" smooth="yes"/>
			<point x="808" y="904"/>
			<point x="819" y="893"/>
			<point x="830" y="944" type="curve" smooth="yes"/>
			<point x="844" y="1004" type="line" smooth="yes"/>
			<point x="852" y="1038"/>
			<point x="860" y="1040"/>
			<point x="898" y="1040" type="curve" smooth="yes"/>
			<point x="1165" y="1040" type="line" smooth="yes"/>
			<point x="1221" y="1040"/>
			<point x="1224" y="1035"/>
			<point x="1213" y="990" type="curve" smooth="yes"/>
			<point x="933" y="-230" type="line" smooth="yes"/>
			<point x="923" y="-273"/>
			<point x="915" y="-290"/>
			<point x="971" y="-290" type="curve" smooth="yes"/>
			<point x="1053" y="-290" type="line" smooth="yes"/>
			<point x="1093" y="-290"/>
			<point x="1097" y="-299"/>
			<point x="1097" y="-340" type="curve" smooth="yes"/>
			<point x="1097" y="-445" type="line" smooth="yes"/>
			<point x="1097" y="-494"/>
			<point x="1091" y="-500"/>
			<point x="1043" y="-500" type="curve" smooth="yes"/>
			<point x="559" y="-500" type="line" smooth="yes"/>
			<point x="502" y="-500"/>
			<point x="495" y="-493"/>
			<point x="505" y="-444" type="curve" smooth="yes"/>
			<point x="605" y="8" type="line" smooth="yes"/>
			<point x="613" y="43"/>
			<point x="603" y="60"/>
			<point x="547" y="22" type="curve" smooth="yes"/>
			<point x="488" y="-17"/>
			<point x="416" y="-40"/>
			<point x="330" y="-40" type="curve" smooth="yes"/>
			<point x="142" y="-40"/>
			<point x="-22" y="80"/>
		</contour>
		<contour>
			<point x="742" y="640" type="curve" smooth="yes"/>
			<point x="742" y="750"/>
			<point x="734" y="850"/>
			<point x="665" y="850" type="curve" smooth="yes"/>
			<point x="569" y="850"/>
			<point x="436" y="608"/>
			<point x="436" y="360" type="curve" smooth="yes"/>
			<point x="436" y="232"/>
			<point x="459" y="188"/>
			<point x="513" y="188" type="curve" smooth="yes"/>
			<point x="587" y="188"/>
			<point x="742" y="372"/>
		</contour>
	</outline>
</glyph>
<glyph name="r" format="2">
	<advance width="1181" height="2310"/>
	<unicode hex="0072"/>
	<anchor x="714" y="1040" name="Anchor-0"/>
	<anchor x="237" y="0" name="Anchor-1"/>
	<anchor x="237" y="0" name="Anchor-2"/>
	<outline>
		<contour>
			<point x="37" y="1040" type="curve" smooth="yes"/>
			<point x="520" y="1040" type="line" smooth="yes"/>
			<point x="571" y="1040"/>
			<point x="595" y="1034"/>
			<point x="585" y="984" type="curve" smooth="yes"/>
			<point x="576" y="938" type="line" smooth="yes"/>
			<point x="567" y="891"/>
			<point x="562" y="869"/>
			<point x="606" y="919" type="curve" smooth="yes"/>
			<point x="704" y="1034"/>
			<point x="782" y="1066"/>
			<point x="895" y="1066" type="curve" smooth="yes"/>
			<point x="1019" y="1066"/>
			<point x="1141" y="974"/>
			<point x="1141" y="838" type="curve" smooth="yes"/>
			<point x="1141" y="674"/>
			<point x="1029" y="560"/>
			<point x="870" y="560" type="curve" smooth="yes"/>
			<point x="752" y="560"/>
			<point x="680" y="648"/>
			<point x="681" y="730" type="curve" smooth="yes"/>
			<point x="681" y="768"/>
			<point x="693" y="786"/>
			<point x="693" y="800" type="curve" smooth="yes"/>
			<point x="693" y="808"/>
			<point x="688" y="810"/>
			<point x="684" y="810" type="curve" smooth="yes"/>
			<point x="653" y="810"/>
			<point x="553" y="664"/>
			<point x="494" y="387" type="curve" smooth="yes"/>
			<point x="425" y="70" type="line" smooth="yes"/>
			<point x="414" y="18"/>
			<point x="411" y="0"/>
			<point x="347" y="0" type="curve" smooth="yes"/>
			<point x="63" y="0" type="line" smooth="yes"/>
			<point x="6" y="0"/>
			<point x="-5" y="6"/>
			<point x="5" y="50" type="curve" smooth="yes"/>
			<point x="174" y="774" type="line" smooth="yes"/>
			<point x="185" y="822"/>
			<point x="184" y="830"/>
			<point x="125" y="830" type="curve" smooth="yes"/>
			<point x="49" y="830" type="line" smooth="yes"/>
			<point x="5" y="830"/>
			<point x="3" y="838"/>
			<point x="3" y="882" type="curve" smooth="yes"/>
			<point x="3" y="999" type="line" smooth="yes"/>
			<point x="3" y="1030"/>
			<point x="7" y="1040"/>
		</contour>
	</outline>
</glyph>
<glyph name="s" format="2">
	<advance width="1050" height="2310"/>
	<unicode hex="0073"/>
	<anchor x="599" y="1040" name="Anchor-0"/>
	<anchor x="370" y="0" name="Anchor-1"/>
	<anchor x="370" y="0" name="Anchor-2"/>
	<outline>
		<contour>
			<point x="534" y="265" type="curve" smooth="yes"/>
			<point x="534" y="419"/>
			<point x="41" y="488"/>
			<point x="41" y="740" type="curve" smooth="yes"/>
			<point x="41" y="978"/>
			<point x="281" y="1084"/>
			<point x="531" y="1084" type="curve" smooth="yes"/>
			<point x="865" y="1084"/>
			<point x="1017" y="934"/>
			<point x="1017" y="802" type="curve" smooth="yes"/>
			<point x="1017" y="702"/>
			<point x="943" y="624"/>
			<point x="819" y="624" type="curve" smooth="yes"/>
			<point x="732" y="624"/>
			<point x="650" y="690"/>
			<point x="650" y="780" type="curve" smooth="yes"/>
			<point x="650" y="838"/>
			<point x="671" y="848"/>
			<point x="671" y="872" type="curve" smooth="yes"/>
			<point x="671" y="892"/>
			<point x="614" y="904"/>
			<point x="565" y="904" type="curve" smooth="yes"/>
			<point x="478" y="904"/>
			<point x="443" y="866"/>
			<point x="443" y="812" type="curve" smooth="yes"/>
			<point x="443" y="632"/>
			<point x="970" y="594"/>
			<point x="970" y="318" type="curve" smooth="yes"/>
			<point x="970" y="50"/>
			<point x="650" y="-44"/>
			<point x="397" y="-44" type="curve" smooth="yes"/>
			<point x="155" y="-44"/>
			<point x="-105" y="62"/>
			<point x="-105" y="282" type="curve" smooth="yes"/>
			<point x="-105" y="398"/>
			<point x="-7" y="492"/>
			<point x="123" y="492" type="curve" smooth="yes"/>
			<point x="226" y="492"/>
			<point x="300" y="428"/>
			<point x="300" y="334" type="curve" smooth="yes"/>
			<point x="300" y="228"/>
			<point x="242" y="218"/>
			<point x="242" y="198" type="curve" smooth="yes"/>
			<point x="242" y="180"/>
			<point x="326" y="156"/>
			<point x="411" y="156" type="curve" smooth="yes"/>
			<point x="465" y="156"/>
			<point x="534" y="183"/>
		</contour>
	</outline>
</glyph>
<glyph name="t" format="2">
	<advance width="906" height="2310"/>
	<unicode hex="0074"/>
	<anchor x="650" y="1277" name="Anchor-0"/>
	<anchor x="809" y="1153" name="Anchor-1"/>
	<anchor x="345" y="0" name="Anchor-2"/>
	<outline>
		<contour>
			<point x="47" y="1040" type="curve" smooth="yes"/>
			<point x="189" y="1040" type="line" smooth="yes"/>
			<point x="228" y="1040"/>
			<point x="224" y="1048"/>
			<point x="231" y="1078" type="curve" smooth="yes"/>
			<point x="258" y="1192" type="line" smooth="yes"/>
			<point x="264" y="1215"/>
			<point x="271" y="1222"/>
			<point x="297" y="1223" type="curve" smooth="yes"/>
			<point x="417" y="1229"/>
			<point x="488" y="1265"/>
			<point x="525" y="1291" type="curve" smooth="yes"/>
			<point x="563" y="1318"/>
			<point x="556" y="1316"/>
			<point x="617" y="1316" type="curve" smooth="yes"/>
			<point x="666" y="1316"/>
			<point x="684" y="1314"/>
			<point x="675" y="1278" type="curve" smooth="yes"/>
			<point x="627" y="1084" type="line" smooth="yes"/>
			<point x="618" y="1048"/>
			<point x="616" y="1040"/>
			<point x="659" y="1040" type="curve" smooth="yes"/>
			<point x="803" y="1040" type="line" smooth="yes"/>
			<point x="832" y="1040"/>
			<point x="847" y="1038"/>
			<point x="847" y="1006" type="curve" smooth="yes"/>
			<point x="847" y="884" type="line" smooth="yes"/>
			<point x="847" y="838"/>
			<point x="845" y="830"/>
			<point x="799" y="830" type="curve" smooth="yes"/>
			<point x="599" y="830" type="line" smooth="yes"/>
			<point x="567" y="830"/>
			<point x="562" y="820"/>
			<point x="555" y="792" type="curve" smooth="yes"/>
			<point x="439" y="324" type="line" smooth="yes"/>
			<point x="429" y="286"/>
			<point x="420" y="236"/>
			<point x="463" y="236" type="curve" smooth="yes"/>
			<point x="504" y="236"/>
			<point x="544" y="285"/>
			<point x="593" y="378" type="curve" smooth="yes"/>
			<point x="608" y="405"/>
			<point x="618" y="422"/>
			<point x="651" y="405" type="curve" smooth="yes"/>
			<point x="747" y="355" type="line" smooth="yes"/>
			<point x="784" y="336"/>
			<point x="783" y="331"/>
			<point x="767" y="290" type="curve" smooth="yes"/>
			<point x="685" y="79"/>
			<point x="508" y="-40"/>
			<point x="301" y="-40" type="curve" smooth="yes"/>
			<point x="89" y="-40"/>
			<point x="-5" y="60"/>
			<point x="37" y="252" type="curve" smooth="yes"/>
			<point x="164" y="782" type="line" smooth="yes"/>
			<point x="171" y="812"/>
			<point x="178" y="830"/>
			<point x="135" y="830" type="curve" smooth="yes"/>
			<point x="45" y="830" type="line" smooth="yes"/>
			<point x="6" y="830"/>
			<point x="-15" y="832"/>
			<point x="-15" y="875" type="curve" smooth="yes"/>
			<point x="-15" y="995" type="line" smooth="yes"/>
			<point x="-15" y="1039"/>
			<point x="7" y="1040"/>
		</contour>
	</outline>
</glyph>
<glyph name="u" format="2">
	<advance width="1573" height="2310"/>
	<unicode hex="0075"/>
	<anchor x="899" y="1040" name="Anchor-0"/>
	<anchor x="532" y="0" name="Anchor-1"/>
	<anchor x="532" y="0" name="Anchor-2"/>
	<anchor x="1352" y="50" name="Anchor-3"/>
	<outline>
		<contour>
			<point x="3" y="743" type="curve" smooth="yes"/>
			<point x="102" y="946"/>
			<point x="276" y="1080"/>
			<point x="478" y="1080" type="curve" smooth="yes"/>
			<point x="693" y="1080"/>
			<point x="751" y="958"/>
			<point x="706" y="790" type="curve" smooth="yes"/>
			<point x="608" y="420" type="line" smooth="yes"/>
			<point x="572" y="292"/>
			<point x="550" y="214"/>
			<point x="615" y="214" type="curve" smooth="yes"/>
			<point x="705" y="214"/>
			<point x="818" y="462"/>
			<point x="875" y="728" type="curve" smooth="yes"/>
			<point x="928" y="976" type="line" smooth="yes"/>
			<point x="936" y="1014"/>
			<point x="940" y="1040"/>
			<point x="987" y="1040" type="curve" smooth="yes"/>
			<point x="1289" y="1040" type="line" smooth="yes"/>
			<point x="1347" y="1040"/>
			<point x="1360" y="1040"/>
			<point x="1348" y="994" type="curve" smooth="yes"/>
			<point x="1168" y="302" type="line" smooth="yes"/>
			<point x="1160" y="272"/>
			<point x="1153" y="234"/>
			<point x="1189" y="234" type="curve" smooth="yes"/>
			<point x="1227" y="234"/>
			<point x="1269" y="278"/>
			<point x="1320" y="374" type="curve" smooth="yes"/>
			<point x="1335" y="402"/>
			<point x="1348" y="422"/>
			<point x="1382" y="406" type="curve" smooth="yes"/>
			<point x="1469" y="363" type="line" smooth="yes"/>
			<point x="1507" y="345"/>
			<point x="1527" y="334"/>
			<point x="1508" y="296" type="curve" smooth="yes"/>
			<point x="1403" y="80"/>
			<point x="1231" y="-50"/>
			<point x="1014" y="-50" type="curve" smooth="yes"/>
			<point x="867" y="-50"/>
			<point x="775" y="39"/>
			<point x="774" y="150" type="curve" smooth="yes"/>
			<point x="774" y="170" type="line" smooth="yes"/>
			<point x="774" y="187"/>
			<point x="762" y="185"/>
			<point x="745" y="164" type="curve" smooth="yes"/>
			<point x="645" y="37"/>
			<point x="550" y="-38"/>
			<point x="424" y="-38" type="curve" smooth="yes"/>
			<point x="281" y="-38"/>
			<point x="109" y="28"/>
			<point x="219" y="358" type="curve"/>
			<point x="332" y="730" type="line" smooth="yes"/>
			<point x="341" y="760"/>
			<point x="346" y="796"/>
			<point x="314" y="796" type="curve" smooth="yes"/>
			<point x="278" y="796"/>
			<point x="238" y="759"/>
			<point x="183" y="648" type="curve" smooth="yes"/>
			<point x="163" y="609"/>
			<point x="163" y="608"/>
			<point x="121" y="628" type="curve" smooth="yes"/>
			<point x="13" y="679" type="line" smooth="yes"/>
			<point x="-26" y="697"/>
			<point x="-15" y="706"/>
		</contour>
	</outline>
</glyph>
<glyph name="v" format="2">
	<advance width="1274" height="2310"/>
	<unicode hex="0076"/>
	<anchor x="903" y="1040" name="Anchor-0"/>
	<anchor x="567" y="0" name="Anchor-1"/>
	<anchor x="567" y="0" name="Anchor-2"/>
	<outline>
		<contour>
			<point x="862" y="684" type="curve" smooth="yes"/>
			<point x="745" y="684"/>
			<point x="676" y="750"/>
			<point x="677" y="866" type="curve" smooth="yes"/>
			<point x="678" y="986"/>
			<point x="768" y="1098"/>
			<point x="956" y="1098" type="curve" smooth="yes"/>
			<point x="1118" y="1098"/>
			<point x="1231" y="1000"/>
			<point x="1231" y="818" type="curve" smooth="yes"/>
			<point x="1231" y="471"/>
			<point x="931" y="277"/>
			<point x="374" y="-11" type="curve" smooth="yes"/>
			<point x="337" y="-29"/>
			<point x="317" y="-49"/>
			<point x="280" y="-28" type="curve" smooth="yes"/>
			<point x="170" y="34" type="line" smooth="yes"/>
			<point x="151" y="45"/>
			<point x="151" y="48"/>
			<point x="158" y="76" type="curve" smooth="yes"/>
			<point x="169" y="119"/>
			<point x="190" y="177"/>
			<point x="190" y="240" type="curve" smooth="yes"/>
			<point x="190" y="434"/>
			<point x="0" y="588"/>
			<point x="0" y="776" type="curve" smooth="yes"/>
			<point x="0" y="969"/>
			<point x="215" y="1019"/>
			<point x="439" y="1119" type="curve" smooth="yes"/>
			<point x="460" y="1129"/>
			<point x="460" y="1132"/>
			<point x="470" y="1109" type="curve" smooth="yes"/>
			<point x="522" y="979" type="line" smooth="yes"/>
			<point x="531" y="957"/>
			<point x="532" y="958"/>
			<point x="514" y="945" type="curve" smooth="yes"/>
			<point x="478" y="919"/>
			<point x="436" y="877"/>
			<point x="436" y="820" type="curve" smooth="yes"/>
			<point x="436" y="681"/>
			<point x="622" y="633"/>
			<point x="631" y="387" type="curve" smooth="yes"/>
			<point x="632" y="371"/>
			<point x="631" y="361"/>
			<point x="634" y="356" type="curve" smooth="yes"/>
			<point x="639" y="348"/>
			<point x="647" y="356"/>
			<point x="668" y="369" type="curve" smooth="yes"/>
			<point x="885" y="508"/>
			<point x="994" y="602"/>
			<point x="994" y="716" type="curve" smooth="yes"/>
			<point x="994" y="722"/>
			<point x="991" y="725"/>
			<point x="986" y="725" type="curve" smooth="yes"/>
			<point x="966" y="725"/>
			<point x="947" y="684"/>
		</contour>
	</outline>
</glyph>
<glyph name="w" format="2">
	<advance width="2127" height="2310"/>
	<unicode hex="0077"/>
	<anchor x="1086" y="1040" name="Anchor-0"/>
	<anchor x="907" y="0" name="Anchor-1"/>
	<anchor x="907" y="0" name="Anchor-2"/>
	<outline>
		<contour>
			<point x="23" y="747" type="curve" smooth="yes"/>
			<point x="123" y="946"/>
			<point x="298" y="1078"/>
			<point x="513" y="1078" type="curve" smooth="yes"/>
			<point x="693" y="1078"/>
			<point x="787" y="994"/>
			<point x="787" y="892" type="curve" smooth="yes"/>
			<point x="787" y="854"/>
			<point x="778" y="818"/>
			<point x="769" y="788" type="curve" smooth="yes"/>
			<point x="673" y="438" type="line" smooth="yes"/>
			<point x="635" y="310"/>
			<point x="630" y="232"/>
			<point x="692" y="232" type="curve" smooth="yes"/>
			<point x="810" y="232"/>
			<point x="964" y="448"/>
			<point x="1017" y="707" type="curve" smooth="yes"/>
			<point x="1074" y="991" type="line" smooth="yes"/>
			<point x="1082" y="1032"/>
			<point x="1089" y="1040"/>
			<point x="1138" y="1040" type="curve" smooth="yes"/>
			<point x="1448" y="1040" type="line" smooth="yes"/>
			<point x="1515" y="1040"/>
			<point x="1510" y="1030"/>
			<point x="1497" y="973" type="curve" smooth="yes"/>
			<point x="1369" y="418" type="line" smooth="yes"/>
			<point x="1331" y="250"/>
			<point x="1308" y="176"/>
			<point x="1430" y="176" type="curve" smooth="yes"/>
			<point x="1681" y="176"/>
			<point x="1827" y="524"/>
			<point x="1827" y="700" type="curve" smooth="yes"/>
			<point x="1827" y="712"/>
			<point x="1825" y="718"/>
			<point x="1819" y="718" type="curve" smooth="yes"/>
			<point x="1798" y="718"/>
			<point x="1810" y="694"/>
			<point x="1730" y="694" type="curve" smooth="yes"/>
			<point x="1644" y="694"/>
			<point x="1582" y="760"/>
			<point x="1582" y="876" type="curve" smooth="yes"/>
			<point x="1582" y="976"/>
			<point x="1655" y="1068"/>
			<point x="1796" y="1068" type="curve" smooth="yes"/>
			<point x="1910" y="1068"/>
			<point x="2063" y="1000"/>
			<point x="2063" y="798" type="curve" smooth="yes"/>
			<point x="2063" y="498"/>
			<point x="1851" y="-40"/>
			<point x="1403" y="-40" type="curve" smooth="yes"/>
			<point x="1273" y="-40"/>
			<point x="1086" y="-6"/>
			<point x="1008" y="172" type="curve" smooth="yes"/>
			<point x="983" y="229"/>
			<point x="964" y="225"/>
			<point x="914" y="163" type="curve" smooth="yes"/>
			<point x="791" y="27"/>
			<point x="631" y="-40"/>
			<point x="497" y="-40" type="curve" smooth="yes"/>
			<point x="339" y="-40"/>
			<point x="132" y="24"/>
			<point x="237" y="356" type="curve" smooth="yes"/>
			<point x="355" y="728" type="line" smooth="yes"/>
			<point x="360" y="744"/>
			<point x="363" y="758"/>
			<point x="363" y="766" type="curve" smooth="yes"/>
			<point x="363" y="786"/>
			<point x="354" y="794"/>
			<point x="337" y="794" type="curve" smooth="yes"/>
			<point x="299" y="794"/>
			<point x="254" y="757"/>
			<point x="199" y="645" type="curve" smooth="yes"/>
			<point x="178" y="603"/>
			<point x="176" y="608"/>
			<point x="133" y="628" type="curve" smooth="yes"/>
			<point x="39" y="673" type="line" smooth="yes"/>
			<point x="-7" y="695"/>
			<point x="0" y="702"/>
		</contour>
	</outline>
</glyph>
<glyph name="x" format="2">
	<advance width="1430" height="2310"/>
	<unicode hex="0078"/>
	<anchor x="914" y="1040" name="Anchor-0"/>
	<anchor x="467" y="2" name="Anchor-1"/>
	<anchor x="467" y="2" name="Anchor-2"/>
	<outline>
		<contour>
			<point x="-105" y="268" type="curve" smooth="yes"/>
			<point x="-105" y="416"/>
			<point x="11" y="538"/>
			<point x="131" y="538" type="curve" smooth="yes"/>
			<point x="257" y="538"/>
			<point x="318" y="470"/>
			<point x="318" y="360" type="curve" smooth="yes"/>
			<point x="318" y="236"/>
			<point x="228" y="226"/>
			<point x="228" y="184" type="curve" smooth="yes"/>
			<point x="228" y="164"/>
			<point x="240" y="160"/>
			<point x="262" y="160" type="curve" smooth="yes"/>
			<point x="320" y="160"/>
			<point x="368" y="244"/>
			<point x="451" y="373" type="curve" smooth="yes"/>
			<point x="474" y="409"/>
			<point x="471" y="424"/>
			<point x="462" y="474" type="curve" smooth="yes"/>
			<point x="444" y="566"/>
			<point x="427" y="654"/>
			<point x="404" y="725" type="curve" smooth="yes"/>
			<point x="397" y="746"/>
			<point x="382" y="780"/>
			<point x="352" y="780" type="curve" smooth="yes"/>
			<point x="319" y="780"/>
			<point x="285" y="746"/>
			<point x="243" y="662" type="curve" smooth="yes"/>
			<point x="228" y="632"/>
			<point x="230" y="621"/>
			<point x="201" y="639" type="curve" smooth="yes"/>
			<point x="79" y="710" type="line" smooth="yes"/>
			<point x="49" y="727"/>
			<point x="59" y="736"/>
			<point x="73" y="768" type="curve" smooth="yes"/>
			<point x="146" y="932"/>
			<point x="287" y="1084"/>
			<point x="491" y="1084" type="curve" smooth="yes"/>
			<point x="667" y="1084"/>
			<point x="750" y="953"/>
			<point x="772" y="857" type="curve" smooth="yes"/>
			<point x="773" y="855"/>
			<point x="773" y="852"/>
			<point x="773" y="850" type="curve" smooth="yes"/>
			<point x="780" y="815"/>
			<point x="792" y="829"/>
			<point x="807" y="850" type="curve" smooth="yes"/>
			<point x="894" y="976"/>
			<point x="952" y="1080"/>
			<point x="1097" y="1080" type="curve" smooth="yes"/>
			<point x="1290" y="1080"/>
			<point x="1427" y="952"/>
			<point x="1427" y="768" type="curve" smooth="yes"/>
			<point x="1427" y="620"/>
			<point x="1321" y="518"/>
			<point x="1201" y="518" type="curve" smooth="yes"/>
			<point x="1088" y="518"/>
			<point x="999" y="576"/>
			<point x="999" y="686" type="curve" smooth="yes"/>
			<point x="999" y="810"/>
			<point x="1089" y="820"/>
			<point x="1089" y="862" type="curve" smooth="yes"/>
			<point x="1089" y="882"/>
			<point x="1077" y="886"/>
			<point x="1055" y="886" type="curve" smooth="yes"/>
			<point x="995" y="886"/>
			<point x="948" y="798"/>
			<point x="862" y="647" type="curve" smooth="yes"/>
			<point x="841" y="610"/>
			<point x="830" y="600"/>
			<point x="840" y="549" type="curve" smooth="yes"/>
			<point x="855" y="471"/>
			<point x="874" y="391"/>
			<point x="901" y="307" type="curve" smooth="yes"/>
			<point x="908" y="286"/>
			<point x="926" y="256"/>
			<point x="954" y="256" type="curve" smooth="yes"/>
			<point x="990" y="256"/>
			<point x="1032" y="303"/>
			<point x="1076" y="384" type="curve" smooth="yes"/>
			<point x="1096" y="420"/>
			<point x="1094" y="440"/>
			<point x="1131" y="414" type="curve" smooth="yes"/>
			<point x="1228" y="349" type="line" smooth="yes"/>
			<point x="1255" y="331"/>
			<point x="1261" y="330"/>
			<point x="1246" y="296" type="curve" smooth="yes"/>
			<point x="1172" y="127"/>
			<point x="1007" y="-40"/>
			<point x="817" y="-40" type="curve" smooth="yes"/>
			<point x="647" y="-40"/>
			<point x="573" y="43"/>
			<point x="539" y="126" type="curve" smooth="yes"/>
			<point x="534" y="140"/>
			<point x="530" y="150"/>
			<point x="526" y="158" type="curve" smooth="yes"/>
			<point x="512" y="189"/>
			<point x="511" y="172"/>
			<point x="478" y="131" type="curve" smooth="yes"/>
			<point x="397" y="31"/>
			<point x="343" y="-44"/>
			<point x="220" y="-44" type="curve" smooth="yes"/>
			<point x="32" y="-44"/>
			<point x="-105" y="84"/>
		</contour>
	</outline>
</glyph>
<glyph name="y" format="2">
	<advance width="1347" height="2310"/>
	<unicode hex="0079"/>
	<anchor x="793" y="1040" name="Anchor-0"/>
	<anchor x="-15" y="-565" name="Anchor-1"/>
	<anchor x="-15" y="-565" name="Anchor-2"/>
	<outline>
		<contour>
			<point x="968" y="696" type="curve" smooth="yes"/>
			<point x="869" y="696"/>
			<point x="802" y="792"/>
			<point x="802" y="888" type="curve" smooth="yes"/>
			<point x="802" y="1028"/>
			<point x="920" y="1090"/>
			<point x="1036" y="1090" type="curve" smooth="yes"/>
			<point x="1184" y="1090"/>
			<point x="1296" y="962"/>
			<point x="1296" y="800" type="curve" smooth="yes"/>
			<point x="1296" y="320"/>
			<point x="749" y="-530"/>
			<point x="198" y="-530" type="curve" smooth="yes"/>
			<point x="-112" y="-530"/>
			<point x="-198" y="-306"/>
			<point x="-198" y="-132" type="curve" smooth="yes"/>
			<point x="-198" y="20"/>
			<point x="-100" y="154"/>
			<point x="57" y="154" type="curve" smooth="yes"/>
			<point x="157" y="154"/>
			<point x="246" y="88"/>
			<point x="245" y="-34" type="curve" smooth="yes"/>
			<point x="243" y="-216"/>
			<point x="113" y="-220"/>
			<point x="112" y="-270" type="curve" smooth="yes"/>
			<point x="111" y="-316"/>
			<point x="138" y="-336"/>
			<point x="198" y="-336" type="curve" smooth="yes"/>
			<point x="286" y="-336"/>
			<point x="383" y="-300"/>
			<point x="479" y="-239" type="curve" smooth="yes"/>
			<point x="504" y="-223"/>
			<point x="503" y="-222"/>
			<point x="490" y="-194" type="curve" smooth="yes"/>
			<point x="352" y="91"/>
			<point x="356" y="599"/>
			<point x="312" y="735" type="curve" smooth="yes"/>
			<point x="305" y="756"/>
			<point x="299" y="780"/>
			<point x="267" y="780" type="curve" smooth="yes"/>
			<point x="226" y="780"/>
			<point x="178" y="718"/>
			<point x="117" y="618" type="curve" smooth="yes"/>
			<point x="106" y="600"/>
			<point x="96" y="597"/>
			<point x="77" y="608" type="curve" smooth="yes"/>
			<point x="-38" y="678" type="line" smooth="yes"/>
			<point x="-61" y="690"/>
			<point x="-52" y="696"/>
			<point x="-41" y="718" type="curve" smooth="yes"/>
			<point x="64" y="924"/>
			<point x="212" y="1084"/>
			<point x="426" y="1084" type="curve" smooth="yes"/>
			<point x="620" y="1084"/>
			<point x="675" y="1010"/>
			<point x="709" y="895" type="curve" smooth="yes"/>
			<point x="751" y="752"/>
			<point x="722" y="438"/>
			<point x="802" y="159" type="curve" smooth="yes"/>
			<point x="816" y="111"/>
			<point x="817" y="112"/>
			<point x="843" y="148" type="curve" smooth="yes"/>
			<point x="983" y="348"/>
			<point x="1070" y="552"/>
			<point x="1070" y="718" type="curve" smooth="yes"/>
			<point x="1070" y="730"/>
			<point x="1069" y="736"/>
			<point x="1063" y="736" type="curve" smooth="yes"/>
			<point x="1043" y="736"/>
			<point x="1044" y="696"/>
		</contour>
	</outline>
</glyph>
<glyph name="z" format="2">
	<advance width="1226" height="2310"/>
	<unicode hex="007A"/>
	<anchor x="677" y="1040" name="Anchor-0"/>
	<anchor x="399" y="0" name="Anchor-1"/>
	<anchor x="399" y="0" name="Anchor-2"/>
	<outline>
		<contour>
			<point x="-64" y="695" type="curve" smooth="yes"/>
			<point x="54" y="825"/>
			<point x="276" y="1080"/>
			<point x="428" y="1080" type="curve" smooth="yes"/>
			<point x="616" y="1080"/>
			<point x="715" y="942"/>
			<point x="816" y="942" type="curve" smooth="yes"/>
			<point x="892" y="942"/>
			<point x="997" y="1005"/>
			<point x="1064" y="1051" type="curve" smooth="yes"/>
			<point x="1090" y="1068"/>
			<point x="1089" y="1072"/>
			<point x="1109" y="1049" type="curve" smooth="yes"/>
			<point x="1184" y="960" type="line" smooth="yes"/>
			<point x="1209" y="930"/>
			<point x="1209" y="930"/>
			<point x="1177" y="906" type="curve" smooth="yes"/>
			<point x="594" y="450" type="line" smooth="yes"/>
			<point x="560" y="423"/>
			<point x="538" y="415"/>
			<point x="541" y="405" type="curve" smooth="yes"/>
			<point x="545" y="392"/>
			<point x="560" y="407"/>
			<point x="599" y="416" type="curve" smooth="yes"/>
			<point x="621" y="421"/>
			<point x="641" y="424"/>
			<point x="655" y="424" type="curve" smooth="yes"/>
			<point x="771" y="424"/>
			<point x="786" y="380"/>
			<point x="833" y="380" type="curve" smooth="yes"/>
			<point x="902" y="380"/>
			<point x="945" y="428"/>
			<point x="1002" y="509" type="curve" smooth="yes"/>
			<point x="1020" y="534"/>
			<point x="1022" y="526"/>
			<point x="1045" y="508" type="curve" smooth="yes"/>
			<point x="1148" y="428" type="line" smooth="yes"/>
			<point x="1172" y="410"/>
			<point x="1167" y="409"/>
			<point x="1150" y="383" type="curve" smooth="yes"/>
			<point x="1051" y="234"/>
			<point x="844" y="-40"/>
			<point x="624" y="-40" type="curve" smooth="yes"/>
			<point x="490" y="-40"/>
			<point x="355" y="78"/>
			<point x="272" y="78" type="curve" smooth="yes"/>
			<point x="197" y="78"/>
			<point x="81" y="30"/>
			<point x="9" y="-11" type="curve" smooth="yes"/>
			<point x="-20" y="-27"/>
			<point x="-19" y="-33"/>
			<point x="-40" y="-8" type="curve" smooth="yes"/>
			<point x="-132" y="100" type="line" smooth="yes"/>
			<point x="-149" y="120"/>
			<point x="-149" y="120"/>
			<point x="-127" y="136" type="curve" smooth="yes"/>
			<point x="494" y="621" type="line" smooth="yes"/>
			<point x="511" y="635"/>
			<point x="538" y="646"/>
			<point x="533" y="655" type="curve" smooth="yes"/>
			<point x="528" y="664"/>
			<point x="517" y="645"/>
			<point x="493" y="638" type="curve" smooth="yes"/>
			<point x="477" y="633"/>
			<point x="462" y="630"/>
			<point x="451" y="630" type="curve" smooth="yes"/>
			<point x="354" y="630"/>
			<point x="345" y="686"/>
			<point x="262" y="686" type="curve" smooth="yes"/>
			<point x="204" y="686"/>
			<point x="151" y="646"/>
			<point x="99" y="591" type="curve" smooth="yes"/>
			<point x="73" y="565"/>
			<point x="74" y="555"/>
			<point x="41" y="578" type="curve" smooth="yes"/>
			<point x="-52" y="645" type="line" smooth="yes"/>
			<point x="-83" y="667"/>
			<point x="-91" y="666"/>
		</contour>
	</outline>
</glyph>
<glyph name="braceleft" format="2">
	<advance width="704" height="2310"/>
	<unicode hex="007B"/>
	<outline>
		<contour>
			<point x="452" y="-298" type="curve" smooth="yes"/>
			<point x="190" y="-289"/>
			<point x="-70" y="-233"/>
			<point x="-70" y="-20" type="curve" smooth="yes"/>
			<point x="-70" y="214"/>
			<point x="170" y="304"/>
			<point x="170" y="430" type="curve" smooth="yes"/>
			<point x="170" y="497"/>
			<point x="156" y="515"/>
			<point x="118" y="530" type="curve" smooth="yes"/>
			<point x="96" y="539"/>
			<point x="90" y="547"/>
			<point x="90" y="580" type="curve" smooth="yes"/>
			<point x="90" y="670" type="line" smooth="yes"/>
			<point x="90" y="702"/>
			<point x="92" y="721"/>
			<point x="116" y="729" type="curve" smooth="yes"/>
			<point x="178" y="749"/>
			<point x="262" y="781"/>
			<point x="262" y="852" type="curve" smooth="yes"/>
			<point x="262" y="978"/>
			<point x="210" y="988"/>
			<point x="210" y="1202" type="curve" smooth="yes"/>
			<point x="210" y="1410"/>
			<point x="468" y="1547"/>
			<point x="830" y="1559" type="curve" smooth="yes"/>
			<point x="871" y="1560"/>
			<point x="884" y="1558"/>
			<point x="884" y="1513" type="curve" smooth="yes"/>
			<point x="884" y="1404" type="line" smooth="yes"/>
			<point x="884" y="1350"/>
			<point x="878" y="1348"/>
			<point x="828" y="1345" type="curve" smooth="yes"/>
			<point x="720" y="1339"/>
			<point x="616" y="1311"/>
			<point x="616" y="1204" type="curve" smooth="yes"/>
			<point x="616" y="1072"/>
			<point x="644" y="1102"/>
			<point x="644" y="902" type="curve" smooth="yes"/>
			<point x="644" y="778"/>
			<point x="546" y="701"/>
			<point x="420" y="647" type="curve" smooth="yes"/>
			<point x="372" y="627"/>
			<point x="369" y="606"/>
			<point x="413" y="584" type="curve" smooth="yes"/>
			<point x="471" y="555"/>
			<point x="504" y="502"/>
			<point x="504" y="440" type="curve" smooth="yes"/>
			<point x="504" y="240"/>
			<point x="356" y="220"/>
			<point x="356" y="88" type="curve" smooth="yes"/>
			<point x="356" y="-13"/>
			<point x="397" y="-64"/>
			<point x="478" y="-80" type="curve" smooth="yes"/>
			<point x="518" y="-88"/>
			<point x="544" y="-81"/>
			<point x="544" y="-134" type="curve" smooth="yes"/>
			<point x="544" y="-246" type="line" smooth="yes"/>
			<point x="544" y="-308"/>
			<point x="507" y="-300"/>
		</contour>
	</outline>
</glyph>
<glyph name="bar" format="2">
	<advance width="600" height="2310"/>
	<unicode hex="007C"/>
	<outline>
		<contour>
			<point x="409" y="1560" type="curve" smooth="yes"/>
			<point x="521" y="1560" type="line" smooth="yes"/>
			<point x="605" y="1560"/>
			<point x="592" y="1523"/>
			<point x="578" y="1464" type="curve" smooth="yes"/>
			<point x="131" y="-452" type="line" smooth="yes"/>
			<point x="121" y="-494"/>
			<point x="112" y="-500"/>
			<point x="61" y="-500" type="curve" smooth="yes"/>
			<point x="-71" y="-500" type="line" smooth="yes"/>
			<point x="-131" y="-500"/>
			<point x="-137" y="-489"/>
			<point x="-127" y="-444" type="curve" smooth="yes"/>
			<point x="321" y="1480" type="line" smooth="yes"/>
			<point x="333" y="1530"/>
			<point x="343" y="1560"/>
		</contour>
	</outline>
</glyph>
<glyph name="braceright" format="2">
	<advance width="704" height="2310"/>
	<unicode hex="007D"/>
	<outline>
		<contour>
			<point x="172" y="1558" type="curve" smooth="yes"/>
			<point x="434" y="1549"/>
			<point x="694" y="1493"/>
			<point x="694" y="1280" type="curve" smooth="yes"/>
			<point x="694" y="1046"/>
			<point x="454" y="956"/>
			<point x="454" y="830" type="curve" smooth="yes"/>
			<point x="454" y="763"/>
			<point x="468" y="745"/>
			<point x="506" y="730" type="curve" smooth="yes"/>
			<point x="528" y="721"/>
			<point x="534" y="713"/>
			<point x="534" y="680" type="curve" smooth="yes"/>
			<point x="534" y="590" type="line" smooth="yes"/>
			<point x="534" y="558"/>
			<point x="532" y="539"/>
			<point x="508" y="531" type="curve" smooth="yes"/>
			<point x="446" y="511"/>
			<point x="362" y="479"/>
			<point x="362" y="408" type="curve" smooth="yes"/>
			<point x="362" y="282"/>
			<point x="414" y="272"/>
			<point x="414" y="58" type="curve" smooth="yes"/>
			<point x="414" y="-150"/>
			<point x="156" y="-287"/>
			<point x="-206" y="-299" type="curve" smooth="yes"/>
			<point x="-247" y="-300"/>
			<point x="-260" y="-298"/>
			<point x="-260" y="-253" type="curve" smooth="yes"/>
			<point x="-260" y="-144" type="line" smooth="yes"/>
			<point x="-260" y="-90"/>
			<point x="-254" y="-88"/>
			<point x="-204" y="-85" type="curve" smooth="yes"/>
			<point x="-96" y="-79"/>
			<point x="8" y="-51"/>
			<point x="8" y="56" type="curve" smooth="yes"/>
			<point x="8" y="188"/>
			<point x="-20" y="158"/>
			<point x="-20" y="358" type="curve" smooth="yes"/>
			<point x="-20" y="482"/>
			<point x="78" y="559"/>
			<point x="204" y="613" type="curve" smooth="yes"/>
			<point x="252" y="633"/>
			<point x="255" y="654"/>
			<point x="211" y="676" type="curve" smooth="yes"/>
			<point x="153" y="705"/>
			<point x="120" y="758"/>
			<point x="120" y="820" type="curve" smooth="yes"/>
			<point x="120" y="1020"/>
			<point x="268" y="1040"/>
			<point x="268" y="1172" type="curve" smooth="yes"/>
			<point x="268" y="1273"/>
			<point x="227" y="1324"/>
			<point x="146" y="1340" type="curve" smooth="yes"/>
			<point x="106" y="1348"/>
			<point x="80" y="1341"/>
			<point x="80" y="1394" type="curve" smooth="yes"/>
			<point x="80" y="1506" type="line" smooth="yes"/>
			<point x="80" y="1568"/>
			<point x="117" y="1560"/>
		</contour>
	</outline>
</glyph>
<glyph name="cent" format="2">
	<advance width="1096" height="2310"/>
	<unicode hex="00A2"/>
	<outline>
		<contour>
			<point x="895" y="1230" type="curve" smooth="yes"/>
			<point x="995" y="1230" type="line" smooth="yes"/>
			<point x="1016" y="1230"/>
			<point x="1023" y="1224"/>
			<point x="1016" y="1205" type="curve" smooth="yes"/>
			<point x="533" y="-146" type="line" smooth="yes"/>
			<point x="527" y="-163"/>
			<point x="522" y="-170"/>
			<point x="503" y="-170" type="curve" smooth="yes"/>
			<point x="409" y="-170" type="line" smooth="yes"/>
			<point x="387" y="-170"/>
			<point x="379" y="-163"/>
			<point x="385" y="-147" type="curve" smooth="yes"/>
			<point x="868" y="1216" type="line" smooth="yes"/>
			<point x="872" y="1228"/>
			<point x="880" y="1230"/>
		</contour>
		<component base="c"/>
	</outline>
</glyph>
<glyph name="yen" format="2">
	<advance width="1570" height="0"/>
	<unicode hex="00A5"/>
	<outline>
		<contour>
			<point x="316" y="582" type="curve" smooth="yes"/>
			<point x="1357" y="582" type="line" smooth="yes"/>
			<point x="1395" y="582"/>
			<point x="1400" y="578"/>
			<point x="1400" y="554" type="curve" smooth="yes"/>
			<point x="1400" y="385" type="line" smooth="yes"/>
			<point x="1400" y="361"/>
			<point x="1396" y="352"/>
			<point x="1353" y="352" type="curve" smooth="yes"/>
			<point x="313" y="352" type="line" smooth="yes"/>
			<point x="271" y="352"/>
			<point x="270" y="356"/>
			<point x="270" y="382" type="curve" smooth="yes"/>
			<point x="270" y="554" type="line" smooth="yes"/>
			<point x="270" y="577"/>
			<point x="281" y="582"/>
		</contour>
		<contour>
			<point x="378" y="922" type="curve" smooth="yes"/>
			<point x="1417" y="922" type="line" smooth="yes"/>
			<point x="1455" y="922"/>
			<point x="1460" y="918"/>
			<point x="1460" y="894" type="curve" smooth="yes"/>
			<point x="1460" y="725" type="line" smooth="yes"/>
			<point x="1460" y="701"/>
			<point x="1457" y="692"/>
			<point x="1414" y="692" type="curve" smooth="yes"/>
			<point x="375" y="692" type="line" smooth="yes"/>
			<point x="334" y="692"/>
			<point x="332" y="696"/>
			<point x="332" y="722" type="curve" smooth="yes"/>
			<point x="332" y="894" type="line" smooth="yes"/>
			<point x="332" y="917"/>
			<point x="343" y="922"/>
		</contour>
		<component base="Y"/>
	</outline>
</glyph>
<glyph name="section" format="2">
	<advance width="1188" height="2310"/>
	<unicode hex="00A7"/>
	<outline>
		<contour>
			<point x="885" y="1316" type="curve" smooth="yes"/>
			<point x="897" y="1368"/>
			<point x="837" y="1388"/>
			<point x="733" y="1388" type="curve" smooth="yes"/>
			<point x="627" y="1388"/>
			<point x="587" y="1342"/>
			<point x="570" y="1268" type="curve" smooth="yes"/>
			<point x="516" y="1036"/>
			<point x="1211" y="1076"/>
			<point x="1136" y="750" type="curve" smooth="yes"/>
			<point x="1116" y="661"/>
			<point x="1033" y="581"/>
			<point x="932" y="514" type="curve"/>
			<point x="1007" y="463"/>
			<point x="1053" y="393"/>
			<point x="1028" y="284" type="curve" smooth="yes"/>
			<point x="971" y="36"/>
			<point x="594" y="-40"/>
			<point x="404" y="-40" type="curve" smooth="yes"/>
			<point x="188" y="-40"/>
			<point x="-154" y="4"/>
			<point x="-96" y="256" type="curve" smooth="yes"/>
			<point x="-60" y="412"/>
			<point x="85" y="478"/>
			<point x="163" y="478" type="curve" smooth="yes"/>
			<point x="257" y="478"/>
			<point x="336" y="386"/>
			<point x="314" y="292" type="curve" smooth="yes"/>
			<point x="297" y="220"/>
			<point x="232" y="210"/>
			<point x="221" y="164" type="curve" smooth="yes"/>
			<point x="209" y="112"/>
			<point x="313" y="112"/>
			<point x="417" y="112" type="curve" smooth="yes"/>
			<point x="543" y="112"/>
			<point x="598" y="138"/>
			<point x="620" y="232" type="curve" smooth="yes"/>
			<point x="674" y="464"/>
			<point x="-21" y="424"/>
			<point x="54" y="750" type="curve" smooth="yes"/>
			<point x="78" y="856"/>
			<point x="183" y="913"/>
			<point x="286" y="965" type="curve"/>
			<point x="195" y="1018"/>
			<point x="133" y="1091"/>
			<point x="162" y="1216" type="curve" smooth="yes"/>
			<point x="210" y="1424"/>
			<point x="556" y="1540"/>
			<point x="746" y="1540" type="curve" smooth="yes"/>
			<point x="1002" y="1540"/>
			<point x="1275" y="1456"/>
			<point x="1221" y="1224" type="curve" smooth="yes"/>
			<point x="1190" y="1088"/>
			<point x="1047" y="1032"/>
			<point x="969" y="1032" type="curve" smooth="yes"/>
			<point x="895" y="1032"/>
			<point x="789" y="1094"/>
			<point x="811" y="1188" type="curve" smooth="yes"/>
			<point x="828" y="1260"/>
			<point x="874" y="1270"/>
		</contour>
		<contour>
			<point x="484" y="880" type="curve"/>
			<point x="475" y="865"/>
			<point x="469" y="849"/>
			<point x="465" y="834" type="curve" smooth="yes"/>
			<point x="439" y="722"/>
			<point x="555" y="671"/>
			<point x="688" y="622" type="curve"/>
			<point x="696" y="637"/>
			<point x="702" y="651"/>
			<point x="705" y="666" type="curve" smooth="yes"/>
			<point x="731" y="780"/>
			<point x="616" y="830"/>
		</contour>
	</outline>
</glyph>
<glyph name="dieresis" format="2">
	<advance width="1000" height="0"/>
	<unicode hex="00A8"/>
	<anchor x="741" y="1500" name="_Anchor-0"/>
	<outline>
		<contour>
			<point x="1074" y="1690" type="curve" smooth="yes"/>
			<point x="968" y="1690"/>
			<point x="882" y="1776"/>
			<point x="882" y="1882" type="curve" smooth="yes"/>
			<point x="882" y="1988"/>
			<point x="968" y="2074"/>
			<point x="1074" y="2074" type="curve" smooth="yes"/>
			<point x="1180" y="2074"/>
			<point x="1266" y="1988"/>
			<point x="1266" y="1882" type="curve" smooth="yes"/>
			<point x="1266" y="1776"/>
			<point x="1180" y="1690"/>
		</contour>
		<contour>
			<point x="514" y="1690" type="curve" smooth="yes"/>
			<point x="408" y="1690"/>
			<point x="322" y="1776"/>
			<point x="322" y="1882" type="curve" smooth="yes"/>
			<point x="322" y="1988"/>
			<point x="408" y="2074"/>
			<point x="514" y="2074" type="curve" smooth="yes"/>
			<point x="620" y="2074"/>
			<point x="706" y="1988"/>
			<point x="706" y="1882" type="curve" smooth="yes"/>
			<point x="706" y="1776"/>
			<point x="620" y="1690"/>
		</contour>
	</outline>
</glyph>
<glyph name="softhyphen" format="2">
	<advance width="920" height="0"/>
	<unicode hex="00AD"/>
	<outline>
		<contour>
			<point x="219" y="890" type="curve" smooth="yes"/>
			<point x="831" y="890" type="line" smooth="yes"/>
			<point x="862" y="890"/>
			<point x="863" y="883"/>
			<point x="856" y="851" type="curve" smooth="yes"/>
			<point x="822" y="701" type="line" smooth="yes"/>
			<point x="814" y="666"/>
			<point x="811" y="660"/>
			<point x="776" y="660" type="curve" smooth="yes"/>
			<point x="174" y="660" type="line" smooth="yes"/>
			<point x="138" y="660"/>
			<point x="134" y="665"/>
			<point x="142" y="700" type="curve" smooth="yes"/>
			<point x="176" y="849" type="line" smooth="yes"/>
			<point x="183" y="881"/>
			<point x="187" y="890"/>
		</contour>
	</outline>
</glyph>
<glyph name="micro" format="2">
	<advance width="1545" height="0"/>
	<unicode hex="00B5"/>
	<outline>
		<contour>
			<point x="592" y="847" type="line"/>
			<point x="292" y="-82" type="line" smooth="yes"/>
			<point x="212" y="-330"/>
			<point x="466" y="-383"/>
			<point x="484" y="-375" type="curve" smooth="yes"/>
			<point x="493" y="-371"/>
			<point x="431" y="-346"/>
			<point x="431" y="-252" type="curve" smooth="yes"/>
			<point x="431" y="-157"/>
			<point x="519" y="-86"/>
			<point x="654" y="-86" type="curve" smooth="yes"/>
			<point x="804" y="-86"/>
			<point x="877" y="-158"/>
			<point x="877" y="-280" type="curve" smooth="yes"/>
			<point x="877" y="-401"/>
			<point x="770" y="-520"/>
			<point x="510" y="-520" type="curve" smooth="yes"/>
			<point x="228" y="-520"/>
			<point x="-7" y="-351"/>
			<point x="80" y="-82" type="curve" smooth="yes"/>
			<point x="380" y="847" type="line"/>
		</contour>
		<component base="u"/>
	</outline>
</glyph>
<glyph name="paragraph" format="2">
	<advance width="1632" height="0"/>
	<unicode hex="00B6"/>
	<outline>
		<contour>
			<point x="1003" y="-44" type="curve" smooth="yes"/>
			<point x="1303" y="1258" type="line" smooth="yes"/>
			<point x="1309" y="1286"/>
			<point x="1301" y="1287"/>
			<point x="1272" y="1287" type="curve" smooth="yes"/>
			<point x="1228" y="1287" type="line" smooth="yes"/>
			<point x="1190" y="1287"/>
			<point x="1184" y="1281"/>
			<point x="1175" y="1242" type="curve" smooth="yes"/>
			<point x="880" y="-36" type="line" smooth="yes"/>
			<point x="872" y="-69"/>
			<point x="868" y="-87"/>
			<point x="905" y="-87" type="curve" smooth="yes"/>
			<point x="941" y="-87" type="line" smooth="yes"/>
			<point x="983" y="-87"/>
			<point x="993" y="-86"/>
		</contour>
		<contour>
			<point x="214" y="989" type="curve" smooth="yes"/>
			<point x="294" y="1336"/>
			<point x="614" y="1500"/>
			<point x="872" y="1500" type="curve" smooth="yes"/>
			<point x="1673" y="1500" type="line" smooth="yes"/>
			<point x="1701" y="1500"/>
			<point x="1714" y="1496"/>
			<point x="1714" y="1466" type="curve" smooth="yes"/>
			<point x="1714" y="1328" type="line" smooth="yes"/>
			<point x="1714" y="1289"/>
			<point x="1695" y="1287"/>
			<point x="1656" y="1287" type="curve" smooth="yes"/>
			<point x="1566" y="1287" type="line" smooth="yes"/>
			<point x="1524" y="1287"/>
			<point x="1521" y="1278"/>
			<point x="1511" y="1236" type="curve" smooth="yes"/>
			<point x="1219" y="-32" type="line" smooth="yes"/>
			<point x="1211" y="-66"/>
			<point x="1209" y="-87"/>
			<point x="1247" y="-87" type="curve" smooth="yes"/>
			<point x="1345" y="-87" type="line" smooth="yes"/>
			<point x="1371" y="-87"/>
			<point x="1380" y="-88"/>
			<point x="1380" y="-114" type="curve" smooth="yes"/>
			<point x="1380" y="-259" type="line" smooth="yes"/>
			<point x="1380" y="-293"/>
			<point x="1365" y="-300"/>
			<point x="1332" y="-300" type="curve" smooth="yes"/>
			<point x="349" y="-300" type="line" smooth="yes"/>
			<point x="323" y="-300"/>
			<point x="311" y="-299"/>
			<point x="311" y="-270" type="curve" smooth="yes"/>
			<point x="311" y="-146" type="line" smooth="yes"/>
			<point x="311" y="-97"/>
			<point x="326" y="-87"/>
			<point x="375" y="-87" type="curve" smooth="yes"/>
			<point x="613" y="-87" type="line" smooth="yes"/>
			<point x="645" y="-87"/>
			<point x="656" y="-86"/>
			<point x="663" y="-54" type="curve" smooth="yes"/>
			<point x="777" y="440" type="line" smooth="yes"/>
			<point x="785" y="475"/>
			<point x="777" y="479"/>
			<point x="744" y="479" type="curve" smooth="yes"/>
			<point x="637" y="479" type="line" smooth="yes"/>
			<point x="380" y="479"/>
			<point x="134" y="642"/>
		</contour>
	</outline>
</glyph>
<glyph name="questiondown" format="2">
	<advance width="1220" height="0"/>
	<unicode hex="00BF"/>
	<outline>
		<contour>
			<point x="468" y="546" type="curve" smooth="yes"/>
			<point x="541" y="564"/>
			<point x="602" y="568"/>
			<point x="633" y="568" type="curve" smooth="yes"/>
			<point x="754" y="568"/>
			<point x="905" y="504"/>
			<point x="905" y="360" type="curve" smooth="yes"/>
			<point x="905" y="44"/>
			<point x="337" y="175"/>
			<point x="337" y="-160" type="curve" smooth="yes"/>
			<point x="337" y="-268"/>
			<point x="395" y="-326"/>
			<point x="493" y="-326" type="curve" smooth="yes"/>
			<point x="561" y="-326"/>
			<point x="617" y="-310"/>
			<point x="617" y="-286" type="curve" smooth="yes"/>
			<point x="617" y="-246"/>
			<point x="535" y="-242"/>
			<point x="535" y="-100" type="curve" smooth="yes"/>
			<point x="535" y="24"/>
			<point x="681" y="100"/>
			<point x="791" y="100" type="curve" smooth="yes"/>
			<point x="901" y="100"/>
			<point x="1045" y="14"/>
			<point x="1045" y="-122" type="curve" smooth="yes"/>
			<point x="1045" y="-326"/>
			<point x="797" y="-500"/>
			<point x="433" y="-500" type="curve" smooth="yes"/>
			<point x="91" y="-500"/>
			<point x="-85" y="-360"/>
			<point x="-85" y="-140" type="curve" smooth="yes"/>
			<point x="-85" y="314"/>
			<point x="664" y="257"/>
			<point x="664" y="339" type="curve" smooth="yes"/>
			<point x="664" y="362"/>
			<point x="642" y="374"/>
			<point x="595" y="374" type="curve" smooth="yes"/>
			<point x="573" y="374"/>
			<point x="520" y="370"/>
			<point x="467" y="352" type="curve" smooth="yes"/>
			<point x="429" y="339"/>
			<point x="425" y="326"/>
			<point x="420" y="379" type="curve" smooth="yes"/>
			<point x="409" y="485" type="line" smooth="yes"/>
			<point x="403" y="539"/>
			<point x="425" y="535"/>
		</contour>
		<contour>
			<point x="927" y="840" type="curve" smooth="yes"/>
			<point x="927" y="708"/>
			<point x="819" y="600"/>
			<point x="687" y="600" type="curve" smooth="yes"/>
			<point x="555" y="600"/>
			<point x="447" y="708"/>
			<point x="447" y="840" type="curve" smooth="yes"/>
			<point x="447" y="972"/>
			<point x="555" y="1080"/>
			<point x="687" y="1080" type="curve" smooth="yes"/>
			<point x="819" y="1080"/>
			<point x="927" y="972"/>
		</contour>
	</outline>
</glyph>
<glyph name="AE" format="2">
	<advance width="2808" height="0"/>
	<unicode hex="00C6"/>
	<outline>
		<contour>
			<point x="1535" y="1230" type="line"/>
			<point x="1435" y="1230"/>
			<point x="1418" y="1219"/>
			<point x="1367" y="1168" type="curve" smooth="yes"/>
			<point x="923" y="718" type="line" smooth="yes"/>
			<point x="897" y="691"/>
			<point x="875" y="670"/>
			<point x="938" y="670" type="curve" smooth="yes"/>
			<point x="1516" y="670" type="line"/>
			<point x="1476" y="420" type="line"/>
			<point x="682" y="420" type="line" smooth="yes"/>
			<point x="649" y="420"/>
			<point x="637" y="417"/>
			<point x="621" y="400" type="curve" smooth="yes"/>
			<point x="528" y="304" type="line" smooth="yes"/>
			<point x="510" y="286"/>
			<point x="514" y="270"/>
			<point x="556" y="270" type="curve" smooth="yes"/>
			<point x="696" y="270" type="line" smooth="yes"/>
			<point x="718" y="270"/>
			<point x="730" y="266"/>
			<point x="730" y="242" type="curve" smooth="yes"/>
			<point x="730" y="38" type="line" smooth="yes"/>
			<point x="730" y="5"/>
			<point x="724" y="0"/>
			<point x="690" y="0" type="curve" smooth="yes"/>
			<point x="-72" y="0" type="line" smooth="yes"/>
			<point x="-103" y="0"/>
			<point x="-100" y="4"/>
			<point x="-100" y="34" type="curve" smooth="yes"/>
			<point x="-100" y="232" type="line" smooth="yes"/>
			<point x="-100" y="261"/>
			<point x="-99" y="270"/>
			<point x="-70" y="270" type="curve" smooth="yes"/>
			<point x="108" y="270" type="line" smooth="yes"/>
			<point x="145" y="270"/>
			<point x="152" y="284"/>
			<point x="169" y="304" type="curve" smooth="yes"/>
			<point x="1272" y="1472" type="line" smooth="yes"/>
			<point x="1288" y="1488"/>
			<point x="1319" y="1500"/>
			<point x="1353" y="1500" type="curve" smooth="yes"/>
			<point x="1388" y="1500" type="line"/>
		</contour>
		<component base="E" xOffset="1190"/>
	</outline>
</glyph>
<glyph name="multiply" format="2">
	<advance width="1090" height="0"/>
	<unicode hex="00D7"/>
	<outline>
		<contour>
			<point x="625" y="860" type="curve" smooth="yes"/>
			<point x="821" y="1020" type="line" smooth="yes"/>
			<point x="845" y="1039"/>
			<point x="858" y="1047"/>
			<point x="874" y="1026" type="curve" smooth="yes"/>
			<point x="960" y="913" type="line" smooth="yes"/>
			<point x="976" y="892"/>
			<point x="979" y="884"/>
			<point x="953" y="863" type="curve" smooth="yes"/>
			<point x="753" y="700" type="line" smooth="yes"/>
			<point x="724" y="677"/>
			<point x="726" y="673"/>
			<point x="744" y="649" type="curve" smooth="yes"/>
			<point x="872" y="483" type="line" smooth="yes"/>
			<point x="883" y="469"/>
			<point x="878" y="462"/>
			<point x="860" y="447" type="curve" smooth="yes"/>
			<point x="712" y="327" type="line" smooth="yes"/>
			<point x="688" y="308"/>
			<point x="682" y="310"/>
			<point x="667" y="330" type="curve" smooth="yes"/>
			<point x="548" y="485" type="line" smooth="yes"/>
			<point x="530" y="509"/>
			<point x="523" y="513"/>
			<point x="494" y="490" type="curve" smooth="yes"/>
			<point x="294" y="327" type="line" smooth="yes"/>
			<point x="275" y="311"/>
			<point x="265" y="309"/>
			<point x="252" y="326" type="curve" smooth="yes"/>
			<point x="154" y="453" type="line" smooth="yes"/>
			<point x="142" y="469"/>
			<point x="147" y="471"/>
			<point x="166" y="487" type="curve" smooth="yes"/>
			<point x="376" y="658" type="line" smooth="yes"/>
			<point x="398" y="676"/>
			<point x="396" y="684"/>
			<point x="382" y="702" type="curve" smooth="yes"/>
			<point x="262" y="857" type="line" smooth="yes"/>
			<point x="244" y="880"/>
			<point x="244" y="888"/>
			<point x="272" y="911" type="curve" smooth="yes"/>
			<point x="413" y="1026" type="line" smooth="yes"/>
			<point x="438" y="1047"/>
			<point x="444" y="1040"/>
			<point x="460" y="1019" type="curve" smooth="yes"/>
			<point x="582" y="860" type="line" smooth="yes"/>
			<point x="596" y="842"/>
			<point x="603" y="842"/>
		</contour>
	</outline>
</glyph>
<glyph name="Oslash" format="2">
	<advance width="1900" height="0"/>
	<unicode hex="00D8"/>
	<outline>
		<contour>
			<point x="1365" y="1660" type="curve" smooth="yes"/>
			<point x="1478" y="1660" type="line" smooth="yes"/>
			<point x="1536" y="1660"/>
			<point x="1520" y="1637"/>
			<point x="1504" y="1606" type="curve" smooth="yes"/>
			<point x="580" y="-162" type="line" smooth="yes"/>
			<point x="564" y="-192"/>
			<point x="555" y="-200"/>
			<point x="507" y="-200" type="curve" smooth="yes"/>
			<point x="417" y="-200" type="line" smooth="yes"/>
			<point x="347" y="-200"/>
			<point x="338" y="-189"/>
			<point x="359" y="-148" type="curve" smooth="yes"/>
			<point x="1292" y="1618" type="line" smooth="yes"/>
			<point x="1308" y="1648"/>
			<point x="1316" y="1660"/>
		</contour>
		<component base="O"/>
	</outline>
</glyph>
<glyph name="Thorn" format="2">
	<advance width="1594" height="0"/>
	<unicode hex="00DE"/>
	<outline>
		<contour>
			<point x="703" y="812" type="curve" smooth="yes"/>
			<point x="679" y="704" type="line" smooth="yes"/>
			<point x="672" y="671"/>
			<point x="660" y="645"/>
			<point x="708" y="645" type="curve" smooth="yes"/>
			<point x="814" y="645" type="line" smooth="yes"/>
			<point x="966" y="645"/>
			<point x="1054" y="687"/>
			<point x="1054" y="775" type="curve" smooth="yes"/>
			<point x="1054" y="833"/>
			<point x="1006" y="855"/>
			<point x="934" y="855" type="curve" smooth="yes"/>
			<point x="752" y="855" type="line" smooth="yes"/>
			<point x="707" y="855"/>
			<point x="711" y="848"/>
		</contour>
		<contour>
			<point x="-100" y="33" type="curve" smooth="yes"/>
			<point x="-100" y="239" type="line" smooth="yes"/>
			<point x="-100" y="269"/>
			<point x="-91" y="270"/>
			<point x="-60" y="270" type="curve" smooth="yes"/>
			<point x="88" y="270" type="line" smooth="yes"/>
			<point x="126" y="270"/>
			<point x="123" y="277"/>
			<point x="130" y="307" type="curve" smooth="yes"/>
			<point x="325" y="1189" type="line" smooth="yes"/>
			<point x="333" y="1224"/>
			<point x="330" y="1230"/>
			<point x="290" y="1230" type="curve" smooth="yes"/>
			<point x="158" y="1230" type="line" smooth="yes"/>
			<point x="119" y="1230"/>
			<point x="116" y="1237"/>
			<point x="116" y="1277" type="curve" smooth="yes"/>
			<point x="116" y="1464" type="line" smooth="yes"/>
			<point x="116" y="1494"/>
			<point x="122" y="1500"/>
			<point x="150" y="1500" type="curve" smooth="yes"/>
			<point x="1054" y="1500" type="line" smooth="yes"/>
			<point x="1085" y="1500"/>
			<point x="1086" y="1491"/>
			<point x="1086" y="1459" type="curve" smooth="yes"/>
			<point x="1086" y="1273" type="line" smooth="yes"/>
			<point x="1086" y="1235"/>
			<point x="1079" y="1230"/>
			<point x="1042" y="1230" type="curve" smooth="yes"/>
			<point x="826" y="1230" type="line" smooth="yes"/>
			<point x="793" y="1230"/>
			<point x="794" y="1227"/>
			<point x="788" y="1201" type="curve" smooth="yes"/>
			<point x="780" y="1164" type="line" smooth="yes"/>
			<point x="773" y="1133"/>
			<point x="773" y="1125"/>
			<point x="822" y="1125" type="curve" smooth="yes"/>
			<point x="1024" y="1125" type="line" smooth="yes"/>
			<point x="1406" y="1125"/>
			<point x="1554" y="1025"/>
			<point x="1554" y="795" type="curve" smooth="yes"/>
			<point x="1554" y="405"/>
			<point x="1186" y="375"/>
			<point x="824" y="375" type="curve" smooth="yes"/>
			<point x="644" y="375" type="line" smooth="yes"/>
			<point x="617" y="375"/>
			<point x="606" y="374"/>
			<point x="601" y="352" type="curve" smooth="yes"/>
			<point x="593" y="315" type="line" smooth="yes"/>
			<point x="584" y="275"/>
			<point x="587" y="270"/>
			<point x="638" y="270" type="curve" smooth="yes"/>
			<point x="816" y="270" type="line" smooth="yes"/>
			<point x="853" y="270"/>
			<point x="860" y="267"/>
			<point x="860" y="231" type="curve" smooth="yes"/>
			<point x="860" y="51" type="line" smooth="yes"/>
			<point x="860" y="5"/>
			<point x="854" y="0"/>
			<point x="810" y="0" type="curve" smooth="yes"/>
			<point x="-60" y="0" type="line" smooth="yes"/>
			<point x="-91" y="0"/>
			<point x="-100" y="2"/>
		</contour>
	</outline>
</glyph>
<glyph name="oslash" format="2">
	<advance width="1298" height="0"/>
	<unicode hex="00F8"/>
	<outline>
		<contour>
			<point x="997" y="1215" type="curve" smooth="yes"/>
			<point x="1110" y="1215" type="line" smooth="yes"/>
			<point x="1168" y="1215"/>
			<point x="1152" y="1197"/>
			<point x="1136" y="1174" type="curve" smooth="yes"/>
			<point x="212" y="-161" type="line" smooth="yes"/>
			<point x="196" y="-184"/>
			<point x="187" y="-189"/>
			<point x="139" y="-189" type="curve" smooth="yes"/>
			<point x="49" y="-189" type="line" smooth="yes"/>
			<point x="-21" y="-189"/>
			<point x="-30" y="-181"/>
			<point x="-9" y="-150" type="curve" smooth="yes"/>
			<point x="924" y="1183" type="line" smooth="yes"/>
			<point x="940" y="1206"/>
			<point x="948" y="1215"/>
		</contour>
		<component base="o"/>
	</outline>
</glyph>
<glyph name="thorn" format="2">
	<advance width="1422" height="2310"/>
	<unicode hex="00FE"/>
	<outline>
		<contour>
			<point x="194" y="1560" type="curve" smooth="yes"/>
			<point x="710" y="1560" type="line" smooth="yes"/>
			<point x="744" y="1560"/>
			<point x="757" y="1558"/>
			<point x="748" y="1528" type="curve" smooth="yes"/>
			<point x="608" y="940" type="line" smooth="yes"/>
			<point x="595" y="898"/>
			<point x="597" y="887"/>
			<point x="639" y="931" type="curve" smooth="yes"/>
			<point x="724" y="1020"/>
			<point x="832" y="1078"/>
			<point x="978" y="1078" type="curve" smooth="yes"/>
			<point x="1176" y="1078"/>
			<point x="1342" y="958"/>
			<point x="1342" y="658" type="curve" smooth="yes"/>
			<point x="1342" y="218"/>
			<point x="996" y="-40"/>
			<point x="758" y="-40" type="curve" smooth="yes"/>
			<point x="652" y="-40"/>
			<point x="565" y="-8"/>
			<point x="506" y="57" type="curve" smooth="yes"/>
			<point x="469" y="97"/>
			<point x="458" y="79"/>
			<point x="449" y="40" type="curve" smooth="yes"/>
			<point x="339" y="-448" type="line" smooth="yes"/>
			<point x="329" y="-492"/>
			<point x="321" y="-500"/>
			<point x="268" y="-500" type="curve" smooth="yes"/>
			<point x="-18" y="-500" type="line" smooth="yes"/>
			<point x="-91" y="-500"/>
			<point x="-89" y="-480"/>
			<point x="-77" y="-426" type="curve" smooth="yes"/>
			<point x="320" y="1306" type="line" smooth="yes"/>
			<point x="328" y="1341"/>
			<point x="329" y="1350"/>
			<point x="282" y="1350" type="curve" smooth="yes"/>
			<point x="194" y="1350" type="line" smooth="yes"/>
			<point x="150" y="1350"/>
			<point x="148" y="1358"/>
			<point x="148" y="1402" type="curve" smooth="yes"/>
			<point x="148" y="1518" type="line" smooth="yes"/>
			<point x="148" y="1557"/>
			<point x="158" y="1560"/>
		</contour>
		<contour>
			<point x="536" y="398" type="curve" smooth="yes"/>
			<point x="536" y="288"/>
			<point x="558" y="198"/>
			<point x="614" y="198" type="curve" smooth="yes"/>
			<point x="740" y="198"/>
			<point x="872" y="430"/>
			<point x="872" y="678" type="curve" smooth="yes"/>
			<point x="872" y="806"/>
			<point x="844" y="850"/>
			<point x="784" y="850" type="curve" smooth="yes"/>
			<point x="702" y="850"/>
			<point x="536" y="666"/>
		</contour>
	</outline>
</glyph>
<glyph name="dcroat" format="2">
	<advance width="1486" height="2309"/>
	<unicode hex="0111"/>
	<outline>
		<contour>
			<point x="771" y="1290" type="curve" smooth="yes"/>
			<point x="1439" y="1290" type="line" smooth="yes"/>
			<point x="1464" y="1290"/>
			<point x="1467" y="1286"/>
			<point x="1467" y="1262" type="curve" smooth="yes"/>
			<point x="1467" y="1093" type="line" smooth="yes"/>
			<point x="1467" y="1069"/>
			<point x="1465" y="1060"/>
			<point x="1437" y="1060" type="curve" smooth="yes"/>
			<point x="769" y="1060" type="line" smooth="yes"/>
			<point x="742" y="1060"/>
			<point x="741" y="1064"/>
			<point x="741" y="1090" type="curve" smooth="yes"/>
			<point x="741" y="1262" type="line" smooth="yes"/>
			<point x="741" y="1285"/>
			<point x="749" y="1290"/>
		</contour>
		<component base="d"/>
	</outline>
</glyph>
<glyph name="gcircumflex" format="2">
	<advance width="1318" height="2310"/>
	<unicode hex="011D"/>
	<outline>
		<contour>
			<point x="-150" y="-310" type="curve" smooth="yes"/>
			<point x="-150" y="-188"/>
			<point x="-41" y="-106"/>
			<point x="97" y="-56" type="curve" smooth="yes"/>
			<point x="157" y="-34"/>
			<point x="138" y="-40"/>
			<point x="104" y="-2" type="curve" smooth="yes"/>
			<point x="73" y="32"/>
			<point x="54" y="74"/>
			<point x="54" y="122" type="curve" smooth="yes"/>
			<point x="54" y="247"/>
			<point x="146" y="331"/>
			<point x="254" y="383" type="curve" smooth="yes"/>
			<point x="316" y="413"/>
			<point x="312" y="402"/>
			<point x="266" y="444" type="curve" smooth="yes"/>
			<point x="213" y="492"/>
			<point x="182" y="555"/>
			<point x="182" y="634" type="curve" smooth="yes"/>
			<point x="182" y="932"/>
			<point x="492" y="1080"/>
			<point x="764" y="1080" type="curve" smooth="yes"/>
			<point x="766" y="1080"/>
			<point x="768" y="1080"/>
			<point x="770" y="1080" type="curve" smooth="yes"/>
			<point x="791" y="1079"/>
			<point x="803" y="1094"/>
			<point x="824" y="1108" type="curve" smooth="yes"/>
			<point x="932" y="1180"/>
			<point x="1006" y="1224"/>
			<point x="1190" y="1224" type="curve" smooth="yes"/>
			<point x="1272" y="1224"/>
			<point x="1398" y="1178"/>
			<point x="1398" y="1084" type="curve" smooth="yes"/>
			<point x="1398" y="1016"/>
			<point x="1360" y="952"/>
			<point x="1242" y="952" type="curve" smooth="yes"/>
			<point x="1146" y="952"/>
			<point x="1110" y="1015"/>
			<point x="1110" y="1053" type="curve" smooth="yes"/>
			<point x="1110" y="1079"/>
			<point x="1138" y="1107"/>
			<point x="1104" y="1107" type="curve" smooth="yes"/>
			<point x="1057" y="1107"/>
			<point x="1019" y="1096"/>
			<point x="998" y="1081" type="curve" smooth="yes"/>
			<point x="978" y="1066"/>
			<point x="975" y="1046"/>
			<point x="996" y="1039" type="curve" smooth="yes"/>
			<point x="1118" y="996"/>
			<point x="1176" y="919"/>
			<point x="1176" y="792" type="curve" smooth="yes"/>
			<point x="1176" y="492"/>
			<point x="876" y="340"/>
			<point x="602" y="340" type="curve" smooth="yes"/>
			<point x="572" y="340"/>
			<point x="542" y="342"/>
			<point x="513" y="345" type="curve" smooth="yes"/>
			<point x="471" y="350"/>
			<point x="451" y="354"/>
			<point x="428" y="326" type="curve" smooth="yes"/>
			<point x="418" y="313"/>
			<point x="412" y="298"/>
			<point x="412" y="280" type="curve" smooth="yes"/>
			<point x="412" y="258"/>
			<point x="428" y="238"/>
			<point x="486" y="238" type="curve" smooth="yes"/>
			<point x="536" y="238"/>
			<point x="772" y="240"/>
			<point x="828" y="240" type="curve" smooth="yes"/>
			<point x="1020" y="240"/>
			<point x="1130" y="148"/>
			<point x="1130" y="-18" type="curve" smooth="yes"/>
			<point x="1130" y="-389"/>
			<point x="770" y="-530"/>
			<point x="384" y="-530" type="curve" smooth="yes"/>
			<point x="48" y="-530"/>
			<point x="-150" y="-454"/>
		</contour>
		<contour>
			<point x="285" y="-130" type="curve" smooth="yes"/>
			<point x="255" y="-159"/>
			<point x="236" y="-192"/>
			<point x="236" y="-230" type="curve" smooth="yes"/>
			<point x="236" y="-304"/>
			<point x="326" y="-326"/>
			<point x="464" y="-326" type="curve" smooth="yes"/>
			<point x="637" y="-326"/>
			<point x="756" y="-286"/>
			<point x="756" y="-176" type="curve" smooth="yes"/>
			<point x="756" y="-130"/>
			<point x="712" y="-118"/>
			<point x="600" y="-118" type="curve" smooth="yes"/>
			<point x="558" y="-118"/>
			<point x="456" y="-118"/>
			<point x="412" y="-118" type="curve" smooth="yes"/>
			<point x="391" y="-118"/>
			<point x="370" y="-117"/>
			<point x="348" y="-114" type="curve" smooth="yes"/>
			<point x="313" y="-110"/>
			<point x="305" y="-110"/>
		</contour>
		<contour>
			<point x="586" y="604" type="curve" smooth="yes"/>
			<point x="586" y="554"/>
			<point x="602" y="520"/>
			<point x="644" y="520" type="curve" smooth="yes"/>
			<point x="730" y="520"/>
			<point x="792" y="690"/>
			<point x="792" y="816" type="curve" smooth="yes"/>
			<point x="792" y="866"/>
			<point x="774" y="900"/>
			<point x="732" y="900" type="curve" smooth="yes"/>
			<point x="646" y="900"/>
			<point x="586" y="730"/>
		</contour>
		<component base="circumflexcomb" xOffset="40" yOffset="-370"/>
	</outline>
</glyph>
<glyph name="gbreve" format="2">
	<advance width="1135" height="0"/>
	<unicode hex="011F"/>
	<outline>
		<contour>
			<point x="482" y="1238" type="curve" smooth="yes"/>
			<point x="293" y="1238"/>
			<point x="252" y="1363"/>
			<point x="295" y="1577" type="curve" smooth="yes"/>
			<point x="299" y="1594"/>
			<point x="304" y="1596"/>
			<point x="320" y="1596" type="curve" smooth="yes"/>
			<point x="426" y="1596" type="line" smooth="yes"/>
			<point x="439" y="1596"/>
			<point x="441" y="1593"/>
			<point x="440" y="1580" type="curve" smooth="yes"/>
			<point x="438" y="1540"/>
			<point x="442" y="1498"/>
			<point x="533" y="1498" type="curve" smooth="yes"/>
			<point x="619" y="1498"/>
			<point x="641" y="1536"/>
			<point x="659" y="1567" type="curve" smooth="yes"/>
			<point x="669" y="1585"/>
			<point x="671" y="1596"/>
			<point x="693" y="1596" type="curve" smooth="yes"/>
			<point x="802" y="1596" type="line" smooth="yes"/>
			<point x="822" y="1596"/>
			<point x="822" y="1592"/>
			<point x="816" y="1572" type="curve" smooth="yes"/>
			<point x="766" y="1362"/>
			<point x="668" y="1238"/>
		</contour>
		<component base="g"/>
	</outline>
</glyph>
<glyph name="hcircumflex" format="2">
	<advance width="1432" height="2310"/>
	<unicode hex="0125"/>
	<outline>
		<contour>
			<point x="875" y="1175" type="curve" smooth="yes"/>
			<point x="809" y="1245" type="line" smooth="yes"/>
			<point x="796" y="1259"/>
			<point x="798" y="1262"/>
			<point x="813" y="1279" type="curve" smooth="yes"/>
			<point x="1037" y="1537" type="line" smooth="yes"/>
			<point x="1051" y="1553"/>
			<point x="1063" y="1554"/>
			<point x="1089" y="1554" type="curve" smooth="yes"/>
			<point x="1256" y="1554" type="line" smooth="yes"/>
			<point x="1280" y="1554"/>
			<point x="1289" y="1551"/>
			<point x="1295" y="1537" type="curve" smooth="yes"/>
			<point x="1410" y="1280" type="line" smooth="yes"/>
			<point x="1415" y="1269"/>
			<point x="1412" y="1258"/>
			<point x="1401" y="1245" type="curve" smooth="yes"/>
			<point x="1336" y="1171" type="line" smooth="yes"/>
			<point x="1321" y="1154"/>
			<point x="1319" y="1158"/>
			<point x="1306" y="1170" type="curve" smooth="yes"/>
			<point x="1160" y="1315" type="line" smooth="yes"/>
			<point x="1146" y="1328"/>
			<point x="1134" y="1329"/>
			<point x="1115" y="1316" type="curve" smooth="yes"/>
			<point x="906" y="1169" type="line" smooth="yes"/>
			<point x="890" y="1158"/>
			<point x="885" y="1164"/>
		</contour>
		<component base="h"/>
	</outline>
</glyph>
<glyph name="Hbar" format="2">
	<advance width="1966" height="0"/>
	<unicode hex="0126"/>
	<outline>
		<contour>
			<point x="194" y="1180" type="curve" smooth="yes"/>
			<point x="1951" y="1180" type="line" smooth="yes"/>
			<point x="2016" y="1180"/>
			<point x="2024" y="1176"/>
			<point x="2024" y="1152" type="curve" smooth="yes"/>
			<point x="2024" y="983" type="line" smooth="yes"/>
			<point x="2024" y="959"/>
			<point x="2018" y="950"/>
			<point x="1945" y="950" type="curve" smooth="yes"/>
			<point x="189" y="950" type="line" smooth="yes"/>
			<point x="119" y="950"/>
			<point x="116" y="954"/>
			<point x="116" y="980" type="curve" smooth="yes"/>
			<point x="116" y="1152" type="line" smooth="yes"/>
			<point x="116" y="1175"/>
			<point x="135" y="1180"/>
		</contour>
		<component base="H"/>
	</outline>
</glyph>
